<svg width="1930.9" height="550" viewBox="-1.2 0 1930.9 550" xmlns="http://www.w3.org/2000/svg" xmlns:xlink="http://www.w3.org/1999/xlink" overflow="hidden"><style>
.MsftOfcResponsive_Fill_ffffcc {
 fill:#FFFFCC; 
}
.MsftOfcThm_Accent2_Stroke_v2 {
 stroke:#C0504D; 
}
</style>
<g id="change1_1"><path d="M1888.6 271.6C1882 279.3 1867.2 296.5 1860 308.1 1869.6 321.8 1887.6 352.2 1901.5 385 1924.4 439 1927.5 478.4 1911.5 508.7 1897.6 535 1871 550 1838.5 550 1838.1 550 1837.8 550 1837.4 550 1835.5 550 1833.6 549.9 1831.8 549.8 1807 548.7 1787.9 542.6 1771 537.1L1770.9 537.1C1762 534.2 1753.5 531.5 1744.6 529.8 1507.5 483.4 1263.3 459.5 1018.9 458.9 1001 458.9 982.8 458.9 964.9 459.1 964.7 459.1 963.9 459.1 963.7 459.1 945.8 458.9 927.6 458.8 909.7 458.9 665.3 459.5 421.1 483.4 184 529.8 175.1 531.5 166.6 534.3 157.7 537.1L157.5 537.1C140.6 542.5 121.5 548.7 96.7 549.8 94.8 549.9 92.9 549.9 91.1 550 90.7 550 90.4 550 90 550 57.5 550 30.9 535 17 508.7 0.9 478.3 4.1 439 26.9 385 40.8 352.2 58.8 321.8 68.4 308.1 61.1 296.4 45.8 278.6 39.8 271.6L39.5 271.3C32.1 262.6 25.6 255.1 20.4 247.9 13.7 238.7 1.4 221.5 0.1 197.4-1.2 172.2 8.1 136.3 60.2 108.6 82.3 96.9 110.9 87.1 147.7 78.7 184.3 70.3 220.9 65.2 242.7 62.2L243.9 62C250.4 61.1 256 60.3 259.4 59.8 335.7 47.3 413.5 36.8 490.8 28.7 628.7 14.1 769.2 6.5 908.3 6.2 926.9 6.1 945.7 6.2 964.2 6.4 982.7 6.2 1001.5 6.1 1020.1 6.2 1159.3 6.6 1299.7 14.1 1437.7 28.7 1515 36.8 1592.9 47.3 1669.1 59.8 1672.6 60.4 1678.3 61.2 1684.9 62.1L1685.8 62.2C1707.6 65.2 1744.2 70.3 1780.8 78.7 1817.6 87.1 1846.2 96.9 1868.3 108.6 1920.4 136.3 1929.7 172.1 1928.4 197.4 1927.1 221.5 1914.8 238.6 1908.1 247.8 1902.8 255.1 1896.4 262.6 1889 271.3L1888.6 271.6Z" class="MsftOfcThm_Accent2_Stroke_v2 MsftOfcResponsive_Fill_ffffcc" stroke="#C0504D" stroke-width="8.17346" fill="#FFFFFF"/></g><g id="change2_1"><path d="M1831.9 513.7C1807.8 513.7 1788.8 508.4 1772.1 503.7 1762.9 501.1 1754.2 498.7 1744.9 497.3 1506.8 460.2 1262.4 441.4 1018.6 441.4 1000.7 441.4 982.6 441.5 964.7 441.7 964.5 441.7 963.8 441.7 963.6 441.7 945.7 441.5 927.6 441.4 909.7 441.4 665.9 441.4 421.6 460.2 183.4 497.3 174.1 498.7 165.4 501.2 156.2 503.7 139.4 508.4 120.5 513.7 96.4 513.7 94.6 513.7 92.8 513.7 91 513.6 60.2 512.6 35.7 497.5 23.9 472.3 10.2 443 15.1 405.4 39.5 354 55.2 321 75 290.8 84.4 278.6 84.7 278.2 85.1 277.7 85.5 277.2 79.6 265.2 64 244.8 56.6 235.3 49.6 226.3 43.6 218.4 38.9 211.1 33.1 202.1 22.3 185.3 22.2 162.8 22.1 139.2 32.3 106.1 81.8 82 103.3 71.5 131.2 63.1 167.1 56.2 202.4 49.4 237 45.7 260 43.3 266.9 42.6 272.9 41.9 276.5 41.5 351.2 31.6 427.4 23.4 502.8 17 637.4 5.7 774.3 0 909.7 0 927.8 0 946.1 0.1 964.2 0.3 982.3 0.1 1000.6 0 1018.7 0 1154.2 0 1291.1 5.7 1425.6 17.1 1501.1 23.5 1577.2 31.7 1651.9 41.6 1655.5 42.1 1661.5 42.7 1668.4 43.4 1691.3 45.8 1726 49.5 1761.3 56.3 1797.2 63.2 1825.1 71.6 1846.6 82.1 1896.1 106.2 1906.3 139.3 1906.2 162.9 1906.1 185.4 1895.3 202.2 1889.5 211.2 1884.8 218.5 1878.8 226.4 1871.8 235.4 1864.5 244.9 1848.8 265.3 1842.9 277.3 1843.3 277.8 1843.6 278.3 1844 278.7 1853.5 290.9 1873.3 321 1888.9 354.1 1913.3 405.5 1918.2 443.1 1904.5 472.3 1892.6 497.5 1868.2 512.6 1837.4 513.6 1835.5 513.6 1833.7 513.7 1831.9 513.7Z" class="MsftOfcThm_Accent2_Stroke_v2 MsftOfcResponsive_Fill_ffffcc" stroke="#C0504D" stroke-width="8.17346" fill="#FFFFFF"/></g><g id="change3_1"><path d="M1831.9 490.5C1829 490.5 1826 490.4 1823 490.2L1823.7 479.8C1827.9 480.1 1832.2 480.1 1836.2 480 1843.1 479.8 1849.4 478.5 1854.8 476.2L1858.8 485.8C1852.2 488.6 1844.7 490.1 1836.5 490.4 1835 490.4 1833.5 490.5 1831.9 490.5ZM96.6 490.5 96.5 490.5C95 490.5 93.4 490.5 91.8 490.4 79.9 490 69.5 486.9 61.1 481.3L66.9 472.6C73.7 477.1 82.2 479.6 92.1 479.9 93.6 479.9 95 480 96.4 480L96.5 480 96.5 490.5ZM131.5 486.2 129.2 476C135.4 474.6 141.5 472.9 147.3 471.2 152 469.9 156.9 468.5 162 467.3L164.5 477.4C159.6 478.6 154.8 480 150.1 481.3 144.1 483 137.9 484.7 131.5 486.2ZM1788.5 484.1C1785.1 483.2 1781.7 482.2 1778.4 481.3L1778.3 481.3C1771.1 479.3 1763.7 477.2 1755.9 475.6L1758 465.4C1766.1 467.1 1773.7 469.2 1781.1 471.2L1781.2 471.2C1784.5 472.1 1787.8 473 1791.2 473.9L1788.5 484.1ZM197.5 471.6 195.9 461.3C207.1 459.6 218.4 457.9 229.6 456.3L231.1 466.6C220 468.2 208.6 469.9 197.5 471.6ZM1722.6 470.4C1711.5 468.7 1700.1 467.1 1689 465.5L1690.5 455.2C1701.7 456.8 1713 458.5 1724.2 460.1L1722.6 470.4ZM264.8 461.9 263.4 451.6C274.6 450.1 286 448.5 297.2 447.1L298.5 457.4C287.4 458.9 276 460.4 264.8 461.9ZM1655.2 460.8C1644.1 459.3 1632.7 457.8 1621.5 456.4L1622.8 446.1C1634 447.5 1645.4 449 1656.6 450.5L1655.2 460.8ZM1884.8 459.2 1875.1 455.4C1877.2 449.9 1878.3 443.6 1878.3 436.6 1878.3 432.8 1878 428.7 1877.4 424.5L1887.7 423C1888.4 427.7 1888.7 432.3 1888.7 436.6 1888.7 444.9 1887.4 452.5 1884.8 459.2ZM332.3 453.2 331 442.9C342.2 441.5 353.6 440.2 364.8 438.9L366 449.3C354.8 450.5 343.4 451.8 332.3 453.2ZM1587.8 452.2C1576.6 450.9 1565.2 449.5 1554 448.3L1555.2 437.9C1566.4 439.2 1577.8 440.5 1589 441.8L1587.8 452.2ZM40.9 450.1C40.1 445.9 39.6 441.3 39.6 436.5 39.6 429.7 40.5 422.2 42.2 414.2L52.4 416.4C50.8 423.7 50 430.5 50 436.5 50 440.6 50.4 444.5 51.1 448L40.9 450.1ZM399.8 445.4 398.7 435C409.9 433.8 421.3 432.6 432.6 431.5L433.6 441.9C422.4 443 411 444.2 399.8 445.4ZM1520.2 444.5C1509 443.3 1497.6 442.2 1486.4 441L1487.4 430.6C1498.7 431.7 1510.1 432.9 1521.3 434.1L1520.2 444.5ZM467.5 438.6 466.5 428.2C477.8 427.2 489.2 426.1 500.4 425.2L501.3 435.6C490.1 436.6 478.8 437.6 467.5 438.6ZM1452.5 437.9C1441.3 436.9 1429.9 435.9 1418.6 434.9L1419.5 424.5C1430.8 425.4 1442.2 426.4 1453.4 427.5L1452.5 437.9ZM535.3 432.8 534.5 422.4C545.7 421.5 557.2 420.7 568.5 419.9L569.2 430.3C557.9 431.1 546.5 431.9 535.3 432.8ZM1384.8 432.2C1373.6 431.3 1362.2 430.5 1350.9 429.7L1351.6 419.3C1362.9 420.1 1374.3 420.9 1385.6 421.8L1384.8 432.2ZM603.1 428 602.4 417.6C613.7 416.9 625.1 416.2 636.4 415.5L637 425.9C625.8 426.6 614.4 427.3 603.1 428ZM1316.9 427.5C1305.6 426.8 1294.2 426.1 1283 425.5L1283.6 415.1C1294.8 415.7 1306.3 416.4 1317.6 417.1L1316.9 427.5ZM671 424.1 670.5 413.7C681.8 413.1 693.2 412.6 704.5 412.1L704.9 422.5C693.7 423 682.3 423.5 671 424.1ZM1249 423.7C1237.8 423.2 1226.3 422.6 1215 422.2L1215.4 411.8C1226.7 412.3 1238.2 412.8 1249.4 413.3L1249 423.7ZM739 421.2 738.6 410.8C749.9 410.4 761.4 410 772.7 409.7L773 420.1C761.7 420.4 750.3 420.8 739 421.2ZM1181.1 420.9C1169.8 420.5 1158.4 420.2 1147.1 419.9L1147.4 409.5C1158.7 409.8 1170.1 410.2 1181.5 410.5L1181.1 420.9ZM807 419.2 806.8 408.8C818.1 408.6 829.6 408.3 840.9 408.2L841.1 418.6C829.7 418.8 818.3 419 807 419.2ZM1113.1 419.1C1101.8 418.9 1090.4 418.7 1079.1 418.5L1079.2 408.1C1090.5 408.2 1102 408.4 1113.3 408.7L1113.1 419.1ZM964.4 418.4 963.8 418.4C956.9 418.3 949.9 418.3 942.9 418.2L943 407.8C950 407.8 956.9 407.9 963.9 408L964.4 408C968.5 408 972.8 407.9 977 407.9L977.1 418.3C972.9 418.3 968.7 418.4 964.4 418.4ZM875 418.3 874.9 407.9C886.2 407.8 897.7 407.8 909 407.8L909 418.2C897.7 418.1 886.3 418.2 875 418.3ZM1045.1 418.2C1036.3 418.2 1027.4 418.1 1018.6 418.1 1016.1 418.1 1013.6 418.1 1011.1 418.1L1011.1 407.7C1013.6 407.7 1016.1 407.7 1018.6 407.7 1027.5 407.7 1036.4 407.7 1045.2 407.8L1045.1 418.2ZM1868.8 392.7C1866 385.1 1862.5 377 1858.5 368.4 1857.5 366.3 1856.5 364.2 1855.4 362L1864.7 357.4C1865.8 359.6 1866.9 361.8 1867.9 363.9 1872.1 372.7 1875.7 381.2 1878.6 389L1868.8 392.7ZM62.6 384.9 53 381C55.2 375.6 57.8 369.8 60.5 364 62.7 359.4 65.1 354.6 67.6 349.8L76.8 354.6C74.3 359.3 72 364 69.9 368.5 67.2 374.1 64.7 379.7 62.6 384.9ZM1839.2 332.5C1830.8 318.4 1824.2 308.7 1821 304.2L1829.5 298.1C1832.8 302.7 1839.6 312.7 1848.2 327.1L1839.2 332.5ZM93.5 325.3 84.6 319.8C91.2 309.1 98 299 102.8 292.8L104 291.2 112.3 297.5 111 299.2C106.5 305.1 99.9 314.8 93.5 325.3ZM1820.3 271.5 1810.2 268.9C1810.8 266.7 1811.6 264.5 1812.6 262.4 1815.8 255.8 1820.8 247.8 1827.9 237.7L1836.4 243.7C1829.6 253.3 1824.9 260.9 1821.9 266.9 1821.3 268.5 1820.7 270 1820.3 271.5ZM105.2 264.8C101.5 257.7 95.5 248.7 86.9 237L95.3 230.8C104.3 243 110.4 252.3 114.4 259.9L105.2 264.8ZM1856.7 216.7 1848.4 210.4C1853.7 203.4 1857.9 197.8 1861.1 193 1863 190.1 1865.1 186.8 1867 183.1L1876.3 187.9C1874.1 192.1 1871.8 195.8 1869.9 198.7 1866.5 203.8 1862.4 209.4 1856.7 216.7ZM66.4 209.9C63 205.4 60.5 201.8 58.4 198.6 55.3 193.8 51.1 187.3 48.3 179.3L58.1 175.9C60.5 182.7 64.1 188.4 67.1 193 69 196 71.4 199.4 74.6 203.7L66.4 209.9ZM1871.6 153.5C1869.6 144.2 1864.3 135.5 1855.7 127.8L1862.7 120.1C1872.9 129.3 1879.4 139.8 1881.8 151.4L1871.6 153.5ZM59 146.3 49.4 142.3C53.7 132 61.6 122.6 72.7 114.4L78.9 122.8C69.3 129.8 62.6 137.8 59 146.3ZM1828.3 110.7C1819.3 106.6 1808.8 102.8 1797 99.3L1799.9 89.3C1812.2 92.9 1823.1 96.9 1832.6 101.2L1828.3 110.7ZM107.7 107.4 103.8 97.7C113.4 93.8 124.5 90.2 136.7 86.9L139.4 97C127.6 100.2 116.9 103.7 107.7 107.4ZM1764.4 91.2C1761.3 90.6 1758.1 89.9 1754.9 89.3 1747.4 87.9 1739.4 86.5 1731.1 85.2L1732.7 74.9C1741.1 76.2 1749.2 77.6 1756.8 79.1 1760.1 79.7 1763.3 80.4 1766.4 81L1764.4 91.2ZM172.3 89.6 170.3 79.4 171.5 79.2C181.6 77.3 192.6 75.4 204.1 73.7L205.6 84C194.2 85.7 183.4 87.5 173.4 89.4L172.3 89.6ZM1697.6 80.5C1685.3 79 1673.9 77.8 1664.8 76.8L1663.8 76.7 1664.9 66.3 1665.9 66.4C1675 67.4 1686.4 68.6 1698.8 70.1L1697.6 80.5ZM239.2 79.5 238 69.2C247.1 68.1 255.2 67.3 262.4 66.5L262.9 66.4C266.1 66.1 269.2 65.7 271.9 65.4L273 75.8C270.3 76.1 267.2 76.4 264 76.8L263.5 76.9C256.3 77.6 248.2 78.5 239.2 79.5ZM1629.9 72.6C1618.7 71.2 1607.4 69.7 1596.2 68.4L1597.5 58.1C1608.7 59.5 1620.1 60.9 1631.3 62.3L1629.9 72.6ZM306.9 71.5 305.6 61.2C316.8 59.8 328.2 58.4 339.4 57L340.6 67.3C329.4 68.7 318 70.1 306.9 71.5ZM1562.4 64.4C1551.2 63.1 1539.8 61.9 1528.6 60.7L1529.7 50.3C1540.9 51.5 1552.3 52.8 1563.6 54L1562.4 64.4ZM374.4 63.5 373.2 53.1C384.4 51.8 395.8 50.6 407.1 49.4L408.2 59.8C397 61 385.6 62.2 374.4 63.5ZM1494.8 57.2C1483.6 56.1 1472.2 55 1461 54L1462 43.6C1473.2 44.6 1484.7 45.7 1495.9 46.9L1494.8 57.2ZM442 56.4 441 46C452.3 44.9 463.7 43.8 474.9 42.8L475.8 53.2C464.7 54.2 453.3 55.3 442 56.4ZM1427.1 51 1422.7 50.6C1412.9 49.8 1403 49 1393.2 48.2L1394 37.8C1403.8 38.6 1413.8 39.4 1423.6 40.2L1428 40.6 1427.1 51ZM509.8 50.2 508.9 39.8C520.2 38.9 531.6 38 542.9 37.1L543.7 47.5C532.4 48.4 521 49.3 509.8 50.2ZM1359.3 45.7C1348 44.9 1336.6 44.1 1325.4 43.4L1326 33C1337.3 33.7 1348.7 34.5 1360 35.3L1359.3 45.7ZM577.6 45.1 576.9 34.7C588.2 33.9 599.6 33.2 610.9 32.5L611.5 42.9C600.2 43.6 588.8 44.3 577.6 45.1ZM1291.4 41.4C1280.1 40.8 1268.7 40.2 1257.4 39.6L1257.9 29.2C1269.2 29.8 1280.7 30.4 1291.9 31L1291.4 41.4ZM645.4 40.9 644.8 30.5C656.1 29.9 667.6 29.3 678.8 28.8L679.3 39.2C668.2 39.7 656.7 40.3 645.4 40.9ZM1223.5 38C1212.3 37.5 1200.8 37.1 1189.5 36.7L1189.9 26.3C1201.2 26.7 1212.7 27.1 1224 27.6L1223.5 38ZM713.4 37.6 713 27.2C724.3 26.7 735.8 26.3 747.1 25.9L747.5 36.3C736.1 36.8 724.6 37.2 713.4 37.6ZM1155.5 35.6C1144.2 35.3 1132.8 35 1121.5 34.8L1121.7 24.4C1133 24.6 1144.5 24.9 1155.8 25.2L1155.5 35.6ZM781.4 35.4 781.1 25C792.4 24.7 803.9 24.4 815.2 24.2L815.4 34.6C804.1 34.8 792.6 35.1 781.4 35.4ZM1087.5 34.1C1076.2 33.9 1064.8 33.8 1053.5 33.7L1053.6 23.3C1064.9 23.4 1076.3 23.5 1087.7 23.7L1087.5 34.1ZM849.4 34 849.3 23.6C860.6 23.5 872.1 23.4 883.4 23.3L883.5 33.7C872.1 33.8 860.6 33.9 849.4 34ZM951.4 33.8C940.1 33.7 928.7 33.6 917.4 33.6L917.4 23.2C928.7 23.2 940.2 23.3 951.5 23.4L951.4 33.8ZM985.5 33.8 985.4 23.4C996.5 23.3 1007.6 23.3 1018.6 23.3L1019.5 23.3 1019.5 33.7 1018.6 33.7C1007.7 33.6 996.5 33.7 985.5 33.8Z" class="MsftOfcThm_Accent2_Stroke_v2 MsftOfcResponsive_Fill_ffffcc" stroke="#C0504D" stroke-width="8.17346" fill="#FFFFFF"/></g></svg>