<svg width="101.42" height="148.23" viewBox="0 0 101.42 148.23" xmlns="http://www.w3.org/2000/svg" xmlns:xlink="http://www.w3.org/1999/xlink" xml:space="preserve" overflow="visible"><defs></defs><g><g><path d="M88.78 69.32C92.95 73.74 105.41 91.91 72.45 127.3 71.04 128.81 69.26 127.7 70.16 125.86 74.39 117.15 78.03 104.35 68.63 96.32 68.07 95.84 68.09 94.84 68.69 94.02L86.38 69.95C87.08 69 88.2 68.7 88.78 69.32Z" fill="#D14A4A"/><path d="M41.98 42.43C36.07 41.06 14.09 39.44 0.12 85.74-0.48 87.72 1.38 88.69 2.52 86.99 7.92 78.95 17.14 69.36 28.8 73.43 29.49 73.67 30.35 73.16 30.76 72.21L42.64 44.81C43.11 43.73 42.8 42.62 41.98 42.43Z" fill="#D14A4A"/><g><rect x="23.92" y="96.43" width="31.47" height="8.43" fill="#FC8F00" transform="matrix(-0.8671 -0.4982 0.4982 -0.8671 23.9004 207.672)"/><rect x="38.35" y="96.43" width="2.6" height="8.43" fill="#E26000" transform="matrix(-0.8671 -0.4981 0.4981 -0.8671 23.9009 207.672)"/><rect x="45.85" y="100.74" width="2.6" height="8.43" fill="#E26000" transform="matrix(-0.8671 -0.4981 0.4981 -0.8671 35.7628 219.449)"/><rect x="30.86" y="92.13" width="2.6" height="8.43" fill="#E26000" transform="matrix(0.8671 0.4982 -0.4982 0.8671 52.2676 -3.2142)"/></g><g><g><path d="M22.56 85.97 60.95 108.03C60.95 108.03 62.31 106.95 64.53 104.89 74.58 95.56 102.28 66.04 101.4 24.77 101.24 16.91 100.05 8.65 97.49-3.55271e-15 88.75 2.15 80.99 5.27 74.12 9.07 71.11 10.75 68.27 12.54 65.59 14.45 29.06 40.44 22.56 85.97 22.56 85.97Z" fill="#FFFFFF"/><path d="M74.12 9.07C76.11 14.23 79.83 18.76 85 21.73 90.16 24.69 95.94 25.62 101.4 24.76 101.24 16.9 100.05 8.64 97.49-0.01 88.75 2.15 80.99 5.27 74.12 9.07Z" fill="#D14A4A"/></g><g><ellipse cx="69.33" cy="48.99" rx="16.06" ry="16.06" fill="#B0E9EA" transform="matrix(0.9206 -0.3905 0.3905 0.9206 -13.6235 30.9623)"/><path d="M53.81 40.06C58.73 31.5 69.7 28.53 78.26 33.45 86.82 38.37 89.79 49.34 84.87 57.9 79.95 66.46 68.98 69.43 60.42 64.51 56.92 62.5 54.35 59.47 52.88 56.02 50.74 51.03 50.9 45.13 53.81 40.06ZM76.41 36.67C73.12 34.78 69.29 34.28 65.63 35.27 61.97 36.26 58.91 38.62 57.02 41.91 55.13 45.2 54.63 49.03 55.62 52.69 56.61 56.35 58.97 59.41 62.26 61.3 65.55 63.19 69.38 63.69 73.04 62.7 76.7 61.71 79.76 59.35 81.65 56.06 83.54 52.77 84.04 48.94 83.05 45.28 82.87 44.63 82.66 44 82.4 43.39 81.19 40.57 79.12 38.22 76.41 36.67Z" fill="#D14A4A"/><path d="M75.57 41.24C73.92 41.82 73.43 44.72 74.49 47.72 75.54 50.72 77.74 52.68 79.39 52.1 81.04 51.52 81.53 48.62 80.47 45.62 79.41 42.63 77.22 40.66 75.57 41.24Z" fill="#FFFFFF" opacity="0.4"/></g><path d="M95.21 28.25C93.09 27.93 90.84 31.28 90.17 35.73 89.51 40.17 90.69 44.03 92.81 44.35 94.93 44.67 97.18 41.32 97.85 36.87 98.51 32.43 97.33 28.57 95.21 28.25Z" fill="#FFFFFF" opacity="0.4"/></g></g><g><path d="M15.45 113.85C11.49 120.75 12.31 148.22 12.31 148.22 12.31 148.22 36.47 135.1 40.43 128.2 44.39 121.3 42.01 112.49 35.11 108.53 28.22 104.58 19.42 106.96 15.45 113.85Z" fill="#E26000"/><path d="M21.47 116.69C19.33 120.42 19.78 135.26 19.78 135.26 19.78 135.26 32.83 128.17 34.97 124.45 37.11 120.72 35.83 115.97 32.1 113.83 28.37 111.68 23.61 112.96 21.47 116.69Z" fill="#F9C900"/></g></g></svg>