<svg width="1040" height="500" viewBox="0 0 1040 500" xmlns="http://www.w3.org/2000/svg" xmlns:xlink="http://www.w3.org/1999/xlink" xml:space="preserve" overflow="visible"><defs></defs><g><g><path d="M1040 0 1040 500 0 500 0 0 935.08 0C935.09 0 935.09 0 935.09 0L1040 0Z" fill="#C8EFFE"/></g></g><path d="M1039.89 0 1039.89 17.77 1015.13 17.77 1015.13 0 1012.83 0 1012.83 17.77 988.06 17.77 988.06 0 985.76 0 985.76 17.77 961 17.77 961 0 958.7 0 958.7 17.77 933.93 17.77 933.93 0 931.63 0 931.63 17.77 906.87 17.77 906.87 0 904.56 0 904.56 17.77 879.8 17.77 879.8 0 877.49 0 877.49 17.77 852.75 17.77 852.75 0 850.43 0 850.43 17.77 825.67 17.77 825.67 0 823.37 0 823.37 17.77 798.6 17.77 798.6 0 796.3 0 796.3 17.77 771.54 17.77 771.54 0 769.24 0 769.24 17.77 744.47 17.77 744.47 0 742.17 0 742.17 17.77 717.41 17.77 717.41 0 715.1 0 715.1 17.77 690.33 17.77 690.33 0 688.03 0 688.03 17.77 663.27 17.77 663.27 0 660.97 0 660.97 17.77 636.2 17.77 636.2 0 633.9 0 633.9 17.77 609.14 17.77 609.14 0 606.83 0 606.83 17.77 582.07 17.77 582.07 0 579.76 0 579.76 17.77 555.01 17.77 555.01 0 552.69 0 552.69 17.77 528.04 17.77 528.04 0 525.63 0 525.63 17.77 500.98 17.77 500.98 0 498.68 0 498.68 17.77 473.91 17.77 473.91 0 471.6 0 471.6 17.77 446.84 17.77 446.84 0 444.54 0 444.54 17.77 419.77 17.77 419.77 0 417.47 0 417.47 17.77 392.71 17.77 392.71 0 390.4 0 390.4 17.77 365.64 17.77 365.64 0 363.34 0 363.34 17.77 338.58 17.77 338.58 0 336.26 0 336.26 17.77 311.5 17.77 311.5 0 309.2 0 309.2 17.77 284.43 17.77 284.43 0 282.13 0 282.13 17.77 257.37 17.77 257.37 0 255.07 0 255.07 17.77 230.3 17.77 230.3 0 228 0 228 17.77 203.24 17.77 203.24 0 200.93 0 200.93 17.77 176.17 17.77 176.17 0 173.86 0 173.86 17.77 149.12 17.77 149.12 0 146.8 0 146.8 17.77 122.04 17.77 122.04 0 119.74 0 119.74 17.77 94.98 17.77 94.98 0 92.67 0 92.67 17.77 67.91 17.77 67.91 0 65.61 0 65.61 17.77 40.84 17.77 40.84 0 38.54 0 38.54 17.77 13.78 17.77 13.78 0 11.47 0 11.47 17.77 0 17.77 0 20.07 11.47 20.07 11.47 46.01 0 46.01 0 48.32 11.47 48.32 11.47 74.25 0 74.25 0 76.56 11.47 76.56 11.47 102.5 0 102.5 0 104.8 11.47 104.8 11.47 130.75 0 130.75 0 133.05 11.47 133.05 11.47 158.99 0 158.99 0 161.29 11.47 161.29 11.47 187.23 0 187.23 0 189.54 11.47 189.54 11.47 215.47 0 215.47 0 217.9 11.47 217.9 11.47 243.72 0 243.72 0 247.06 11.47 247.06 11.47 276.85 0 276.85 0 279.15 11.47 279.15 11.47 305.09 0 305.09 0 307.4 11.47 307.4 11.47 333.34 0 333.34 0 335.64 11.47 335.64 11.47 361.58 0 361.58 0 363.89 11.47 363.89 11.47 389.82 0 389.82 0 392.13 11.47 392.13 11.47 418.07 0 418.07 0 420.37 11.47 420.37 11.47 446.32 0 446.32 0 448.62 11.47 448.62 11.47 474.56 0 474.56 0 476.86 11.47 476.86 11.47 500 13.78 500 13.78 476.86 38.54 476.86 38.54 500 40.84 500 40.84 476.86 65.61 476.86 65.61 500 67.91 500 67.91 476.86 92.67 476.86 92.67 500 94.98 500 94.98 476.86 119.74 476.86 119.74 500 122.04 500 122.04 476.86 146.8 476.86 146.8 500 149.12 500 149.12 476.86 173.86 476.86 173.86 500 176.17 500 176.17 476.86 200.93 476.86 200.93 500 203.24 500 203.24 476.86 228 476.86 228 500 230.3 500 230.3 476.86 255.07 476.86 255.07 500 257.37 500 257.37 476.86 282.13 476.86 282.13 500 284.43 500 284.43 476.86 309.2 476.86 309.2 500 311.5 500 311.5 476.86 336.26 476.86 336.26 500 338.58 500 338.58 476.86 363.34 476.86 363.34 500 365.64 500 365.64 476.86 390.4 476.86 390.4 500 392.71 500 392.71 476.86 417.47 476.86 417.47 500 419.77 500 419.77 476.86 444.54 476.86 444.54 500 446.84 500 446.84 476.86 471.6 476.86 471.6 500 473.91 500 473.91 476.86 498.68 476.86 498.68 500 500.98 500 500.98 476.86 525.63 476.86 525.63 500 528.04 500 528.04 476.86 552.69 476.86 552.69 500 555.01 500 555.01 476.86 579.76 476.86 579.76 500 582.07 500 582.07 476.86 606.83 476.86 606.83 500 609.14 500 609.14 476.86 633.9 476.86 633.9 500 636.2 500 636.2 476.86 660.97 476.86 660.97 500 663.27 500 663.27 476.86 688.03 476.86 688.03 500 690.33 500 690.33 476.86 715.1 476.86 715.1 500 717.41 500 717.41 476.86 742.17 476.86 742.17 500 744.47 500 744.47 476.86 769.24 476.86 769.24 500 771.54 500 771.54 476.86 796.3 476.86 796.3 500 798.6 500 798.6 476.86 823.37 476.86 823.37 500 825.67 500 825.67 476.86 850.43 476.86 850.43 500 852.75 500 852.75 476.86 877.49 476.86 877.49 500 879.8 500 879.8 476.86 904.56 476.86 904.56 500 906.87 500 906.87 476.86 931.63 476.86 931.63 500 933.93 500 933.93 476.86 958.7 476.86 958.7 500 961 500 961 476.86 985.76 476.86 985.76 500 988.06 500 988.06 476.86 1012.83 476.86 1012.83 500 1015.13 500 1015.13 476.86 1039.89 476.86 1039.89 500 1040 500 1040 0 1039.89 0ZM38.54 474.56 13.78 474.56 13.78 448.62 38.54 448.62 38.54 474.56ZM38.54 446.32 13.78 446.32 13.78 420.37 38.54 420.37 38.54 446.32ZM38.54 418.07 13.78 418.07 13.78 392.13 38.54 392.13 38.54 418.07ZM38.54 389.82 13.78 389.82 13.78 363.89 38.54 363.89 38.54 389.82ZM38.54 361.58 13.78 361.58 13.78 335.64 38.54 335.64 38.54 361.58ZM38.54 333.34 13.78 333.34 13.78 307.4 38.54 307.4 38.54 333.34ZM38.54 305.09 13.78 305.09 13.78 279.15 38.54 279.15 38.54 305.09ZM38.54 276.85 13.78 276.85 13.78 247.06 38.54 247.06 38.54 276.85ZM38.54 243.72 13.78 243.72 13.78 217.9 38.54 217.9 38.54 243.72ZM38.54 215.47 13.78 215.47 13.78 189.54 38.54 189.54 38.54 215.47ZM38.54 187.23 13.78 187.23 13.78 161.29 38.54 161.29 38.54 187.23ZM38.54 158.99 13.78 158.99 13.78 133.05 38.54 133.05 38.54 158.99ZM38.54 130.75 13.78 130.75 13.78 104.8 38.54 104.8 38.54 130.75ZM38.54 102.5 13.78 102.5 13.78 76.56 38.54 76.56 38.54 102.5ZM38.54 74.25 13.78 74.25 13.78 48.32 38.54 48.32 38.54 74.25ZM38.54 46.01 13.78 46.01 13.78 20.07 38.54 20.07 38.54 46.01ZM65.61 474.56 40.84 474.56 40.84 448.62 65.61 448.62 65.61 474.56ZM65.61 446.32 40.84 446.32 40.84 420.37 65.61 420.37 65.61 446.32ZM65.61 418.07 40.84 418.07 40.84 392.13 65.61 392.13 65.61 418.07ZM65.61 389.82 40.84 389.82 40.84 363.89 65.61 363.89 65.61 389.82ZM65.61 361.58 40.84 361.58 40.84 335.64 65.61 335.64 65.61 361.58ZM65.61 333.34 40.84 333.34 40.84 307.4 65.61 307.4 65.61 333.34ZM65.61 305.09 40.84 305.09 40.84 279.15 65.61 279.15 65.61 305.09ZM65.61 276.85 40.84 276.85 40.84 247.06 65.61 247.06 65.61 276.85ZM65.61 243.72 40.84 243.72 40.84 217.9 65.61 217.9 65.61 243.72ZM65.61 215.47 40.84 215.47 40.84 189.54 65.61 189.54 65.61 215.47ZM65.61 187.23 40.84 187.23 40.84 161.29 65.61 161.29 65.61 187.23ZM65.61 158.99 40.84 158.99 40.84 133.05 65.61 133.05 65.61 158.99ZM65.61 130.75 40.84 130.75 40.84 104.8 65.61 104.8 65.61 130.75ZM65.61 102.5 40.84 102.5 40.84 76.56 65.61 76.56 65.61 102.5ZM65.61 74.25 40.84 74.25 40.84 48.32 65.61 48.32 65.61 74.25ZM65.61 46.01 40.84 46.01 40.84 20.07 65.61 20.07 65.61 46.01ZM92.67 474.56 67.91 474.56 67.91 448.62 92.67 448.62 92.67 474.56ZM92.67 446.32 67.91 446.32 67.91 420.37 92.67 420.37 92.67 446.32ZM92.67 418.07 67.91 418.07 67.91 392.13 92.67 392.13 92.67 418.07ZM92.67 389.82 67.91 389.82 67.91 363.89 92.67 363.89 92.67 389.82ZM92.67 361.58 67.91 361.58 67.91 335.64 92.67 335.64 92.67 361.58ZM92.67 333.34 67.91 333.34 67.91 307.4 92.67 307.4 92.67 333.34ZM92.67 305.09 67.91 305.09 67.91 279.15 92.67 279.15 92.67 305.09ZM92.67 276.85 67.91 276.85 67.91 247.06 92.67 247.06 92.67 276.85ZM92.67 243.72 67.91 243.72 67.91 217.9 92.67 217.9 92.67 243.72ZM92.67 215.47 67.91 215.47 67.91 189.54 92.67 189.54 92.67 215.47ZM92.67 187.23 67.91 187.23 67.91 161.29 92.67 161.29 92.67 187.23ZM92.67 158.99 67.91 158.99 67.91 133.05 92.67 133.05 92.67 158.99ZM92.67 130.75 67.91 130.75 67.91 104.8 92.67 104.8 92.67 130.75ZM92.67 102.5 67.91 102.5 67.91 76.56 92.67 76.56 92.67 102.5ZM92.67 74.25 67.91 74.25 67.91 48.32 92.67 48.32 92.67 74.25ZM92.67 46.01 67.91 46.01 67.91 20.07 92.67 20.07 92.67 46.01ZM119.74 474.56 94.98 474.56 94.98 448.62 119.74 448.62 119.74 474.56ZM119.74 446.32 94.98 446.32 94.98 420.37 119.74 420.37 119.74 446.32ZM119.74 418.07 94.98 418.07 94.98 392.13 119.74 392.13 119.74 418.07ZM119.74 389.82 94.98 389.82 94.98 363.89 119.74 363.89 119.74 389.82ZM119.74 361.58 94.98 361.58 94.98 335.64 119.74 335.64 119.74 361.58ZM119.74 333.34 94.98 333.34 94.98 307.4 119.74 307.4 119.74 333.34ZM119.74 305.09 94.98 305.09 94.98 279.15 119.74 279.15 119.74 305.09ZM119.74 276.85 94.98 276.85 94.98 247.06 119.74 247.06 119.74 276.85ZM119.74 243.72 94.98 243.72 94.98 217.9 119.74 217.9 119.74 243.72ZM119.74 215.47 94.98 215.47 94.98 189.54 119.74 189.54 119.74 215.47ZM119.74 187.23 94.98 187.23 94.98 161.29 119.74 161.29 119.74 187.23ZM119.74 158.99 94.98 158.99 94.98 133.05 119.74 133.05 119.74 158.99ZM119.74 130.75 94.98 130.75 94.98 104.8 119.74 104.8 119.74 130.75ZM119.74 102.5 94.98 102.5 94.98 76.56 119.74 76.56 119.74 102.5ZM119.74 74.25 94.98 74.25 94.98 48.32 119.74 48.32 119.74 74.25ZM119.74 46.01 94.98 46.01 94.98 20.07 119.74 20.07 119.74 46.01ZM146.8 474.56 122.04 474.56 122.04 448.62 146.8 448.62 146.8 474.56ZM146.8 446.32 122.04 446.32 122.04 420.37 146.8 420.37 146.8 446.32ZM146.8 418.07 122.04 418.07 122.04 392.13 146.8 392.13 146.8 418.07ZM146.8 389.82 122.04 389.82 122.04 363.89 146.8 363.89 146.8 389.82ZM146.8 361.58 122.04 361.58 122.04 335.64 146.8 335.64 146.8 361.58ZM146.8 333.34 122.04 333.34 122.04 307.4 146.8 307.4 146.8 333.34ZM146.8 305.09 122.04 305.09 122.04 279.15 146.8 279.15 146.8 305.09ZM146.8 276.85 122.04 276.85 122.04 247.06 146.8 247.06 146.8 276.85ZM146.8 243.72 122.04 243.72 122.04 217.9 146.8 217.9 146.8 243.72ZM146.8 215.47 122.04 215.47 122.04 189.54 146.8 189.54 146.8 215.47ZM146.8 187.23 122.04 187.23 122.04 161.29 146.8 161.29 146.8 187.23ZM146.8 158.99 122.04 158.99 122.04 133.05 146.8 133.05 146.8 158.99ZM146.8 130.75 122.04 130.75 122.04 104.8 146.8 104.8 146.8 130.75ZM146.8 102.5 122.04 102.5 122.04 76.56 146.8 76.56 146.8 102.5ZM146.8 74.25 122.04 74.25 122.04 48.32 146.8 48.32 146.8 74.25ZM146.8 46.01 122.04 46.01 122.04 20.07 146.8 20.07 146.8 46.01ZM173.86 474.56 149.12 474.56 149.12 448.62 173.86 448.62 173.86 474.56ZM173.86 446.32 149.12 446.32 149.12 420.37 173.86 420.37 173.86 446.32ZM173.86 418.07 149.12 418.07 149.12 392.13 173.86 392.13 173.86 418.07ZM173.86 389.82 149.12 389.82 149.12 363.89 173.86 363.89 173.86 389.82ZM173.86 361.58 149.12 361.58 149.12 335.64 173.86 335.64 173.86 361.58ZM173.86 333.34 149.12 333.34 149.12 307.4 173.86 307.4 173.86 333.34ZM173.86 305.09 149.12 305.09 149.12 279.15 173.86 279.15 173.86 305.09ZM173.86 276.85 149.12 276.85 149.12 247.06 173.86 247.06 173.86 276.85ZM173.86 243.72 149.12 243.72 149.12 217.9 173.86 217.9 173.86 243.72ZM173.86 215.47 149.12 215.47 149.12 189.54 173.86 189.54 173.86 215.47ZM173.86 187.23 149.12 187.23 149.12 161.29 173.86 161.29 173.86 187.23ZM173.86 158.99 149.12 158.99 149.12 133.05 173.86 133.05 173.86 158.99ZM173.86 130.75 149.12 130.75 149.12 104.8 173.86 104.8 173.86 130.75ZM173.86 102.5 149.12 102.5 149.12 76.56 173.86 76.56 173.86 102.5ZM173.86 74.25 149.12 74.25 149.12 48.32 173.86 48.32 173.86 74.25ZM173.86 46.01 149.12 46.01 149.12 20.07 173.86 20.07 173.86 46.01ZM200.93 474.56 176.17 474.56 176.17 448.62 200.93 448.62 200.93 474.56ZM200.93 446.32 176.17 446.32 176.17 420.37 200.93 420.37 200.93 446.32ZM200.93 418.07 176.17 418.07 176.17 392.13 200.93 392.13 200.93 418.07ZM200.93 389.82 176.17 389.82 176.17 363.89 200.93 363.89 200.93 389.82ZM200.93 361.58 176.17 361.58 176.17 335.64 200.93 335.64 200.93 361.58ZM200.93 333.34 176.17 333.34 176.17 307.4 200.93 307.4 200.93 333.34ZM200.93 305.09 176.17 305.09 176.17 279.15 200.93 279.15 200.93 305.09ZM200.93 276.85 176.17 276.85 176.17 247.06 200.93 247.06 200.93 276.85ZM200.93 243.72 176.17 243.72 176.17 217.9 200.93 217.9 200.93 243.72ZM200.93 215.47 176.17 215.47 176.17 189.54 200.93 189.54 200.93 215.47ZM200.93 187.23 176.17 187.23 176.17 161.29 200.93 161.29 200.93 187.23ZM200.93 158.99 176.17 158.99 176.17 133.05 200.93 133.05 200.93 158.99ZM200.93 130.75 176.17 130.75 176.17 104.8 200.93 104.8 200.93 130.75ZM200.93 102.5 176.17 102.5 176.17 76.56 200.93 76.56 200.93 102.5ZM200.93 74.25 176.17 74.25 176.17 48.32 200.93 48.32 200.93 74.25ZM200.93 46.01 176.17 46.01 176.17 20.07 200.93 20.07 200.93 46.01ZM228 474.56 203.24 474.56 203.24 448.62 228 448.62 228 474.56ZM228 446.32 203.24 446.32 203.24 420.37 228 420.37 228 446.32ZM228 418.07 203.24 418.07 203.24 392.13 228 392.13 228 418.07ZM228 389.82 203.24 389.82 203.24 363.89 228 363.89 228 389.82ZM228 361.58 203.24 361.58 203.24 335.64 228 335.64 228 361.58ZM228 333.34 203.24 333.34 203.24 307.4 228 307.4 228 333.34ZM228 305.09 203.24 305.09 203.24 279.15 228 279.15 228 305.09ZM228 276.85 203.24 276.85 203.24 247.06 228 247.06 228 276.85ZM228 243.72 203.24 243.72 203.24 217.9 228 217.9 228 243.72ZM228 215.47 203.24 215.47 203.24 189.54 228 189.54 228 215.47ZM228 187.23 203.24 187.23 203.24 161.29 228 161.29 228 187.23ZM228 158.99 203.24 158.99 203.24 133.05 228 133.05 228 158.99ZM228 130.75 203.24 130.75 203.24 104.8 228 104.8 228 130.75ZM228 102.5 203.24 102.5 203.24 76.56 228 76.56 228 102.5ZM228 74.25 203.24 74.25 203.24 48.32 228 48.32 228 74.25ZM228 46.01 203.24 46.01 203.24 20.07 228 20.07 228 46.01ZM255.07 474.56 230.3 474.56 230.3 448.62 255.07 448.62 255.07 474.56ZM255.07 446.32 230.3 446.32 230.3 420.37 255.07 420.37 255.07 446.32ZM255.07 418.07 230.3 418.07 230.3 392.13 255.07 392.13 255.07 418.07ZM255.07 389.82 230.3 389.82 230.3 363.89 255.07 363.89 255.07 389.82ZM255.07 361.58 230.3 361.58 230.3 335.64 255.07 335.64 255.07 361.58ZM255.07 333.34 230.3 333.34 230.3 307.4 255.07 307.4 255.07 333.34ZM255.07 305.09 230.3 305.09 230.3 279.15 255.07 279.15 255.07 305.09ZM255.07 276.85 230.3 276.85 230.3 247.06 255.07 247.06 255.07 276.85ZM255.07 243.72 230.3 243.72 230.3 217.9 255.07 217.9 255.07 243.72ZM255.07 215.47 230.3 215.47 230.3 189.54 255.07 189.54 255.07 215.47ZM255.07 187.23 230.3 187.23 230.3 161.29 255.07 161.29 255.07 187.23ZM255.07 158.99 230.3 158.99 230.3 133.05 255.07 133.05 255.07 158.99ZM255.07 130.75 230.3 130.75 230.3 104.8 255.07 104.8 255.07 130.75ZM255.07 102.5 230.3 102.5 230.3 76.56 255.07 76.56 255.07 102.5ZM255.07 74.25 230.3 74.25 230.3 48.32 255.07 48.32 255.07 74.25ZM255.07 46.01 230.3 46.01 230.3 20.07 255.07 20.07 255.07 46.01ZM282.13 474.56 257.37 474.56 257.37 448.62 282.13 448.62 282.13 474.56ZM282.13 446.32 257.37 446.32 257.37 420.37 282.13 420.37 282.13 446.32ZM282.13 418.07 257.37 418.07 257.37 392.13 282.13 392.13 282.13 418.07ZM282.13 389.82 257.37 389.82 257.37 363.89 282.13 363.89 282.13 389.82ZM282.13 361.58 257.37 361.58 257.37 335.64 282.13 335.64 282.13 361.58ZM282.13 333.34 257.37 333.34 257.37 307.4 282.13 307.4 282.13 333.34ZM282.13 305.09 257.37 305.09 257.37 279.15 282.13 279.15 282.13 305.09ZM282.13 276.85 257.37 276.85 257.37 247.06 282.13 247.06 282.13 276.85ZM282.13 243.72 257.37 243.72 257.37 217.9 282.13 217.9 282.13 243.72ZM282.13 215.47 257.37 215.47 257.37 189.54 282.13 189.54 282.13 215.47ZM282.13 187.23 257.37 187.23 257.37 161.29 282.13 161.29 282.13 187.23ZM282.13 158.99 257.37 158.99 257.37 133.05 282.13 133.05 282.13 158.99ZM282.13 130.75 257.37 130.75 257.37 104.8 282.13 104.8 282.13 130.75ZM282.13 102.5 257.37 102.5 257.37 76.56 282.13 76.56 282.13 102.5ZM282.13 74.25 257.37 74.25 257.37 48.32 282.13 48.32 282.13 74.25ZM282.13 46.01 257.37 46.01 257.37 20.07 282.13 20.07 282.13 46.01ZM309.2 474.56 284.43 474.56 284.43 448.62 309.2 448.62 309.2 474.56ZM309.2 446.32 284.43 446.32 284.43 420.37 309.2 420.37 309.2 446.32ZM309.2 418.07 284.43 418.07 284.43 392.13 309.2 392.13 309.2 418.07ZM309.2 389.82 284.43 389.82 284.43 363.89 309.2 363.89 309.2 389.82ZM309.2 361.58 284.43 361.58 284.43 335.64 309.2 335.64 309.2 361.58ZM309.2 333.34 284.43 333.34 284.43 307.4 309.2 307.4 309.2 333.34ZM309.2 305.09 284.43 305.09 284.43 279.15 309.2 279.15 309.2 305.09ZM309.2 276.85 284.43 276.85 284.43 247.06 309.2 247.06 309.2 276.85ZM309.2 243.72 284.43 243.72 284.43 217.9 309.2 217.9 309.2 243.72ZM309.2 215.47 284.43 215.47 284.43 189.54 309.2 189.54 309.2 215.47ZM309.2 187.23 284.43 187.23 284.43 161.29 309.2 161.29 309.2 187.23ZM309.2 158.99 284.43 158.99 284.43 133.05 309.2 133.05 309.2 158.99ZM309.2 130.75 284.43 130.75 284.43 104.8 309.2 104.8 309.2 130.75ZM309.2 102.5 284.43 102.5 284.43 76.56 309.2 76.56 309.2 102.5ZM309.2 74.25 284.43 74.25 284.43 48.32 309.2 48.32 309.2 74.25ZM309.2 46.01 284.43 46.01 284.43 20.07 309.2 20.07 309.2 46.01ZM336.26 474.56 311.5 474.56 311.5 448.62 336.26 448.62 336.26 474.56ZM336.26 446.32 311.5 446.32 311.5 420.37 336.26 420.37 336.26 446.32ZM336.26 418.07 311.5 418.07 311.5 392.13 336.26 392.13 336.26 418.07ZM336.26 389.82 311.5 389.82 311.5 363.89 336.26 363.89 336.26 389.82ZM336.26 361.58 311.5 361.58 311.5 335.64 336.26 335.64 336.26 361.58ZM336.26 333.34 311.5 333.34 311.5 307.4 336.26 307.4 336.26 333.34ZM336.26 305.09 311.5 305.09 311.5 279.15 336.26 279.15 336.26 305.09ZM336.26 276.85 311.5 276.85 311.5 247.06 336.26 247.06 336.26 276.85ZM336.26 243.72 311.5 243.72 311.5 217.9 336.26 217.9 336.26 243.72ZM336.26 215.47 311.5 215.47 311.5 189.54 336.26 189.54 336.26 215.47ZM336.26 187.23 311.5 187.23 311.5 161.29 336.26 161.29 336.26 187.23ZM336.26 158.99 311.5 158.99 311.5 133.05 336.26 133.05 336.26 158.99ZM336.26 130.75 311.5 130.75 311.5 104.8 336.26 104.8 336.26 130.75ZM336.26 102.5 311.5 102.5 311.5 76.56 336.26 76.56 336.26 102.5ZM336.26 74.25 311.5 74.25 311.5 48.32 336.26 48.32 336.26 74.25ZM336.26 46.01 311.5 46.01 311.5 20.07 336.26 20.07 336.26 46.01ZM363.34 474.56 338.58 474.56 338.58 448.62 363.34 448.62 363.34 474.56ZM363.34 446.32 338.58 446.32 338.58 420.37 363.34 420.37 363.34 446.32ZM363.34 418.07 338.58 418.07 338.58 392.13 363.34 392.13 363.34 418.07ZM363.34 389.82 338.58 389.82 338.58 363.89 363.34 363.89 363.34 389.82ZM363.34 361.58 338.58 361.58 338.58 335.64 363.34 335.64 363.34 361.58ZM363.34 333.34 338.58 333.34 338.58 307.4 363.34 307.4 363.34 333.34ZM363.34 305.09 338.58 305.09 338.58 279.15 363.34 279.15 363.34 305.09ZM363.34 276.85 338.58 276.85 338.58 247.06 363.34 247.06 363.34 276.85ZM363.34 243.72 338.58 243.72 338.58 217.9 363.34 217.9 363.34 243.72ZM363.34 215.47 338.58 215.47 338.58 189.54 363.34 189.54 363.34 215.47ZM363.34 187.23 338.58 187.23 338.58 161.29 363.34 161.29 363.34 187.23ZM363.34 158.99 338.58 158.99 338.58 133.05 363.34 133.05 363.34 158.99ZM363.34 130.75 338.58 130.75 338.58 104.8 363.34 104.8 363.34 130.75ZM363.34 102.5 338.58 102.5 338.58 76.56 363.34 76.56 363.34 102.5ZM363.34 74.25 338.58 74.25 338.58 48.32 363.34 48.32 363.34 74.25ZM363.34 46.01 338.58 46.01 338.58 20.07 363.34 20.07 363.34 46.01ZM390.4 474.56 365.64 474.56 365.64 448.62 390.4 448.62 390.4 474.56ZM390.4 446.32 365.64 446.32 365.64 420.37 390.4 420.37 390.4 446.32ZM390.4 418.07 365.64 418.07 365.64 392.13 390.4 392.13 390.4 418.07ZM390.4 389.82 365.64 389.82 365.64 363.89 390.4 363.89 390.4 389.82ZM390.4 361.58 365.64 361.58 365.64 335.64 390.4 335.64 390.4 361.58ZM390.4 333.34 365.64 333.34 365.64 307.4 390.4 307.4 390.4 333.34ZM390.4 305.09 365.64 305.09 365.64 279.15 390.4 279.15 390.4 305.09ZM390.4 276.85 365.64 276.85 365.64 247.06 390.4 247.06 390.4 276.85ZM390.4 243.72 365.64 243.72 365.64 217.9 390.4 217.9 390.4 243.72ZM390.4 215.47 365.64 215.47 365.64 189.54 390.4 189.54 390.4 215.47ZM390.4 187.23 365.64 187.23 365.64 161.29 390.4 161.29 390.4 187.23ZM390.4 158.99 365.64 158.99 365.64 133.05 390.4 133.05 390.4 158.99ZM390.4 130.75 365.64 130.75 365.64 104.8 390.4 104.8 390.4 130.75ZM390.4 102.5 365.64 102.5 365.64 76.56 390.4 76.56 390.4 102.5ZM390.4 74.25 365.64 74.25 365.64 48.32 390.4 48.32 390.4 74.25ZM390.4 46.01 365.64 46.01 365.64 20.07 390.4 20.07 390.4 46.01ZM417.47 474.56 392.71 474.56 392.71 448.62 417.47 448.62 417.47 474.56ZM417.47 446.32 392.71 446.32 392.71 420.37 417.47 420.37 417.47 446.32ZM417.47 418.07 392.71 418.07 392.71 392.13 417.47 392.13 417.47 418.07ZM417.47 389.82 392.71 389.82 392.71 363.89 417.47 363.89 417.47 389.82ZM417.47 361.58 392.71 361.58 392.71 335.64 417.47 335.64 417.47 361.58ZM417.47 333.34 392.71 333.34 392.71 307.4 417.47 307.4 417.47 333.34ZM417.47 305.09 392.71 305.09 392.71 279.15 417.47 279.15 417.47 305.09ZM417.47 276.85 392.71 276.85 392.71 247.06 417.47 247.06 417.47 276.85ZM417.47 243.72 392.71 243.72 392.71 217.9 417.47 217.9 417.47 243.72ZM417.47 215.47 392.71 215.47 392.71 189.54 417.47 189.54 417.47 215.47ZM417.47 187.23 392.71 187.23 392.71 161.29 417.47 161.29 417.47 187.23ZM417.47 158.99 392.71 158.99 392.71 133.05 417.47 133.05 417.47 158.99ZM417.47 130.75 392.71 130.75 392.71 104.8 417.47 104.8 417.47 130.75ZM417.47 102.5 392.71 102.5 392.71 76.56 417.47 76.56 417.47 102.5ZM417.47 74.25 392.71 74.25 392.71 48.32 417.47 48.32 417.47 74.25ZM417.47 46.01 392.71 46.01 392.71 20.07 417.47 20.07 417.47 46.01ZM444.54 474.56 419.77 474.56 419.77 448.62 444.54 448.62 444.54 474.56ZM444.54 446.32 419.77 446.32 419.77 420.37 444.54 420.37 444.54 446.32ZM444.54 418.07 419.77 418.07 419.77 392.13 444.54 392.13 444.54 418.07ZM444.54 389.82 419.77 389.82 419.77 363.89 444.54 363.89 444.54 389.82ZM444.54 361.58 419.77 361.58 419.77 335.64 444.54 335.64 444.54 361.58ZM444.54 333.34 419.77 333.34 419.77 307.4 444.54 307.4 444.54 333.34ZM444.54 305.09 419.77 305.09 419.77 279.15 444.54 279.15 444.54 305.09ZM444.54 276.85 419.77 276.85 419.77 247.06 444.54 247.06 444.54 276.85ZM444.54 243.72 419.77 243.72 419.77 217.9 444.54 217.9 444.54 243.72ZM444.54 215.47 419.77 215.47 419.77 189.54 444.54 189.54 444.54 215.47ZM444.54 187.23 419.77 187.23 419.77 161.29 444.54 161.29 444.54 187.23ZM444.54 158.99 419.77 158.99 419.77 133.05 444.54 133.05 444.54 158.99ZM444.54 130.75 419.77 130.75 419.77 104.8 444.54 104.8 444.54 130.75ZM444.54 102.5 419.77 102.5 419.77 76.56 444.54 76.56 444.54 102.5ZM444.54 74.25 419.77 74.25 419.77 48.32 444.54 48.32 444.54 74.25ZM444.54 46.01 419.77 46.01 419.77 20.07 444.54 20.07 444.54 46.01ZM471.6 474.56 446.84 474.56 446.84 448.62 471.6 448.62 471.6 474.56ZM471.6 446.32 446.84 446.32 446.84 420.37 471.6 420.37 471.6 446.32ZM471.6 418.07 446.84 418.07 446.84 392.13 471.6 392.13 471.6 418.07ZM471.6 389.82 446.84 389.82 446.84 363.89 471.6 363.89 471.6 389.82ZM471.6 361.58 446.84 361.58 446.84 335.64 471.6 335.64 471.6 361.58ZM471.6 333.34 446.84 333.34 446.84 307.4 471.6 307.4 471.6 333.34ZM471.6 305.09 446.84 305.09 446.84 279.15 471.6 279.15 471.6 305.09ZM471.6 276.85 446.84 276.85 446.84 247.06 471.6 247.06 471.6 276.85ZM471.6 243.72 446.84 243.72 446.84 217.9 471.6 217.9 471.6 243.72ZM471.6 215.47 446.84 215.47 446.84 189.54 471.6 189.54 471.6 215.47ZM471.6 187.23 446.84 187.23 446.84 161.29 471.6 161.29 471.6 187.23ZM471.6 158.99 446.84 158.99 446.84 133.05 471.6 133.05 471.6 158.99ZM471.6 130.75 446.84 130.75 446.84 104.8 471.6 104.8 471.6 130.75ZM471.6 102.5 446.84 102.5 446.84 76.56 471.6 76.56 471.6 102.5ZM471.6 74.25 446.84 74.25 446.84 48.32 471.6 48.32 471.6 74.25ZM471.6 46.01 446.84 46.01 446.84 20.07 471.6 20.07 471.6 46.01ZM498.68 474.56 473.91 474.56 473.91 448.62 498.68 448.62 498.68 474.56ZM498.68 446.32 473.91 446.32 473.91 420.37 498.68 420.37 498.68 446.32ZM498.68 418.07 473.91 418.07 473.91 392.13 498.68 392.13 498.68 418.07ZM498.68 389.82 473.91 389.82 473.91 363.89 498.68 363.89 498.68 389.82ZM498.68 361.58 473.91 361.58 473.91 335.64 498.68 335.64 498.68 361.58ZM498.68 333.34 473.91 333.34 473.91 307.4 498.68 307.4 498.68 333.34ZM498.68 305.09 473.91 305.09 473.91 279.15 498.68 279.15 498.68 305.09ZM498.68 276.85 473.91 276.85 473.91 247.06 498.68 247.06 498.68 276.85ZM498.68 243.72 473.91 243.72 473.91 217.9 498.68 217.9 498.68 243.72ZM498.68 215.47 473.91 215.47 473.91 189.54 498.68 189.54 498.68 215.47ZM498.68 187.23 473.91 187.23 473.91 161.29 498.68 161.29 498.68 187.23ZM498.68 158.99 473.91 158.99 473.91 133.05 498.68 133.05 498.68 158.99ZM498.68 130.75 473.91 130.75 473.91 104.8 498.68 104.8 498.68 130.75ZM498.68 102.5 473.91 102.5 473.91 76.56 498.68 76.56 498.68 102.5ZM498.68 74.25 473.91 74.25 473.91 48.32 498.68 48.32 498.68 74.25ZM498.68 46.01 473.91 46.01 473.91 20.07 498.68 20.07 498.68 46.01ZM525.63 474.56 500.98 474.56 500.98 448.62 525.63 448.62 525.63 474.56ZM525.63 446.32 500.98 446.32 500.98 420.37 525.63 420.37 525.63 446.32ZM525.63 418.07 500.98 418.07 500.98 392.13 525.63 392.13 525.63 418.07ZM525.63 389.82 500.98 389.82 500.98 363.89 525.63 363.89 525.63 389.82ZM525.63 361.58 500.98 361.58 500.98 335.64 525.63 335.64 525.63 361.58ZM525.63 333.34 500.98 333.34 500.98 307.4 525.63 307.4 525.63 333.34ZM525.63 305.09 500.98 305.09 500.98 279.15 525.63 279.15 525.63 305.09ZM525.63 276.85 500.98 276.85 500.98 247.06 525.63 247.06 525.63 276.85ZM525.63 243.72 500.98 243.72 500.98 217.9 525.63 217.9 525.63 243.72ZM525.63 215.47 500.98 215.47 500.98 189.54 525.63 189.54 525.63 215.47ZM525.63 187.23 500.98 187.23 500.98 161.29 525.63 161.29 525.63 187.23ZM525.63 158.99 500.98 158.99 500.98 133.05 525.63 133.05 525.63 158.99ZM525.63 130.75 500.98 130.75 500.98 104.8 525.63 104.8 525.63 130.75ZM525.63 102.5 500.98 102.5 500.98 76.56 525.63 76.56 525.63 102.5ZM525.63 74.25 500.98 74.25 500.98 48.32 525.63 48.32 525.63 74.25ZM525.63 46.01 500.98 46.01 500.98 20.07 525.63 20.07 525.63 46.01ZM552.69 474.56 528.04 474.56 528.04 448.62 552.69 448.62 552.69 474.56ZM552.69 446.32 528.04 446.32 528.04 420.37 552.69 420.37 552.69 446.32ZM552.69 418.07 528.04 418.07 528.04 392.13 552.69 392.13 552.69 418.07ZM552.69 389.82 528.04 389.82 528.04 363.89 552.69 363.89 552.69 389.82ZM552.69 361.58 528.04 361.58 528.04 335.64 552.69 335.64 552.69 361.58ZM552.69 333.34 528.04 333.34 528.04 307.4 552.69 307.4 552.69 333.34ZM552.69 305.09 528.04 305.09 528.04 279.15 552.69 279.15 552.69 305.09ZM552.69 276.85 528.04 276.85 528.04 247.06 552.69 247.06 552.69 276.85ZM552.69 243.72 528.04 243.72 528.04 217.9 552.69 217.9 552.69 243.72ZM552.69 215.47 528.04 215.47 528.04 189.54 552.69 189.54 552.69 215.47ZM552.69 187.23 528.04 187.23 528.04 161.29 552.69 161.29 552.69 187.23ZM552.69 158.99 528.04 158.99 528.04 133.05 552.69 133.05 552.69 158.99ZM552.69 130.75 528.04 130.75 528.04 104.8 552.69 104.8 552.69 130.75ZM552.69 102.5 528.04 102.5 528.04 76.56 552.69 76.56 552.69 102.5ZM552.69 74.25 528.04 74.25 528.04 48.32 552.69 48.32 552.69 74.25ZM552.69 46.01 528.04 46.01 528.04 20.07 552.69 20.07 552.69 46.01ZM579.76 474.56 555.01 474.56 555.01 448.62 579.76 448.62 579.76 474.56ZM579.76 446.32 555.01 446.32 555.01 420.37 579.76 420.37 579.76 446.32ZM579.76 418.07 555.01 418.07 555.01 392.13 579.76 392.13 579.76 418.07ZM579.76 389.82 555.01 389.82 555.01 363.89 579.76 363.89 579.76 389.82ZM579.76 361.58 555.01 361.58 555.01 335.64 579.76 335.64 579.76 361.58ZM579.76 333.34 555.01 333.34 555.01 307.4 579.76 307.4 579.76 333.34ZM579.76 305.09 555.01 305.09 555.01 279.15 579.76 279.15 579.76 305.09ZM579.76 276.85 555.01 276.85 555.01 247.06 579.76 247.06 579.76 276.85ZM579.76 243.72 555.01 243.72 555.01 217.9 579.76 217.9 579.76 243.72ZM579.76 215.47 555.01 215.47 555.01 189.54 579.76 189.54 579.76 215.47ZM579.76 187.23 555.01 187.23 555.01 161.29 579.76 161.29 579.76 187.23ZM579.76 158.99 555.01 158.99 555.01 133.05 579.76 133.05 579.76 158.99ZM579.76 130.75 555.01 130.75 555.01 104.8 579.76 104.8 579.76 130.75ZM579.76 102.5 555.01 102.5 555.01 76.56 579.76 76.56 579.76 102.5ZM579.76 74.25 555.01 74.25 555.01 48.32 579.76 48.32 579.76 74.25ZM579.76 46.01 555.01 46.01 555.01 20.07 579.76 20.07 579.76 46.01ZM606.83 474.56 582.07 474.56 582.07 448.62 606.83 448.62 606.83 474.56ZM606.83 446.32 582.07 446.32 582.07 420.37 606.83 420.37 606.83 446.32ZM606.83 418.07 582.07 418.07 582.07 392.13 606.83 392.13 606.83 418.07ZM606.83 389.82 582.07 389.82 582.07 363.89 606.83 363.89 606.83 389.82ZM606.83 361.58 582.07 361.58 582.07 335.64 606.83 335.64 606.83 361.58ZM606.83 333.34 582.07 333.34 582.07 307.4 606.83 307.4 606.83 333.34ZM606.83 305.09 582.07 305.09 582.07 279.15 606.83 279.15 606.83 305.09ZM606.83 276.85 582.07 276.85 582.07 247.06 606.83 247.06 606.83 276.85ZM606.83 243.72 582.07 243.72 582.07 217.9 606.83 217.9 606.83 243.72ZM606.83 215.47 582.07 215.47 582.07 189.54 606.83 189.54 606.83 215.47ZM606.83 187.23 582.07 187.23 582.07 161.29 606.83 161.29 606.83 187.23ZM606.83 158.99 582.07 158.99 582.07 133.05 606.83 133.05 606.83 158.99ZM606.83 130.75 582.07 130.75 582.07 104.8 606.83 104.8 606.83 130.75ZM606.83 102.5 582.07 102.5 582.07 76.56 606.83 76.56 606.83 102.5ZM606.83 74.25 582.07 74.25 582.07 48.32 606.83 48.32 606.83 74.25ZM606.83 46.01 582.07 46.01 582.07 20.07 606.83 20.07 606.83 46.01ZM633.9 474.56 609.14 474.56 609.14 448.62 633.9 448.62 633.9 474.56ZM633.9 446.32 609.14 446.32 609.14 420.37 633.9 420.37 633.9 446.32ZM633.9 418.07 609.14 418.07 609.14 392.13 633.9 392.13 633.9 418.07ZM633.9 389.82 609.14 389.82 609.14 363.89 633.9 363.89 633.9 389.82ZM633.9 361.58 609.14 361.58 609.14 335.64 633.9 335.64 633.9 361.58ZM633.9 333.34 609.14 333.34 609.14 307.4 633.9 307.4 633.9 333.34ZM633.9 305.09 609.14 305.09 609.14 279.15 633.9 279.15 633.9 305.09ZM633.9 276.85 609.14 276.85 609.14 247.06 633.9 247.06 633.9 276.85ZM633.9 243.72 609.14 243.72 609.14 217.9 633.9 217.9 633.9 243.72ZM633.9 215.47 609.14 215.47 609.14 189.54 633.9 189.54 633.9 215.47ZM633.9 187.23 609.14 187.23 609.14 161.29 633.9 161.29 633.9 187.23ZM633.9 158.99 609.14 158.99 609.14 133.05 633.9 133.05 633.9 158.99ZM633.9 130.75 609.14 130.75 609.14 104.8 633.9 104.8 633.9 130.75ZM633.9 102.5 609.14 102.5 609.14 76.56 633.9 76.56 633.9 102.5ZM633.9 74.25 609.14 74.25 609.14 48.32 633.9 48.32 633.9 74.25ZM633.9 46.01 609.14 46.01 609.14 20.07 633.9 20.07 633.9 46.01ZM660.97 474.56 636.2 474.56 636.2 448.62 660.97 448.62 660.97 474.56ZM660.97 446.32 636.2 446.32 636.2 420.37 660.97 420.37 660.97 446.32ZM660.97 418.07 636.2 418.07 636.2 392.13 660.97 392.13 660.97 418.07ZM660.97 389.82 636.2 389.82 636.2 363.89 660.97 363.89 660.97 389.82ZM660.97 361.58 636.2 361.58 636.2 335.64 660.97 335.64 660.97 361.58ZM660.97 333.34 636.2 333.34 636.2 307.4 660.97 307.4 660.97 333.34ZM660.97 305.09 636.2 305.09 636.2 279.15 660.97 279.15 660.97 305.09ZM660.97 276.85 636.2 276.85 636.2 247.06 660.97 247.06 660.97 276.85ZM660.97 243.72 636.2 243.72 636.2 217.9 660.97 217.9 660.97 243.72ZM660.97 215.47 636.2 215.47 636.2 189.54 660.97 189.54 660.97 215.47ZM660.97 187.23 636.2 187.23 636.2 161.29 660.97 161.29 660.97 187.23ZM660.97 158.99 636.2 158.99 636.2 133.05 660.97 133.05 660.97 158.99ZM660.97 130.75 636.2 130.75 636.2 104.8 660.97 104.8 660.97 130.75ZM660.97 102.5 636.2 102.5 636.2 76.56 660.97 76.56 660.97 102.5ZM660.97 74.25 636.2 74.25 636.2 48.32 660.97 48.32 660.97 74.25ZM660.97 46.01 636.2 46.01 636.2 20.07 660.97 20.07 660.97 46.01ZM688.03 474.56 663.27 474.56 663.27 448.62 688.03 448.62 688.03 474.56ZM688.03 446.32 663.27 446.32 663.27 420.37 688.03 420.37 688.03 446.32ZM688.03 418.07 663.27 418.07 663.27 392.13 688.03 392.13 688.03 418.07ZM688.03 389.82 663.27 389.82 663.27 363.89 688.03 363.89 688.03 389.82ZM688.03 361.58 663.27 361.58 663.27 335.64 688.03 335.64 688.03 361.58ZM688.03 333.34 663.27 333.34 663.27 307.4 688.03 307.4 688.03 333.34ZM688.03 305.09 663.27 305.09 663.27 279.15 688.03 279.15 688.03 305.09ZM688.03 276.85 663.27 276.85 663.27 247.06 688.03 247.06 688.03 276.85ZM688.03 243.72 663.27 243.72 663.27 217.9 688.03 217.9 688.03 243.72ZM688.03 215.47 663.27 215.47 663.27 189.54 688.03 189.54 688.03 215.47ZM688.03 187.23 663.27 187.23 663.27 161.29 688.03 161.29 688.03 187.23ZM688.03 158.99 663.27 158.99 663.27 133.05 688.03 133.05 688.03 158.99ZM688.03 130.75 663.27 130.75 663.27 104.8 688.03 104.8 688.03 130.75ZM688.03 102.5 663.27 102.5 663.27 76.56 688.03 76.56 688.03 102.5ZM688.03 74.25 663.27 74.25 663.27 48.32 688.03 48.32 688.03 74.25ZM688.03 46.01 663.27 46.01 663.27 20.07 688.03 20.07 688.03 46.01ZM715.1 474.56 690.33 474.56 690.33 448.62 715.1 448.62 715.1 474.56ZM715.1 446.32 690.33 446.32 690.33 420.37 715.1 420.37 715.1 446.32ZM715.1 418.07 690.33 418.07 690.33 392.13 715.1 392.13 715.1 418.07ZM715.1 389.82 690.33 389.82 690.33 363.89 715.1 363.89 715.1 389.82ZM715.1 361.58 690.33 361.58 690.33 335.64 715.1 335.64 715.1 361.58ZM715.1 333.34 690.33 333.34 690.33 307.4 715.1 307.4 715.1 333.34ZM715.1 305.09 690.33 305.09 690.33 279.15 715.1 279.15 715.1 305.09ZM715.1 276.85 690.33 276.85 690.33 247.06 715.1 247.06 715.1 276.85ZM715.1 243.72 690.33 243.72 690.33 217.9 715.1 217.9 715.1 243.72ZM715.1 215.47 690.33 215.47 690.33 189.54 715.1 189.54 715.1 215.47ZM715.1 187.23 690.33 187.23 690.33 161.29 715.1 161.29 715.1 187.23ZM715.1 158.99 690.33 158.99 690.33 133.05 715.1 133.05 715.1 158.99ZM715.1 130.75 690.33 130.75 690.33 104.8 715.1 104.8 715.1 130.75ZM715.1 102.5 690.33 102.5 690.33 76.56 715.1 76.56 715.1 102.5ZM715.1 74.25 690.33 74.25 690.33 48.32 715.1 48.32 715.1 74.25ZM715.1 46.01 690.33 46.01 690.33 20.07 715.1 20.07 715.1 46.01ZM742.17 474.56 717.41 474.56 717.41 448.62 742.17 448.62 742.17 474.56ZM742.17 446.32 717.41 446.32 717.41 420.37 742.17 420.37 742.17 446.32ZM742.17 418.07 717.41 418.07 717.41 392.13 742.17 392.13 742.17 418.07ZM742.17 389.82 717.41 389.82 717.41 363.89 742.17 363.89 742.17 389.82ZM742.17 361.58 717.41 361.58 717.41 335.64 742.17 335.64 742.17 361.58ZM742.17 333.34 717.41 333.34 717.41 307.4 742.17 307.4 742.17 333.34ZM742.17 305.09 717.41 305.09 717.41 279.15 742.17 279.15 742.17 305.09ZM742.17 276.85 717.41 276.85 717.41 247.06 742.17 247.06 742.17 276.85ZM742.17 243.72 717.41 243.72 717.41 217.9 742.17 217.9 742.17 243.72ZM742.17 215.47 717.41 215.47 717.41 189.54 742.17 189.54 742.17 215.47ZM742.17 187.23 717.41 187.23 717.41 161.29 742.17 161.29 742.17 187.23ZM742.17 158.99 717.41 158.99 717.41 133.05 742.17 133.05 742.17 158.99ZM742.17 130.75 717.41 130.75 717.41 104.8 742.17 104.8 742.17 130.75ZM742.17 102.5 717.41 102.5 717.41 76.56 742.17 76.56 742.17 102.5ZM742.17 74.25 717.41 74.25 717.41 48.32 742.17 48.32 742.17 74.25ZM742.17 46.01 717.41 46.01 717.41 20.07 742.17 20.07 742.17 46.01ZM769.24 474.56 744.47 474.56 744.47 448.62 769.24 448.62 769.24 474.56ZM769.24 446.32 744.47 446.32 744.47 420.37 769.24 420.37 769.24 446.32ZM769.24 418.07 744.47 418.07 744.47 392.13 769.24 392.13 769.24 418.07ZM769.24 389.82 744.47 389.82 744.47 363.89 769.24 363.89 769.24 389.82ZM769.24 361.58 744.47 361.58 744.47 335.64 769.24 335.64 769.24 361.58ZM769.24 333.34 744.47 333.34 744.47 307.4 769.24 307.4 769.24 333.34ZM769.24 305.09 744.47 305.09 744.47 279.15 769.24 279.15 769.24 305.09ZM769.24 276.85 744.47 276.85 744.47 247.06 769.24 247.06 769.24 276.85ZM769.24 243.72 744.47 243.72 744.47 217.9 769.24 217.9 769.24 243.72ZM769.24 215.47 744.47 215.47 744.47 189.54 769.24 189.54 769.24 215.47ZM769.24 187.23 744.47 187.23 744.47 161.29 769.24 161.29 769.24 187.23ZM769.24 158.99 744.47 158.99 744.47 133.05 769.24 133.05 769.24 158.99ZM769.24 130.75 744.47 130.75 744.47 104.8 769.24 104.8 769.24 130.75ZM769.24 102.5 744.47 102.5 744.47 76.56 769.24 76.56 769.24 102.5ZM769.24 74.25 744.47 74.25 744.47 48.32 769.24 48.32 769.24 74.25ZM769.24 46.01 744.47 46.01 744.47 20.07 769.24 20.07 769.24 46.01ZM796.3 474.56 771.54 474.56 771.54 448.62 796.3 448.62 796.3 474.56ZM796.3 446.32 771.54 446.32 771.54 420.37 796.3 420.37 796.3 446.32ZM796.3 418.07 771.54 418.07 771.54 392.13 796.3 392.13 796.3 418.07ZM796.3 389.82 771.54 389.82 771.54 363.89 796.3 363.89 796.3 389.82ZM796.3 361.58 771.54 361.58 771.54 335.64 796.3 335.64 796.3 361.58ZM796.3 333.34 771.54 333.34 771.54 307.4 796.3 307.4 796.3 333.34ZM796.3 305.09 771.54 305.09 771.54 279.15 796.3 279.15 796.3 305.09ZM796.3 276.85 771.54 276.85 771.54 247.06 796.3 247.06 796.3 276.85ZM796.3 243.72 771.54 243.72 771.54 217.9 796.3 217.9 796.3 243.72ZM796.3 215.47 771.54 215.47 771.54 189.54 796.3 189.54 796.3 215.47ZM796.3 187.23 771.54 187.23 771.54 161.29 796.3 161.29 796.3 187.23ZM796.3 158.99 771.54 158.99 771.54 133.05 796.3 133.05 796.3 158.99ZM796.3 130.75 771.54 130.75 771.54 104.8 796.3 104.8 796.3 130.75ZM796.3 102.5 771.54 102.5 771.54 76.56 796.3 76.56 796.3 102.5ZM796.3 74.25 771.54 74.25 771.54 48.32 796.3 48.32 796.3 74.25ZM796.3 46.01 771.54 46.01 771.54 20.07 796.3 20.07 796.3 46.01ZM823.37 474.56 798.6 474.56 798.6 448.62 823.37 448.62 823.37 474.56ZM823.37 446.32 798.6 446.32 798.6 420.37 823.37 420.37 823.37 446.32ZM823.37 418.07 798.6 418.07 798.6 392.13 823.37 392.13 823.37 418.07ZM823.37 389.82 798.6 389.82 798.6 363.89 823.37 363.89 823.37 389.82ZM823.37 361.58 798.6 361.58 798.6 335.64 823.37 335.64 823.37 361.58ZM823.37 333.34 798.6 333.34 798.6 307.4 823.37 307.4 823.37 333.34ZM823.37 305.09 798.6 305.09 798.6 279.15 823.37 279.15 823.37 305.09ZM823.37 276.85 798.6 276.85 798.6 247.06 823.37 247.06 823.37 276.85ZM823.37 243.72 798.6 243.72 798.6 217.9 823.37 217.9 823.37 243.72ZM823.37 215.47 798.6 215.47 798.6 189.54 823.37 189.54 823.37 215.47ZM823.37 187.23 798.6 187.23 798.6 161.29 823.37 161.29 823.37 187.23ZM823.37 158.99 798.6 158.99 798.6 133.05 823.37 133.05 823.37 158.99ZM823.37 130.75 798.6 130.75 798.6 104.8 823.37 104.8 823.37 130.75ZM823.37 102.5 798.6 102.5 798.6 76.56 823.37 76.56 823.37 102.5ZM823.37 74.25 798.6 74.25 798.6 48.32 823.37 48.32 823.37 74.25ZM823.37 46.01 798.6 46.01 798.6 20.07 823.37 20.07 823.37 46.01ZM850.43 474.56 825.67 474.56 825.67 448.62 850.43 448.62 850.43 474.56ZM850.43 446.32 825.67 446.32 825.67 420.37 850.43 420.37 850.43 446.32ZM850.43 418.07 825.67 418.07 825.67 392.13 850.43 392.13 850.43 418.07ZM850.43 389.82 825.67 389.82 825.67 363.89 850.43 363.89 850.43 389.82ZM850.43 361.58 825.67 361.58 825.67 335.64 850.43 335.64 850.43 361.58ZM850.43 333.34 825.67 333.34 825.67 307.4 850.43 307.4 850.43 333.34ZM850.43 305.09 825.67 305.09 825.67 279.15 850.43 279.15 850.43 305.09ZM850.43 276.85 825.67 276.85 825.67 247.06 850.43 247.06 850.43 276.85ZM850.43 243.72 825.67 243.72 825.67 217.9 850.43 217.9 850.43 243.72ZM850.43 215.47 825.67 215.47 825.67 189.54 850.43 189.54 850.43 215.47ZM850.43 187.23 825.67 187.23 825.67 161.29 850.43 161.29 850.43 187.23ZM850.43 158.99 825.67 158.99 825.67 133.05 850.43 133.05 850.43 158.99ZM850.43 130.75 825.67 130.75 825.67 104.8 850.43 104.8 850.43 130.75ZM850.43 102.5 825.67 102.5 825.67 76.56 850.43 76.56 850.43 102.5ZM850.43 74.25 825.67 74.25 825.67 48.32 850.43 48.32 850.43 74.25ZM850.43 46.01 825.67 46.01 825.67 20.07 850.43 20.07 850.43 46.01ZM877.49 474.56 852.75 474.56 852.75 448.62 877.49 448.62 877.49 474.56ZM877.49 446.32 852.75 446.32 852.75 420.37 877.49 420.37 877.49 446.32ZM877.49 418.07 852.75 418.07 852.75 392.13 877.49 392.13 877.49 418.07ZM877.49 389.82 852.75 389.82 852.75 363.89 877.49 363.89 877.49 389.82ZM877.49 361.58 852.75 361.58 852.75 335.64 877.49 335.64 877.49 361.58ZM877.49 333.34 852.75 333.34 852.75 307.4 877.49 307.4 877.49 333.34ZM877.49 305.09 852.75 305.09 852.75 279.15 877.49 279.15 877.49 305.09ZM877.49 276.85 852.75 276.85 852.75 247.06 877.49 247.06 877.49 276.85ZM877.49 243.72 852.75 243.72 852.75 217.9 877.49 217.9 877.49 243.72ZM877.49 215.47 852.75 215.47 852.75 189.54 877.49 189.54 877.49 215.47ZM877.49 187.23 852.75 187.23 852.75 161.29 877.49 161.29 877.49 187.23ZM877.49 158.99 852.75 158.99 852.75 133.05 877.49 133.05 877.49 158.99ZM877.49 130.75 852.75 130.75 852.75 104.8 877.49 104.8 877.49 130.75ZM877.49 102.5 852.75 102.5 852.75 76.56 877.49 76.56 877.49 102.5ZM877.49 74.25 852.75 74.25 852.75 48.32 877.49 48.32 877.49 74.25ZM877.49 46.01 852.75 46.01 852.75 20.07 877.49 20.07 877.49 46.01ZM904.56 474.56 879.8 474.56 879.8 448.62 904.56 448.62 904.56 474.56ZM904.56 446.32 879.8 446.32 879.8 420.37 904.56 420.37 904.56 446.32ZM904.56 418.07 879.8 418.07 879.8 392.13 904.56 392.13 904.56 418.07ZM904.56 389.82 879.8 389.82 879.8 363.89 904.56 363.89 904.56 389.82ZM904.56 361.58 879.8 361.58 879.8 335.64 904.56 335.64 904.56 361.58ZM904.56 333.34 879.8 333.34 879.8 307.4 904.56 307.4 904.56 333.34ZM904.56 305.09 879.8 305.09 879.8 279.15 904.56 279.15 904.56 305.09ZM904.56 276.85 879.8 276.85 879.8 247.06 904.56 247.06 904.56 276.85ZM904.56 243.72 879.8 243.72 879.8 217.9 904.56 217.9 904.56 243.72ZM904.56 215.47 879.8 215.47 879.8 189.54 904.56 189.54 904.56 215.47ZM904.56 187.23 879.8 187.23 879.8 161.29 904.56 161.29 904.56 187.23ZM904.56 158.99 879.8 158.99 879.8 133.05 904.56 133.05 904.56 158.99ZM904.56 130.75 879.8 130.75 879.8 104.8 904.56 104.8 904.56 130.75ZM904.56 102.5 879.8 102.5 879.8 76.56 904.56 76.56 904.56 102.5ZM904.56 74.25 879.8 74.25 879.8 48.32 904.56 48.32 904.56 74.25ZM904.56 46.01 879.8 46.01 879.8 20.07 904.56 20.07 904.56 46.01ZM931.63 474.56 906.87 474.56 906.87 448.62 931.63 448.62 931.63 474.56ZM931.63 446.32 906.87 446.32 906.87 420.37 931.63 420.37 931.63 446.32ZM931.63 418.07 906.87 418.07 906.87 392.13 931.63 392.13 931.63 418.07ZM931.63 389.82 906.87 389.82 906.87 363.89 931.63 363.89 931.63 389.82ZM931.63 361.58 906.87 361.58 906.87 335.64 931.63 335.64 931.63 361.58ZM931.63 333.34 906.87 333.34 906.87 307.4 931.63 307.4 931.63 333.34ZM931.63 305.09 906.87 305.09 906.87 279.15 931.63 279.15 931.63 305.09ZM931.63 276.85 906.87 276.85 906.87 247.06 931.63 247.06 931.63 276.85ZM931.63 243.72 906.87 243.72 906.87 217.9 931.63 217.9 931.63 243.72ZM931.63 215.47 906.87 215.47 906.87 189.54 931.63 189.54 931.63 215.47ZM931.63 187.23 906.87 187.23 906.87 161.29 931.63 161.29 931.63 187.23ZM931.63 158.99 906.87 158.99 906.87 133.05 931.63 133.05 931.63 158.99ZM931.63 130.75 906.87 130.75 906.87 104.8 931.63 104.8 931.63 130.75ZM931.63 102.5 906.87 102.5 906.87 76.56 931.63 76.56 931.63 102.5ZM931.63 74.25 906.87 74.25 906.87 48.32 931.63 48.32 931.63 74.25ZM931.63 46.01 906.87 46.01 906.87 20.07 931.63 20.07 931.63 46.01ZM958.7 474.56 933.93 474.56 933.93 448.62 958.7 448.62 958.7 474.56ZM958.7 446.32 933.93 446.32 933.93 420.37 958.7 420.37 958.7 446.32ZM958.7 418.07 933.93 418.07 933.93 392.13 958.7 392.13 958.7 418.07ZM958.7 389.82 933.93 389.82 933.93 363.89 958.7 363.89 958.7 389.82ZM958.7 361.58 933.93 361.58 933.93 335.64 958.7 335.64 958.7 361.58ZM958.7 333.34 933.93 333.34 933.93 307.4 958.7 307.4 958.7 333.34ZM958.7 305.09 933.93 305.09 933.93 279.15 958.7 279.15 958.7 305.09ZM958.7 276.85 933.93 276.85 933.93 247.06 958.7 247.06 958.7 276.85ZM958.7 243.72 933.93 243.72 933.93 217.9 958.7 217.9 958.7 243.72ZM958.7 215.47 933.93 215.47 933.93 189.54 958.7 189.54 958.7 215.47ZM958.7 187.23 933.93 187.23 933.93 161.29 958.7 161.29 958.7 187.23ZM958.7 158.99 933.93 158.99 933.93 133.05 958.7 133.05 958.7 158.99ZM958.7 130.75 933.93 130.75 933.93 104.8 958.7 104.8 958.7 130.75ZM958.7 102.5 933.93 102.5 933.93 76.56 958.7 76.56 958.7 102.5ZM958.7 74.25 933.93 74.25 933.93 48.32 958.7 48.32 958.7 74.25ZM958.7 46.01 933.93 46.01 933.93 20.07 958.7 20.07 958.7 46.01ZM985.76 474.56 961 474.56 961 448.62 985.76 448.62 985.76 474.56ZM985.76 446.32 961 446.32 961 420.37 985.76 420.37 985.76 446.32ZM985.76 418.07 961 418.07 961 392.13 985.76 392.13 985.76 418.07ZM985.76 389.82 961 389.82 961 363.89 985.76 363.89 985.76 389.82ZM985.76 361.58 961 361.58 961 335.64 985.76 335.64 985.76 361.58ZM985.76 333.34 961 333.34 961 307.4 985.76 307.4 985.76 333.34ZM985.76 305.09 961 305.09 961 279.15 985.76 279.15 985.76 305.09ZM985.76 276.85 961 276.85 961 247.06 985.76 247.06 985.76 276.85ZM985.76 243.72 961 243.72 961 217.9 985.76 217.9 985.76 243.72ZM985.76 215.47 961 215.47 961 189.54 985.76 189.54 985.76 215.47ZM985.76 187.23 961 187.23 961 161.29 985.76 161.29 985.76 187.23ZM985.76 158.99 961 158.99 961 133.05 985.76 133.05 985.76 158.99ZM985.76 130.75 961 130.75 961 104.8 985.76 104.8 985.76 130.75ZM985.76 102.5 961 102.5 961 76.56 985.76 76.56 985.76 102.5ZM985.76 74.25 961 74.25 961 48.32 985.76 48.32 985.76 74.25ZM985.76 46.01 961 46.01 961 20.07 985.76 20.07 985.76 46.01ZM1012.83 474.56 988.06 474.56 988.06 448.62 1012.83 448.62 1012.83 474.56ZM1012.83 446.32 988.06 446.32 988.06 420.37 1012.83 420.37 1012.83 446.32ZM1012.83 418.07 988.06 418.07 988.06 392.13 1012.83 392.13 1012.83 418.07ZM1012.83 389.82 988.06 389.82 988.06 363.89 1012.83 363.89 1012.83 389.82ZM1012.83 361.58 988.06 361.58 988.06 335.64 1012.83 335.64 1012.83 361.58ZM1012.83 333.34 988.06 333.34 988.06 307.4 1012.83 307.4 1012.83 333.34ZM1012.83 305.09 988.06 305.09 988.06 279.15 1012.83 279.15 1012.83 305.09ZM1012.83 276.85 988.06 276.85 988.06 247.06 1012.83 247.06 1012.83 276.85ZM1012.83 243.72 988.06 243.72 988.06 217.9 1012.83 217.9 1012.83 243.72ZM1012.83 215.47 988.06 215.47 988.06 189.54 1012.83 189.54 1012.83 215.47ZM1012.83 187.23 988.06 187.23 988.06 161.29 1012.83 161.29 1012.83 187.23ZM1012.83 158.99 988.06 158.99 988.06 133.05 1012.83 133.05 1012.83 158.99ZM1012.83 130.75 988.06 130.75 988.06 104.8 1012.83 104.8 1012.83 130.75ZM1012.83 102.5 988.06 102.5 988.06 76.56 1012.83 76.56 1012.83 102.5ZM1012.83 74.25 988.06 74.25 988.06 48.32 1012.83 48.32 1012.83 74.25ZM1012.83 46.01 988.06 46.01 988.06 20.07 1012.83 20.07 1012.83 46.01ZM1039.89 474.56 1015.13 474.56 1015.13 448.62 1039.89 448.62 1039.89 474.56ZM1039.89 446.32 1015.13 446.32 1015.13 420.37 1039.89 420.37 1039.89 446.32ZM1039.89 418.07 1015.13 418.07 1015.13 392.13 1039.89 392.13 1039.89 418.07ZM1039.89 389.82 1015.13 389.82 1015.13 363.89 1039.89 363.89 1039.89 389.82ZM1039.89 361.58 1015.13 361.58 1015.13 335.64 1039.89 335.64 1039.89 361.58ZM1039.89 333.34 1015.13 333.34 1015.13 307.4 1039.89 307.4 1039.89 333.34ZM1039.89 305.09 1015.13 305.09 1015.13 279.15 1039.89 279.15 1039.89 305.09ZM1039.89 276.85 1015.13 276.85 1015.13 247.06 1039.89 247.06 1039.89 276.85ZM1039.89 243.72 1015.13 243.72 1015.13 217.9 1039.89 217.9 1039.89 243.72ZM1039.89 215.47 1015.13 215.47 1015.13 189.54 1039.89 189.54 1039.89 215.47ZM1039.89 187.23 1015.13 187.23 1015.13 161.29 1039.89 161.29 1039.89 187.23ZM1039.89 158.99 1015.13 158.99 1015.13 133.05 1039.89 133.05 1039.89 158.99ZM1039.89 130.75 1015.13 130.75 1015.13 104.8 1039.89 104.8 1039.89 130.75ZM1039.89 102.5 1015.13 102.5 1015.13 76.56 1039.89 76.56 1039.89 102.5ZM1039.89 74.25 1015.13 74.25 1015.13 48.32 1039.89 48.32 1039.89 74.25ZM1039.89 46.01 1015.13 46.01 1015.13 20.07 1039.89 20.07 1039.89 46.01Z" fill="#FFFFFF" opacity="0.35"/><g><path d="M1040 147 1040 500 134.42 500C134.42 500 274.91 391 329 381.88 359.13 376.79 392.69 376.95 424.11 378.4 474.9 380.66 500.77 386.21 521.93 391.02L521.94 391.02C523.42 391.36 524.87 391.69 526.31 392.02 534.89 393.96 542.89 395.73 551.79 397.03 554.99 397.5 558.3 397.91 561.8 398.24 563.85 398.44 565.97 398.61 568.16 398.76 570.51 398.91 572.95 399.03 575.49 399.11 575.49 399.11 576.11 399.16 577.29 399.21 578.13 399.24 579.24 399.28 580.61 399.31 588.27 399.44 603.84 399.16 622.74 395.77L622.75 395.77C626.5 395.1 630.38 394.31 634.36 393.36 637.7 392.58 641.12 391.69 644.58 390.67 644.92 390.58 645.26 390.48 645.6 390.38 645.62 390.38 645.62 390.38 645.64 390.38 648 389.71 650.34 389 652.65 388.26 657.41 386.73 662.09 385.04 666.67 383.2 667.05 383.06 667.43 382.9 667.81 382.74 668.35 382.53 668.89 382.31 669.43 382.08 673.5 380.4 677.5 378.6 681.41 376.7 681.92 376.47 682.42 376.22 682.93 375.96 684.18 375.36 685.42 374.73 686.65 374.09 687.01 373.92 687.37 373.74 687.72 373.54 688.01 373.4 688.31 373.25 688.6 373.09 690.03 372.34 691.45 371.58 692.86 370.8 696.26 368.94 699.57 367.01 702.8 365.03 703.71 364.47 704.61 363.91 705.51 363.34 705.84 363.14 706.18 362.93 706.51 362.71 707.39 362.16 708.26 361.6 709.13 361.03 711.78 359.3 714.36 357.55 716.88 355.77 717.23 355.52 717.57 355.28 717.91 355.03 722.77 351.56 727.39 348 731.74 344.4 731.91 344.27 732.08 344.13 732.25 343.98 732.34 343.91 732.44 343.83 732.53 343.76L732.53 343.75C732.65 343.66 732.76 343.57 732.87 343.47 733.12 343.26 733.37 343.06 733.61 342.85 735.4 341.35 737.13 339.84 738.82 338.33L738.82 338.32C740.14 337.13 741.42 335.94 742.67 334.76 744.87 332.67 746.98 330.58 748.97 328.51 749.29 328.18 749.6 327.86 749.91 327.54 753.17 324.11 756.14 320.73 758.83 317.43L758.83 317.42C759.51 316.57 760.18 315.73 760.82 314.9 762.5 312.72 764.05 310.59 765.47 308.52 765.47 308.51 765.47 308.51 765.49 308.5 765.86 307.95 766.23 307.4 766.59 306.85 767.32 305.75 768.03 304.65 768.74 303.55 768.76 303.5 768.79 303.46 768.82 303.41 773.28 296.37 777.16 289.29 780.85 282.13 780.85 282.12 780.85 282.12 780.85 282.12 787.37 269.45 793.18 256.86 800.18 244.68 803.69 238.56 807.5 232.54 811.85 226.67 815.94 221.14 820.52 215.73 825.77 210.49 828.95 207.32 832.38 204.2 836.11 201.15 839.93 198.03 844.05 194.97 848.54 192 852.28 189.52 856.26 187.09 860.52 184.73 861.97 183.93 863.44 183.13 864.95 182.35 865.98 181.81 867.02 181.27 868.09 180.74 872.25 178.66 876.65 176.63 881.31 174.65 881.87 174.41 882.43 174.18 882.99 173.94 883.81 173.61 884.64 173.27 885.47 172.93 894.35 169.35 903.34 166.29 912.31 163.68 962.25 149.13 1011.64 148.32 1040 147Z" fill="#8EDCF4"/><path d="M681.39 0C665.23 80.8 596.99 112.28 487.22 108.2 428.74 106.02 407.22 122.62 385.71 163.57 363.75 205.41 356.72 241.48 301.8 267.01 191.63 318.22 121.43 237.1 0 280.06L0 0 681.39 0Z" fill="#8EDCF4"/></g><g><g><path d="M240.78 497.12C240.45 497.12 240.13 496.96 239.94 496.67 239.64 496.21 239.77 495.59 240.23 495.29 243.62 493.07 247.01 490.87 250.32 488.75 250.78 488.45 251.4 488.59 251.7 489.05 252 489.52 251.86 490.13 251.4 490.43 248.1 492.54 244.71 494.74 241.33 496.95 241.16 497.07 240.97 497.12 240.78 497.12ZM261.02 484.19C260.69 484.19 260.36 484.02 260.17 483.72 259.88 483.25 260.02 482.63 260.49 482.34 263.98 480.17 267.43 478.06 270.75 476.07 271.22 475.78 271.84 475.94 272.12 476.41 272.4 476.88 272.25 477.5 271.78 477.78 268.47 479.76 265.03 481.87 261.55 484.03 261.38 484.14 261.2 484.19 261.02 484.19ZM281.62 471.85C281.27 471.85 280.94 471.67 280.75 471.35 280.47 470.87 280.64 470.26 281.12 469.98 284.72 467.91 288.25 465.93 291.61 464.1 292.1 463.83 292.7 464.01 292.97 464.5 293.23 464.99 293.05 465.59 292.57 465.86 289.22 467.69 285.7 469.66 282.12 471.72 281.96 471.8 281.79 471.85 281.62 471.85ZM597.08 462.66C595.99 462.66 595 462.65 594.11 462.64 592.82 462.61 591.77 462.57 590.94 462.55L590.77 462.54C589.56 462.49 588.92 462.44 588.92 462.44 587.83 462.41 586.7 462.36 585.6 462.31 585.05 462.28 584.62 461.82 584.65 461.27 584.68 460.72 585.14 460.29 585.69 460.32 586.78 460.37 587.9 460.41 589.03 460.45 589.09 460.45 589.7 460.5 590.84 460.55L591.01 460.56C591.82 460.59 592.87 460.62 594.14 460.65 595.01 460.66 595.99 460.67 597.07 460.67L597.62 460.67C597.62 460.67 597.62 460.67 597.62 460.67 598.17 460.67 598.62 461.11 598.62 461.67 598.62 462.22 598.18 462.67 597.62 462.67L597.08 462.66ZM609.62 462.28C609.1 462.28 608.66 461.87 608.62 461.34 608.59 460.79 609.01 460.32 609.56 460.28 613.5 460.04 617.5 459.7 621.45 459.25 622 459.19 622.49 459.58 622.56 460.13 622.62 460.68 622.23 461.17 621.68 461.24 617.69 461.69 613.66 462.04 609.68 462.28 609.66 462.27 609.64 462.28 609.62 462.28ZM573.7 461.41C573.67 461.41 573.63 461.41 573.6 461.41 570.81 461.12 568.05 460.78 565.17 460.35 563.99 460.18 562.82 460 561.66 459.81 561.12 459.72 560.75 459.21 560.83 458.66 560.92 458.12 561.43 457.75 561.98 457.83 563.12 458.02 564.28 458.2 565.46 458.37 568.31 458.79 571.05 459.13 573.81 459.41 574.36 459.47 574.76 459.96 574.7 460.51 574.64 461.03 574.2 461.41 573.7 461.41ZM302.72 460.38C302.35 460.38 302 460.18 301.83 459.83 301.58 459.34 301.78 458.74 302.27 458.49 306.04 456.58 309.69 454.82 313.12 453.25 313.62 453.02 314.22 453.24 314.45 453.74 314.68 454.24 314.46 454.83 313.96 455.06 310.55 456.62 306.93 458.37 303.19 460.27 303.02 460.35 302.87 460.38 302.72 460.38ZM633.44 459.59C632.96 459.59 632.54 459.24 632.45 458.75 632.36 458.21 632.73 457.69 633.27 457.6 634.19 457.45 635.13 457.28 636.07 457.12L636.17 457.1C639.18 456.56 642.15 455.97 644.99 455.33 645.54 455.21 646.06 455.55 646.18 456.09 646.3 456.63 645.96 457.16 645.42 457.28 642.52 457.93 639.5 458.53 636.43 459.08L636.33 459.1C635.41 459.27 634.5 459.42 633.59 459.57 633.55 459.58 633.49 459.59 633.44 459.59ZM550.03 457.6C549.96 457.6 549.89 457.59 549.82 457.58 546.36 456.85 542.87 456.07 539.6 455.33L538.1 454.99C537.56 454.87 537.22 454.33 537.35 453.79 537.47 453.25 538.01 452.91 538.55 453.04L540.05 453.38C543.31 454.12 546.79 454.9 550.24 455.62 550.78 455.73 551.13 456.26 551.01 456.8 550.91 457.27 550.5 457.6 550.03 457.6ZM656.84 454.37C656.4 454.37 656 454.08 655.88 453.65 655.73 453.12 656.03 452.57 656.57 452.41 656.99 452.29 657.4 452.17 657.82 452.05 658.16 451.96 658.47 451.87 658.78 451.78L658.98 451.73C661.24 451.09 663.56 450.39 665.87 449.64 666.58 449.41 667.29 449.18 668 448.94 668.53 448.77 669.09 449.05 669.26 449.57 669.43 450.09 669.15 450.66 668.63 450.83 667.92 451.07 667.2 451.3 666.48 451.54 664.11 452.3 661.74 453.01 659.44 453.67L659.27 453.71C658.94 453.81 658.65 453.89 658.36 453.97 657.96 454.09 657.54 454.21 657.12 454.33 657.02 454.35 656.93 454.37 656.84 454.37ZM526.63 452.39C526.56 452.39 526.49 452.38 526.42 452.37 522.27 451.47 518.44 450.69 514.7 449.98 514.16 449.88 513.8 449.35 513.9 448.81 514 448.27 514.53 447.91 515.07 448.01 518.82 448.72 522.67 449.51 526.84 450.41 527.38 450.53 527.72 451.06 527.61 451.6 527.51 452.06 527.09 452.39 526.63 452.39ZM324.58 450.48C324.18 450.48 323.8 450.24 323.65 449.84 323.45 449.32 323.71 448.75 324.22 448.55 328.35 446.96 332.21 445.67 335.7 444.72 336.23 444.57 336.78 444.89 336.93 445.42 337.07 445.95 336.76 446.5 336.23 446.65 332.81 447.58 329.01 448.85 324.95 450.42 324.82 450.46 324.7 450.48 324.58 450.48ZM503.08 447.92C503.03 447.92 502.97 447.92 502.92 447.91 499.07 447.29 495.09 446.71 491.09 446.18 490.54 446.11 490.16 445.61 490.23 445.06 490.3 444.51 490.81 444.13 491.35 444.2 495.37 444.73 499.37 445.31 503.24 445.93 503.79 446.02 504.16 446.53 504.07 447.08 503.99 447.57 503.57 447.92 503.08 447.92ZM679.57 446.78C679.17 446.78 678.8 446.54 678.64 446.15 678.43 445.64 678.68 445.06 679.2 444.85L679.81 444.6C680.2 444.45 680.57 444.3 680.94 444.14 681.5 443.92 682.03 443.71 682.56 443.48 685.1 442.43 687.66 441.31 690.19 440.15 690.69 439.92 691.29 440.14 691.52 440.64 691.75 441.14 691.53 441.74 691.03 441.97 688.48 443.14 685.89 444.27 683.34 445.32 682.8 445.55 682.25 445.77 681.7 445.99 681.33 446.15 680.94 446.31 680.54 446.46L679.95 446.7C679.82 446.75 679.69 446.78 679.57 446.78ZM479.32 444.77C479.28 444.77 479.25 444.77 479.21 444.76 475.39 444.35 471.38 443.96 467.3 443.62 466.75 443.57 466.34 443.09 466.39 442.54 466.44 441.99 466.91 441.57 467.47 441.63 471.56 441.98 475.59 442.37 479.42 442.78 479.97 442.84 480.37 443.33 480.31 443.88 480.26 444.39 479.83 444.77 479.32 444.77ZM347.72 444.39C347.23 444.39 346.81 444.03 346.73 443.54 346.65 442.99 347.03 442.49 347.57 442.41 351.4 441.84 355.42 441.34 359.51 440.91 360.06 440.85 360.55 441.25 360.61 441.8 360.67 442.35 360.27 442.84 359.72 442.9 355.66 443.33 351.67 443.83 347.87 444.39 347.82 444.38 347.77 444.39 347.72 444.39ZM455.44 442.72C455.42 442.72 455.39 442.72 455.37 442.72 451.52 442.46 447.5 442.22 443.42 442.01 442.87 441.98 442.44 441.51 442.47 440.96 442.5 440.41 442.98 439.98 443.52 440.01 447.61 440.22 451.64 440.46 455.5 440.72 456.05 440.76 456.47 441.23 456.43 441.79 456.4 442.31 455.96 442.72 455.44 442.72ZM371.56 441.86C371.04 441.86 370.6 441.46 370.56 440.93 370.52 440.38 370.94 439.9 371.49 439.86 375.36 439.59 379.4 439.38 383.49 439.22 384.02 439.19 384.51 439.63 384.53 440.18 384.55 440.73 384.12 441.2 383.57 441.22 379.49 441.38 375.48 441.6 371.63 441.86 371.61 441.86 371.59 441.86 371.56 441.86ZM431.49 441.47C431.48 441.47 431.46 441.47 431.45 441.47 427.25 441.3 423.33 441.17 419.48 441.08 418.93 441.07 418.49 440.61 418.51 440.05 418.52 439.5 418.96 439.06 419.53 439.08 423.39 439.18 427.32 439.31 431.53 439.48 432.08 439.5 432.51 439.97 432.49 440.52 432.47 441.04 432.03 441.47 431.49 441.47ZM395.52 440.9C394.97 440.9 394.53 440.46 394.52 439.91 394.51 439.36 394.95 438.9 395.51 438.9 398 438.87 400.47 438.85 402.98 438.85 404.49 438.85 406.01 438.86 407.52 438.87 408.07 438.87 408.52 439.33 408.51 439.88 408.51 440.43 408.06 440.87 407.51 440.87 407.51 440.87 407.51 440.87 407.5 440.87 405.93 440.86 404.35 440.85 402.77 440.85 400.35 440.85 397.94 440.87 395.53 440.9 395.53 440.9 395.53 440.9 395.52 440.9ZM701.37 436.81C701 436.81 700.64 436.6 700.47 436.25 700.23 435.75 700.43 435.16 700.93 434.91 701.16 434.8 701.4 434.68 701.63 434.55 703.07 433.79 704.49 433.04 705.89 432.26 707.71 431.27 709.55 430.22 711.37 429.16 711.85 428.88 712.46 429.04 712.74 429.52 713.02 430 712.86 430.61 712.38 430.89 710.55 431.96 708.69 433.01 706.86 434.01 705.45 434.79 704.02 435.55 702.59 436.31 702.35 436.44 702.08 436.58 701.82 436.71 701.67 436.77 701.52 436.81 701.37 436.81ZM722.08 424.73C721.75 424.73 721.43 424.57 721.24 424.27 720.94 423.81 721.07 423.19 721.53 422.89L722.09 422.52C724.74 420.79 727.34 419.03 729.81 417.28L730.04 417.12C730.3 416.93 730.57 416.75 730.83 416.55L731.4 416.15C731.85 415.83 732.48 415.94 732.79 416.39 733.11 416.84 733 417.46 732.55 417.78L732 418.17C731.74 418.36 731.48 418.55 731.2 418.75L730.97 418.92C728.47 420.69 725.85 422.46 723.18 424.2L722.61 424.57C722.46 424.68 722.27 424.73 722.08 424.73Z" fill="#FFFFFF"/></g><g><path d="M741.39 410.87C741.1 410.87 740.8 410.74 740.61 410.49 740.27 410.06 740.34 409.43 740.77 409.09 742.08 408.05 743.36 407.01 744.62 405.97 744.8 405.83 744.95 405.71 745.1 405.57L745.44 405.29C745.53 405.22 745.62 405.15 745.71 405.07L746.01 404.82C746.16 404.69 746.32 404.57 746.46 404.44 748.04 403.12 749.65 401.72 751.4 400.16L751.66 399.91C752.97 398.73 754.25 397.54 755.49 396.37L756.03 395.85C756.43 395.47 757.06 395.48 757.44 395.88 757.82 396.28 757.81 396.91 757.41 397.29L756.86 397.82C755.71 398.91 754.53 400 753.32 401.1L753.32 401.1 752.99 401.41C751.5 402.74 750.11 403.95 748.77 405.09L748.93 405.09 746.36 407.1C746.23 407.22 746.04 407.38 745.85 407.52 744.61 408.55 743.31 409.6 741.99 410.64 741.82 410.8 741.6 410.87 741.39 410.87Z" fill="#FFFFFF"/></g><g><path d="M764.97 389.22C764.73 389.22 764.48 389.13 764.29 388.95 763.88 388.57 763.86 387.94 764.24 387.54 766.77 384.82 769.18 382.05 771.41 379.32L771.87 378.74C772.21 378.31 772.84 378.24 773.28 378.58 773.71 378.93 773.78 379.55 773.44 379.99L773.13 380.39C770.82 383.22 768.33 386.08 765.72 388.9 765.51 389.11 765.24 389.22 764.97 389.22ZM779.61 370.93C779.42 370.93 779.23 370.88 779.06 370.76 778.6 370.45 778.48 369.83 778.78 369.37L779.27 368.63C779.98 367.56 780.66 366.5 781.35 365.44L781.38 365.39C781.41 365.34 781.43 365.29 781.47 365.24 782.67 363.35 783.84 361.43 784.99 359.49 785.27 359.01 785.89 358.86 786.36 359.14 786.84 359.42 786.99 360.03 786.71 360.51 785.55 362.47 784.37 364.41 783.18 366.28L783.03 366.53C782.34 367.6 781.65 368.67 780.94 369.74L780.44 370.49C780.25 370.77 779.93 370.93 779.61 370.93Z" fill="#FFFFFF"/></g><g><path d="M791.58 350.76C791.42 350.76 791.26 350.72 791.11 350.64 790.62 350.38 790.44 349.77 790.7 349.29 791.61 347.6 792.49 345.9 793.37 344.2L793.47 343.99C794.39 342.21 795.29 340.43 796.18 338.65 796.43 338.16 797.03 337.96 797.52 338.21 798.01 338.46 798.21 339.06 797.96 339.55 797.1 341.26 796.23 342.98 795.35 344.69L795.24 344.92C794.32 346.7 793.4 348.47 792.45 350.24 792.28 350.57 791.94 350.76 791.58 350.76Z" fill="#FFFFFF"/></g><g><path d="M802.47 329.31C802.32 329.31 802.17 329.28 802.02 329.2 801.53 328.95 801.32 328.35 801.57 327.86 803.16 324.67 805.06 320.9 807.04 317.09 807.3 316.6 807.9 316.41 808.39 316.67 808.88 316.93 809.07 317.53 808.81 318.02 806.83 321.81 804.94 325.58 803.35 328.75 803.19 329.11 802.83 329.31 802.47 329.31ZM813.71 307.98C813.54 307.98 813.37 307.94 813.21 307.85 812.73 307.58 812.57 306.96 812.84 306.48 814.97 302.76 817.04 299.38 819.16 296.14 819.46 295.68 820.08 295.55 820.54 295.85 821 296.15 821.13 296.77 820.83 297.23 818.73 300.43 816.68 303.78 814.57 307.46 814.4 307.8 814.06 307.98 813.71 307.98ZM826.98 287.86C826.77 287.86 826.55 287.79 826.37 287.65 825.93 287.31 825.85 286.69 826.19 286.25 828.67 283.02 831.29 279.89 833.98 276.94 834.35 276.53 834.98 276.5 835.39 276.87 835.8 277.24 835.83 277.87 835.46 278.28 832.81 281.19 830.22 284.28 827.78 287.47 827.58 287.72 827.28 287.86 826.98 287.86ZM843.21 270.05C842.94 270.05 842.67 269.94 842.47 269.73 842.1 269.32 842.12 268.69 842.53 268.32 844.61 266.4 846.78 264.51 848.99 262.71 849.91 261.96 850.84 261.22 851.79 260.47 852.23 260.13 852.85 260.21 853.19 260.64 853.53 261.08 853.45 261.7 853.02 262.04 852.08 262.77 851.16 263.51 850.26 264.25 848.09 266.03 845.94 267.89 843.89 269.79 843.7 269.97 843.45 270.05 843.21 270.05ZM862.2 255.23C861.88 255.23 861.56 255.07 861.36 254.78 861.06 254.32 861.18 253.7 861.64 253.39 864.98 251.18 868.45 249.05 871.98 247.05 872.46 246.78 873.07 246.95 873.34 247.43 873.61 247.91 873.44 248.52 872.96 248.79 869.48 250.77 866.04 252.87 862.74 255.06 862.58 255.18 862.39 255.23 862.2 255.23ZM883.15 243.31C882.78 243.31 882.42 243.1 882.25 242.75 882.01 242.25 882.21 241.66 882.71 241.41 886.22 239.69 889.92 237.99 893.72 236.37 894.22 236.15 894.81 236.39 895.03 236.9 895.25 237.41 895.01 238 894.5 238.21 890.74 239.82 887.06 241.5 883.58 243.21 883.45 243.27 883.3 243.31 883.15 243.31ZM905.31 233.81C904.9 233.81 904.52 233.56 904.37 233.16 904.18 232.64 904.44 232.07 904.96 231.87 908.68 230.48 912.53 229.13 916.38 227.88 916.9 227.71 917.47 228 917.64 228.52 917.81 229.05 917.52 229.61 917 229.78 913.17 231.03 909.35 232.36 905.66 233.74 905.54 233.78 905.42 233.81 905.31 233.81ZM928.24 226.32C927.8 226.32 927.4 226.03 927.28 225.59 927.13 225.06 927.44 224.51 927.97 224.36 931.78 223.28 935.72 222.25 939.67 221.29 940.2 221.16 940.75 221.49 940.88 222.03 941.01 222.57 940.68 223.11 940.14 223.24 936.21 224.2 932.3 225.23 928.51 226.3 928.42 226.31 928.33 226.32 928.24 226.32ZM951.67 220.6C951.21 220.6 950.79 220.28 950.69 219.8 950.58 219.26 950.93 218.73 951.47 218.62 955.34 217.82 959.33 217.05 963.35 216.35 963.89 216.25 964.41 216.62 964.51 217.16 964.6 217.7 964.24 218.22 963.7 218.32 959.71 219.02 955.73 219.78 951.88 220.58 951.8 220.59 951.73 220.6 951.67 220.6ZM975.42 216.42C974.93 216.42 974.5 216.06 974.43 215.56 974.35 215.01 974.73 214.51 975.27 214.43 979.18 213.86 983.21 213.32 987.25 212.84 987.8 212.78 988.3 213.17 988.36 213.71 988.43 214.26 988.03 214.76 987.48 214.82 983.46 215.3 979.44 215.83 975.55 216.4 975.52 216.42 975.47 216.42 975.42 216.42ZM999.37 213.55C998.86 213.55 998.42 213.16 998.38 212.65 998.33 212.1 998.73 211.61 999.28 211.56 1003.18 211.19 1007.23 210.84 1011.32 210.54 1011.86 210.51 1012.35 210.91 1012.39 211.46 1012.43 212.01 1012.02 212.49 1011.47 212.53 1007.39 212.84 1003.35 213.18 999.47 213.55 999.44 213.55 999.4 213.55 999.37 213.55ZM1023.43 211.73C1022.9 211.73 1022.46 211.32 1022.43 210.79 1022.4 210.24 1022.82 209.77 1023.37 209.73 1027.1 209.51 1031.05 209.31 1035.43 209.11 1035.99 209.09 1036.45 209.51 1036.47 210.06 1036.5 210.61 1036.07 211.08 1035.52 211.1 1031.15 211.3 1027.21 211.5 1023.48 211.72 1023.47 211.73 1023.45 211.73 1023.43 211.73Z" fill="#FFFFFF"/></g></g><g><path d="M1040 389.51 1040 500 0 500 0 388.7C16.56 391.01 32.3 393.06 44.9 394.47 70.45 402.2 257.9 419.58 501.12 420.56 512.47 420.61 523.86 420.61 535.29 420.57 538.97 420.57 542.66 420.55 546.36 420.53 711.02 419.71 883.06 410.84 1040 389.51Z" fill="#7BB17A"/></g><g><path d="M134.59 500 0 500 0 440.71C0.72 439.43 1.91 438.45 3.34 438.01 6.27 437.13 9.55 438.75 10.67 441.77 11 441.37 16.73 434.42 24.85 435.43 32.27 436.37 38.51 443.55 38.59 452.55 40.3 450.3 43.35 449.6 45.8 450.84 48.11 452.02 49.39 454.69 48.8 457.3 55.59 452.81 64.1 452.25 70.65 455.98 79.15 460.81 83.15 472.06 79.26 482.44 80.49 481.26 83.73 478.5 88.28 478.34 94.68 478.11 101.07 483.13 103.52 490.9 109.31 485.22 118.06 483.86 125.08 487.48 129.98 490.01 133.43 494.66 134.59 500Z" fill="#2B774D"/></g></svg>