<svg width="134.59" height="64.67" viewBox="0 0 134.59 64.67" xmlns="http://www.w3.org/2000/svg" xmlns:xlink="http://www.w3.org/1999/xlink" xml:space="preserve" overflow="visible"><defs></defs><g><path d="M134.59 64.67 0 64.67 0 5.38C0.72 4.1 1.91 3.12 3.34 2.68 6.27 1.8 9.55 3.42 10.67 6.44 11 6.04 16.73-0.91 24.85 0.1 32.27 1.04 38.51 8.22 38.59 17.22 40.3 14.97 43.35 14.27 45.8 15.51 48.11 16.69 49.39 19.36 48.8 21.97 55.59 17.48 64.1 16.92 70.65 20.65 79.15 25.48 83.15 36.73 79.26 47.11 80.49 45.93 83.73 43.17 88.28 43.01 94.68 42.78 101.07 47.8 103.52 55.57 109.31 49.89 118.06 48.53 125.08 52.15 129.98 54.68 133.43 59.33 134.59 64.67Z" fill="#2B774D"/></g></svg>