<svg width="1040" height="428.46" viewBox="0 0 1040 428.46" xmlns="http://www.w3.org/2000/svg" xmlns:xlink="http://www.w3.org/1999/xlink" xml:space="preserve" overflow="visible"><defs></defs><g><g><g><path d="M1040 279.27 1040 337.89 1024.62 428.24 920.71 415.78 895.06 415.79 814.69 415.84 814.94 414.7 815.04 414.25 815.47 412.35 815.57 411.91 815.87 410.53 839.21 305.8 848.79 262.8 873.59 264.87 939.3 270.36 940.2 270.44 941.57 270.55 1037.44 278.33 1038.51 278.72Z" fill="#FFFFFF"/></g><g><path d="M813.28 410.42 846.21 261.49C846.21 261.49 897.22 239.39 940.28 266.35 940.28 266.35 1000.22 247.76 1039.4 272.61L1018.11 420.81 919.02 414.86 813.28 410.42Z" fill="#FFE8DB"/></g><g><path d="M1019.85 423.32 1040 295.08 1040 298 1020.26 423.6C1020.25 423.71 1020.15 423.79 1020.04 423.79 1020.04 423.79 1020.03 423.79 1020.02 423.79L941.18 417.01 921.36 415.3 921.09 415.28 921.08 415.28 920.45 415.26 900.83 414.72 815.47 412.35 814.96 412.34C814.84 412.34 814.74 412.24 814.74 412.11 814.75 411.99 814.86 411.87 814.98 411.89L815.57 411.91 912.84 414.6 920.51 414.81 921.11 414.83 921.41 414.86 921.42 414.86 927.13 415.35 1019.85 423.32Z" fill="#492A51"/></g><g><path d="M1021.45 425.72 1040 313.65 1040 316.43 1021.86 426C1021.85 426.11 1021.75 426.19 1021.64 426.19 1021.63 426.19 1021.63 426.19 1021.62 426.19L921.36 415.31 921.09 415.28 920.45 415.28 814.94 414.7 813.64 414.69C813.51 414.69 813.41 414.59 813.41 414.47 813.42 414.34 813.52 414.24 813.64 414.24L815.04 414.25 900.83 414.72 917.87 414.81 920.51 414.83 921.11 414.83 921.41 414.86 921.42 414.86 924.33 415.18 941.18 417.01 1021.45 425.72Z" fill="#492A51"/></g><g><path d="M1040 336.54 1040 339.26 1024.84 428.28C1024.82 428.39 1024.72 428.46 1024.62 428.46L1024.59 428.46 920.91 415.99 813.16 417.05C813.04 417.06 812.93 416.95 812.93 416.82 812.93 416.7 813.03 416.6 813.15 416.6L895.06 415.79 920.53 415.54 920.94 415.54 921.26 415.58 1024.43 427.99 1040 336.54Z" fill="#492A51"/></g><g><path d="M920.9 415.76C920.88 415.76 920.86 415.76 920.84 415.76 920.59 415.73 920.42 415.5 920.45 415.26L939.83 266.31C939.86 266.06 940.1 265.89 940.34 265.92 940.59 265.95 940.76 266.18 940.73 266.43L921.35 415.38C921.32 415.59 921.12 415.76 920.9 415.76Z" fill="#492A51"/></g></g><g><g><path d="M1026.54 285.3C1026.5 285.3 1026.46 285.29 1026.42 285.28 993.5 276.53 949.19 281.62 948.74 281.68 948.49 281.71 948.25 281.53 948.22 281.27 948.19 281.01 948.37 280.78 948.63 280.75 949.08 280.7 993.56 275.59 1026.66 284.38 1026.91 284.45 1027.06 284.7 1026.99 284.95 1026.94 285.16 1026.75 285.3 1026.54 285.3Z" fill="#492A51"/></g><g><path d="M1025.03 294.22C1024.99 294.22 1024.95 294.21 1024.91 294.2 991.99 285.45 947.68 290.54 947.23 290.6 946.97 290.63 946.74 290.45 946.71 290.19 946.68 289.93 946.86 289.7 947.12 289.67 947.56 289.62 992.05 284.51 1025.15 293.3 1025.4 293.37 1025.55 293.62 1025.48 293.87 1025.43 294.08 1025.24 294.22 1025.03 294.22Z" fill="#492A51"/></g><g><path d="M1023.84 304.25C1023.8 304.25 1023.76 304.25 1023.72 304.23 990.79 295.48 946.49 300.57 946.04 300.62 945.79 300.66 945.55 300.47 945.52 300.21 945.49 299.95 945.67 299.72 945.93 299.69 946.38 299.64 990.86 294.53 1023.96 303.32 1024.21 303.39 1024.36 303.64 1024.29 303.89 1024.24 304.11 1024.05 304.25 1023.84 304.25Z" fill="#492A51"/></g><g><path d="M1022.09 314.82C1022.05 314.82 1022.01 314.82 1021.97 314.8 989.05 306.05 944.74 311.14 944.29 311.2 944.04 311.24 943.8 311.05 943.77 310.79 943.74 310.53 943.92 310.3 944.18 310.27 944.63 310.22 989.11 305.11 1022.21 313.9 1022.46 313.97 1022.61 314.22 1022.54 314.47 1022.49 314.68 1022.3 314.82 1022.09 314.82Z" fill="#492A51"/></g><g><path d="M1021.26 326.21C1021.22 326.21 1021.18 326.21 1021.14 326.19 988.22 317.44 943.91 322.53 943.46 322.58 943.21 322.62 942.97 322.43 942.94 322.17 942.91 321.91 943.09 321.68 943.35 321.65 943.79 321.6 988.28 316.48 1021.38 325.28 1021.63 325.35 1021.78 325.6 1021.71 325.85 1021.66 326.07 1021.47 326.21 1021.26 326.21Z" fill="#492A51"/></g><g><path d="M1019.57 338.37C1019.53 338.37 1019.49 338.37 1019.45 338.35 986.52 329.6 942.22 334.7 941.77 334.75 941.51 334.79 941.28 334.6 941.25 334.34 941.22 334.08 941.4 333.85 941.66 333.82 942.1 333.77 986.59 328.66 1019.69 337.45 1019.94 337.52 1020.09 337.77 1020.02 338.02 1019.97 338.23 1019.78 338.37 1019.57 338.37Z" fill="#492A51"/></g><g><path d="M1017.67 350.79C1017.63 350.79 1017.59 350.79 1017.55 350.77 984.62 342.02 940.32 347.11 939.87 347.17 939.61 347.21 939.38 347.02 939.35 346.76 939.32 346.5 939.5 346.27 939.76 346.24 940.21 346.19 984.69 341.08 1017.79 349.87 1018.04 349.94 1018.19 350.19 1018.12 350.44 1018.07 350.65 1017.88 350.79 1017.67 350.79Z" fill="#492A51"/></g></g><g><g><path d="M927.34 281.51C927.3 281.51 927.26 281.5 927.22 281.49 894.3 272.74 849.99 277.83 849.54 277.89 849.29 277.92 849.05 277.74 849.02 277.48 848.99 277.22 849.17 276.99 849.43 276.96 849.88 276.91 894.36 271.8 927.46 280.59 927.71 280.66 927.86 280.91 927.79 281.16 927.74 281.38 927.54 281.51 927.34 281.51Z" fill="#492A51"/></g><g><path d="M925.82 290.43C925.78 290.43 925.74 290.42 925.7 290.41 892.77 281.66 848.47 286.75 848.02 286.81 847.77 286.84 847.53 286.66 847.5 286.4 847.47 286.14 847.65 285.91 847.91 285.88 848.35 285.83 892.84 280.71 925.94 289.51 926.19 289.58 926.34 289.83 926.27 290.08 926.22 290.29 926.03 290.43 925.82 290.43Z" fill="#492A51"/></g><g><path d="M924.64 300.47C924.6 300.47 924.56 300.47 924.52 300.45 891.59 291.7 847.29 296.79 846.84 296.85 846.58 296.88 846.35 296.7 846.32 296.44 846.29 296.18 846.47 295.95 846.73 295.92 847.18 295.87 891.66 290.76 924.76 299.55 925.01 299.62 925.16 299.87 925.09 300.12 925.03 300.33 924.84 300.47 924.64 300.47Z" fill="#492A51"/></g><g><path d="M922.88 311.03C922.84 311.03 922.8 311.03 922.76 311.01 889.84 302.26 845.53 307.35 845.08 307.41 844.83 307.45 844.59 307.26 844.56 307 844.53 306.74 844.71 306.51 844.97 306.48 845.41 306.43 889.9 301.32 923 310.11 923.25 310.18 923.4 310.43 923.33 310.68 923.28 310.89 923.09 311.03 922.88 311.03Z" fill="#492A51"/></g><g><path d="M922.05 322.42C922.01 322.42 921.97 322.42 921.93 322.4 889.01 313.65 844.7 318.75 844.25 318.8 844 318.84 843.76 318.65 843.73 318.39 843.7 318.13 843.88 317.9 844.14 317.87 844.58 317.82 889.07 312.7 922.17 321.5 922.42 321.57 922.57 321.82 922.5 322.07 922.45 322.29 922.26 322.42 922.05 322.42Z" fill="#492A51"/></g><g><path d="M920.36 334.59C920.32 334.59 920.28 334.59 920.24 334.57 887.32 325.82 843.01 330.91 842.56 330.96 842.31 331 842.07 330.81 842.04 330.55 842.01 330.29 842.19 330.06 842.45 330.03 842.89 329.98 887.38 324.86 920.48 333.66 920.73 333.73 920.88 333.98 920.81 334.23 920.76 334.45 920.57 334.59 920.36 334.59Z" fill="#492A51"/></g><g><path d="M918.47 347C918.43 347 918.39 347 918.35 346.98 885.43 338.23 841.12 343.32 840.67 343.38 840.42 343.42 840.18 343.23 840.15 342.97 840.12 342.71 840.3 342.48 840.56 342.45 841.01 342.4 885.49 337.29 918.59 346.08 918.84 346.15 918.99 346.4 918.92 346.65 918.86 346.86 918.67 347 918.47 347Z" fill="#492A51"/></g><g><path d="M916.11 357.81C916.07 357.81 916.03 357.81 915.99 357.8 882.96 349.47 838.72 355.12 838.27 355.18 838.01 355.22 837.78 355.03 837.74 354.78 837.71 354.52 837.89 354.29 838.14 354.25 838.58 354.19 883 348.52 916.21 356.89 916.46 356.95 916.61 357.21 916.55 357.46 916.51 357.66 916.32 357.81 916.11 357.81Z" fill="#492A51"/></g><g><path d="M912.81 369.19C912.77 369.19 912.73 369.19 912.7 369.18 879.67 360.85 835.43 366.5 834.98 366.56 834.72 366.6 834.49 366.41 834.45 366.16 834.42 365.9 834.6 365.67 834.85 365.63 835.29 365.57 879.71 359.89 912.92 368.27 913.17 368.33 913.32 368.59 913.26 368.84 913.21 369.05 913.02 369.19 912.81 369.19Z" fill="#492A51"/></g><g><path d="M910.64 382.93C910.6 382.93 910.56 382.93 910.53 382.92 877.5 374.59 833.26 380.24 832.81 380.3 832.56 380.34 832.32 380.15 832.28 379.9 832.25 379.64 832.43 379.41 832.68 379.37 833.12 379.31 877.54 373.64 910.75 382.01 911 382.07 911.15 382.33 911.09 382.58 911.05 382.79 910.85 382.93 910.64 382.93Z" fill="#492A51"/></g></g><g opacity="0.53"><path d="M935.47 397.37 940.33 356.05C940.33 356.05 993.58 352.23 1015.27 359.77L1008.38 401.73 935.47 397.37Z" fill="#7581FF"/></g></g><g><g><g><g><g><path d="M912.74 28.45 879.46 53.61 881.36 11.95 881.54 8.02 915.88 26.08Z" fill="#F75352"/><path d="M1019.2 70.46 990.41 100.67 985.55 59.25 985.09 55.35 1021.91 67.62Z" fill="#F75352"/><path d="M966.98 52.16 936.32 80.44 934.13 38.8 933.93 34.87 969.87 49.5Z" fill="#E0B646"/><g id="XMLID_4_"><path d="M1040 70.11 1040 73.42C1038.7 73.08 1037.42 72.73 1036.13 72.38L1036.12 72.37C1031.16 71.03 1026.23 69.63 1021.38 68.18L1021.37 68.18C1008.91 64.48 996.86 60.48 985.2 56.28L985.19 56.28C979.73 54.3 974.37 52.28 969.09 50.22L969.08 50.22C956.88 45.45 945.15 40.47 933.95 35.37 927.56 32.46 921.34 29.5 915.29 26.54L915.27 26.54C903.34 20.66 892.08 14.71 881.51 8.78 881.51 8.78 881.5 8.78 881.5 8.77 876.24 5.83 871.19 2.91 866.3-8.88178e-15L872.55-8.88178e-15C916.04 25.35 972.79 52.2 1040 70.11Z" fill="#FFFFFF"/></g></g></g></g></g><g><g><g><g><path d="M127.26 28.46 160.54 53.61 158.64 11.95 158.47 8.03 124.12 26.09Z" fill="#F75352"/><path d="M20.81 70.47 49.59 100.67 54.45 59.26 54.91 55.35 18.1 67.62Z" fill="#F75352"/><path d="M73.02 52.17 103.68 80.45 105.87 38.8 106.08 34.88 70.13 49.5Z" fill="#E0B646"/><g id="XMLID_2_"><path d="M0 70.11 0 73.42C1.3 73.08 2.58 72.73 3.87 72.38L3.88 72.37C8.84 71.03 13.77 69.63 18.62 68.18L18.63 68.18C31.09 64.48 43.14 60.48 54.8 56.28L54.81 56.28C60.27 54.3 65.63 52.28 70.91 50.22L70.92 50.22C83.12 45.45 94.85 40.47 106.05 35.37 112.44 32.46 118.66 29.5 124.71 26.54L124.73 26.54C136.66 20.66 147.92 14.71 158.49 8.78 158.49 8.78 158.5 8.78 158.5 8.77 163.76 5.83 168.81 2.91 173.7-8.88178e-15L167.45-8.88178e-15C123.96 25.35 67.21 52.2 0 70.11Z" fill="#FFFFFF"/></g></g></g></g></g></g></svg>