<svg width="238.2" height="439.72" viewBox="0 0 238.2 439.72" xmlns="http://www.w3.org/2000/svg" xmlns:xlink="http://www.w3.org/1999/xlink" xml:space="preserve" overflow="visible"><defs></defs><g><path d="M10.26 120.08C10.26 120.08-1.12 156.53 8.71 175.49 8.71 175.49 8.71 167.47 14.4 160.18 14.4 160.18 20.61 201.74 52.15 206.84 107.48 215.79 156.6 201.01 170.57 170.39 170.57 170.39 162.3 193.72 153.51 198.09 153.51 198.09 198.5 197.36 193.84 119.35L10.26 120.08Z" fill="#4F3131"/><g><g><g><g><g><g><g><g><g><path d="M210.72 180.75C213.51 166.26 207.35 147.62 207.35 147.62L195.89 148.47C195.89 148.47 191.72 166.2 188.83 178.54 187.66 183.55 190.72 188.56 195.71 189.81L196.35 189.97C202.9 191.61 209.45 187.38 210.72 180.75Z" fill="#FFB297"/></g></g></g></g><g><g><g><g><path d="M194.63 146.72C194.63 146.72 189.05 145.9 188.13 142.22 187.68 140.44 187.32 136.8 188.48 136.63 191.78 136.17 192.09 139.93 191.98 141.1 191.98 141.1 195.96 142.36 196.29 143.35L194.63 146.72Z" fill="#FFB297"/></g></g></g><g><g><g><g><g><path d="M205.76 149.37 201.64 150.83C197.72 152.22 193.4 150.17 192.01 146.25L192.01 146.24C191.6 145.08 191.48 143.88 191.64 142.73 191.99 140.01 193.82 137.58 196.59 136.6L200.7 135.14C201.35 134.91 202.02 134.77 202.68 134.72 205.67 134.5 208.57 136.09 209.95 138.83 210.11 139.12 210.23 139.42 210.34 139.72 211.74 143.65 209.69 147.97 205.76 149.37Z" fill="#FFB297"/></g></g></g></g></g><g opacity="0.4"><g><g><g><g><path d="M193.53 138.97C193.66 140.44 193.93 141.97 194.83 143.18 195.69 144.34 199.1 146.24 199.96 144.11 200.03 143.95 200.24 143.89 200.39 143.96 202.04 144.72 203.39 144.89 204.89 143.64 205.35 143.25 205.59 143.03 206.09 142.78 207.55 142.05 208.29 141.38 209.1 139.98 209.37 139.52 209.57 139.03 209.79 138.55 208.36 135.99 205.56 134.51 202.67 134.72 202.01 134.77 201.35 134.91 200.69 135.14L196.58 136.6C195.31 137.05 194.25 137.82 193.42 138.77 193.48 138.81 193.52 138.88 193.53 138.97Z" fill="#F73C50"/></g></g></g></g></g></g></g><g><g><g><g><g><g><g><g><path d="M190.68 177C179.13 181.14 156.12 204 156.12 204 154.86 205.9 155.21 208.08 156.35 210.22 159.99 217.06 168.97 218.94 175.45 214.68 185.12 208.32 204.79 202.62 208.97 184.47L190.68 177Z" fill="#FFB297"/></g></g></g></g></g></g></g></g></g><g><g><g><g><g><path d="M129.12 212.24C129.12 212.24 136.93 229.68 158.22 230.1 168.08 230.29 194.76 217.71 194.76 217.71L176.51 182.15C176.51 182.16 126.99 193.24 129.12 212.24Z" fill="#FFFFFF"/></g></g></g></g></g></g></g><g><g><path d="M194.29 164.42 192.95 164.25C193.39 160.83 194.79 157.65 196.15 154.57 196.56 153.62 197 152.65 197.39 151.69 199.48 146.56 199.9 142.64 198.72 139.35 198.49 138.71 198.23 138.35 197.93 138.24 197.57 138.11 197.1 138.35 196.82 138.66 196.47 139.05 196.26 139.6 196.05 140.17L196 140.29C193.32 147.32 188.43 153.53 182.24 157.79 181.96 157.97 181.69 158.16 181.41 158.35 180.44 159 179.52 159.61 178.72 160.36 177.93 161.1 176.95 162.29 176.78 163.76L175.44 163.6C175.66 161.73 176.84 160.27 177.79 159.37 178.68 158.54 179.68 157.87 180.66 157.22 180.93 157.04 181.2 156.86 181.47 156.67 187.44 152.57 192.15 146.58 194.74 139.8L194.79 139.68C195.03 139.05 195.3 138.34 195.81 137.76 196.39 137.1 197.42 136.6 198.4 136.96 199.33 137.31 199.76 138.23 200 138.89 201.3 142.51 200.88 146.74 198.65 152.2 198.25 153.18 197.82 154.17 197.4 155.12 196.07 158.09 194.71 161.19 194.29 164.42Z" fill="#FFFFFF"/></g><g><path d="M161.16 251.27 187.89 256.46 179.85 224.47Z" fill="#4C9E75"/><path d="M179.53 162.52 183.51 159.47 187.89 256.46 177.87 229.14Z" fill="#56A87D"/><path d="M166.99 162.3 161.16 251.27 177.87 229.14 179.53 162.52Z" fill="#3C8E65"/><path d="M187.89 256.46 238.2 242.38 225.62 163.56 183.51 159.47Z" fill="#62B588"/><path d="M199.37 165.06C200.06 165.86 199.97 167.07 199.16 167.76 198.36 168.44 197.16 168.35 196.47 167.55 195.78 166.75 195.88 165.54 196.67 164.86 197.48 164.17 198.68 164.26 199.37 165.06Z" fill="#3C8E65"/><path d="M215.22 165.29C215.91 166.09 215.82 167.29 215.02 167.98 214.22 168.67 213.02 168.58 212.33 167.78 211.64 166.98 211.73 165.78 212.53 165.09 213.33 164.4 214.53 164.49 215.22 165.29Z" fill="#3C8E65"/></g><g><path d="M215.16 166.18C214.85 166.45 214.4 166.55 213.99 166.43 213.99 166.43 213.98 166.43 213.98 166.43 213.47 166.28 213.47 165.54 213.96 165.33 214.1 165.27 214.22 165.22 214.3 165.18 214.35 165.15 214.38 165.13 214.37 165.13 214.35 165.13 214.32 165.12 214.26 165.17 214.27 165.16 214.34 165.07 214.3 164.68 214.16 163.14 213.51 161.66 212.87 160.22 209.96 153.61 206.95 146.78 203.49 140.31 202.87 139.16 202.29 138.14 201.45 137.4 200.57 136.64 199.44 136.34 198.58 136.64 197.7 136.95 197 137.92 196.81 139.1 196.61 140.28 196.86 141.53 197.09 142.73L200.31 159.43C200.55 160.68 200.82 162.1 200.54 163.5 200.31 164.65 199.57 165.9 198.41 166.48 198.02 166.67 197.55 166.42 197.47 166L197.47 165.99C197.42 165.7 197.55 165.4 197.81 165.28 198.57 164.9 199.07 164.01 199.22 163.24 199.45 162.1 199.22 160.88 198.99 159.69L195.77 142.99C195.53 141.73 195.25 140.3 195.49 138.88 195.71 137.56 196.52 135.94 198.15 135.36 199.48 134.89 201.09 135.28 202.36 136.37 203.39 137.26 204.06 138.43 204.72 139.66 208.2 146.18 211.22 153.03 214.14 159.66 214.79 161.12 215.52 162.78 215.67 164.54 215.71 164.97 215.71 165.6 215.28 166.07 215.22 166.12 215.19 166.15 215.16 166.18Z" fill="#FFFFFF"/></g></g><g><g><g><path d="M195.61 131.04C193.2 130.63 193.5 143.81 197.07 144.22 200.5 144.62 198.85 131.59 195.61 131.04Z" fill="#FFB297"/></g></g></g><g><g><g><path d="M204.46 131.04C201.37 130.23 200.25 143.21 203.1 143.72 205.85 144.21 207.99 131.97 204.46 131.04Z" fill="#FFB297"/></g></g></g><g><g><g><path d="M199.34 131.18C197.89 131.33 198.06 134.24 198.28 137.13 198.48 139.7 198.55 142.31 200.02 142.18 203.04 141.91 203.27 130.76 199.34 131.18Z" fill="#FFB297"/></g></g></g><g><g><g><path d="M207.45 134.04C204.76 133.77 204.23 141.25 205.75 141.65 208.99 142.53 210.27 134.33 207.45 134.04Z" fill="#FFB297"/></g></g></g></g><g><g><g><g><ellipse cx="102.63" cy="431.57" rx="69.22" ry="8.14" fill="#6DA36C"/></g></g></g></g><g><g><g><g><g><g><g><path d="M62.86 338.1 72.31 266.13 115.93 274.33 94.41 335.95C92.95 341.3 89.26 344.54 84.6 346.02 78.42 347.99 71.65 346.16 66.87 341.77L62.86 338.1Z" fill="#FFB297"/></g></g></g></g></g><g><g><g><g><path d="M65.68 316.61C69.85 319.57 74.56 322.34 78.67 323.25 86.37 324.96 94.07 321.7 99.8 320.52L114.53 278.33 69.35 288.61 65.68 316.61Z" fill="#D98A8D"/></g></g></g></g><g><g><g><g><g><path d="M91.67 341.39 54.72 365.26 48.78 384.56 36.91 380.65 38.93 363.85 67.08 322.78Z" fill="#FFB297"/></g></g></g></g></g><g><g><g><g><path d="M54.77 340.74 38.93 363.85 36.91 380.65 48.78 384.56 54.72 365.26 71.27 354.57Z" fill="#FFFFFF"/></g></g></g></g><g><g><g><g><path d="M51.66 345.27 65.98 357.99 69.34 355.82 53.68 342.32Z" fill="#FFA12F"/></g></g></g></g><g><g><g><g><path d="M48.13 360.33C51.77 360.36 58.67 362.59 58.08 364.87 57.49 367.15 53.24 370.98 53.24 370.98 53.24 370.98 53.5 387.46 49.06 388.13 44.62 388.8 39.06 387.96 36.46 382.72 33.86 377.48 35.48 365.42 37.43 362.58 39.39 359.74 41.62 358.93 41.62 358.93 41.62 358.93 44.41 360.98 42.78 367.25 42.78 367.25 43.75 370.63 44.76 369.07 45.79 367.51 44.49 360.3 48.13 360.33Z" fill="#FFA12F"/></g></g></g></g><g><g><g><g><path d="M51.42 385.6C50.19 386.29 48.85 386.37 48.85 386.37 48.85 386.37 48.68 384.56 46.61 383.86 44.54 383.16 44.59 386.07 39.81 384.02 35.98 382.38 37.15 367.85 37.77 362.17 37.66 362.31 37.56 362.43 37.45 362.58 35.49 365.42 33.88 377.48 36.48 382.72 39.08 387.96 44.64 388.8 49.08 388.13 50.07 387.98 50.83 387 51.42 385.6Z" fill="#FFFFFF"/></g></g></g></g><g><g><g><g><path d="M53.13 373.94C50.43 372.33 45.81 372.48 45.76 372.49L45.7 370.98C45.91 370.97 50.82 370.8 53.9 372.65L53.13 373.94Z" fill="#241A13"/></g></g></g></g><g><g><g><g><path d="M52.86 376.42C50.17 374.81 45.54 374.96 45.49 374.97L45.43 373.46C45.64 373.45 50.56 373.29 53.64 375.13L52.86 376.42Z" fill="#241A13"/></g></g></g></g><g><g><g><g><path d="M52.68 379.36C49.99 377.75 45.35 377.9 45.31 377.91L45.25 376.4C45.46 376.39 50.38 376.23 53.46 378.07L52.68 379.36Z" fill="#241A13"/></g></g></g></g></g><g><g><g><g><g><g><path d="M147.78 366.35 155.4 294.16 111.07 291.95 117.6 356.89C117.77 362.44 120.6 366.44 124.79 368.98 130.34 372.34 137.35 372.14 143.03 368.99L147.78 366.35Z" fill="#FFB297"/></g></g></g></g></g><g><g><g><g><path d="M154.51 302.62 152.38 294.01 111.07 291.95 114.31 324.12C119.19 326.01 125.32 327.54 133.16 325.89 142.12 324 149.15 319.01 153.15 315.56L154.51 302.62Z" fill="#D98A8D"/></g></g></g></g><g><g><g><g><g><path d="M119 362.82 149.35 394.66 150.61 414.81 163.07 413.79 165.03 396.98 147.26 350.46Z" fill="#FFB297"/></g></g></g></g></g><g><g><g><g><path d="M155.03 370.8 165.03 396.98 163.07 413.79 150.61 414.81 149.35 394.66 135.76 380.4Z" fill="#FFFFFF"/></g></g></g></g><g><g><g><g><path d="M156.99 375.93 140.1 384.96 137.34 382.06 155.72 372.6Z" fill="#FFA12F"/></g></g></g></g><g><g><g><g><path d="M156.91 391.41C153.36 390.59 146.13 391.14 146.18 393.5 146.22 395.86 149.46 400.57 149.46 400.57 149.46 400.57 145.36 416.53 149.51 418.22 153.66 419.91 159.27 420.4 163.02 415.91 166.77 411.42 168.02 399.31 166.78 396.1 165.54 392.88 163.56 391.57 163.56 391.57 163.56 391.57 160.37 392.91 160.49 399.39 160.49 399.39 158.76 402.45 158.14 400.69 157.51 398.93 160.46 392.22 156.91 391.41Z" fill="#FFA12F"/></g></g></g></g><g><g><g><g><path d="M147.81 415.2C148.84 416.16 150.13 416.55 150.13 416.55 150.13 416.55 150.72 414.83 152.9 414.63 155.08 414.43 154.35 417.25 159.47 416.38 163.58 415.68 165.83 401.28 166.56 395.62 166.63 395.78 166.7 395.92 166.77 396.1 168.01 399.32 166.76 411.42 163.01 415.91 159.26 420.4 153.65 419.91 149.5 418.22 148.57 417.83 148.05 416.71 147.81 415.2Z" fill="#FFFFFF"/></g></g></g></g><g><g><g><g><path d="M156.38 403.77C156.34 403.76 151.87 402.52 148.87 403.46L148.42 402.02C151.85 400.95 156.59 402.26 156.79 402.32L156.38 403.77Z" fill="#241A13"/></g></g></g></g><g><g><g><g><path d="M156.06 406.25C156.02 406.24 151.55 405 148.55 405.94L148.1 404.5C151.52 403.43 156.27 404.74 156.47 404.79L156.06 406.25Z" fill="#241A13"/></g></g></g></g><g><g><g><g><path d="M155.55 409.15C155.51 409.14 151.04 407.9 148.04 408.84L147.59 407.4C151.01 406.33 155.76 407.64 155.96 407.69L155.55 409.15Z" fill="#241A13"/></g></g></g></g></g><g><g><g><g><path d="M75.94 263.65C75.94 263.65 49.51 289.02 41.25 306.29 41.25 306.29 54.04 303.88 61.75 307.19 69.46 310.5 71.53 316.95 82.55 318.42 93.56 319.89 96.87 315.85 107.88 315.85 118.89 315.85 124.95 321.36 134.86 319.16 144.77 316.95 150.28 305.56 154.13 305.19 157.98 304.82 174.79 303.8 174.79 303.8L149.43 264.85 75.94 263.65Z" fill="#5E4141"/></g></g></g></g><g opacity="0.1"><g><g><g><path d="M138.3 314.23C137.05 314.01 130.39 287.65 132.29 287.01 134.19 286.38 140.83 285.11 140.83 285.11L148.74 303.78C148.74 303.78 143.68 315.18 138.3 314.23Z" fill="#FFFFFF"/></g></g></g></g><g><g><g><g><path d="M125.71 313.15C123.28 313.15 121.14 312.05 118.9 310.89 116.55 309.68 114.12 308.43 111.16 308.43 108.23 308.43 103.9 309.37 99.32 310.37 93.56 311.63 87.6 312.93 83.97 312.38 80.79 311.91 77.82 309.19 74.68 306.31 71.15 303.08 67.5 299.74 63.11 298.91 54.75 297.33 46.14 299.4 46.05 299.42 45.65 299.52 45.24 299.27 45.14 298.87 45.04 298.47 45.29 298.06 45.69 297.96 46.05 297.87 54.69 295.79 63.38 297.44 68.19 298.35 72.17 301.99 75.69 305.21 78.66 307.93 81.47 310.49 84.19 310.9 87.56 311.39 93.37 310.13 99 308.9 103.67 307.88 108.07 306.92 111.16 306.92 114.49 306.92 117.2 308.32 119.59 309.55 122.33 310.96 124.69 312.18 127.53 311.38 129.97 310.7 132.64 308.32 135.45 305.81 139.02 302.62 143.07 299.01 147.66 298.06 155.54 296.44 168.61 295.03 168.74 295.01 169.16 294.97 169.53 295.27 169.57 295.68 169.61 296.1 169.31 296.47 168.9 296.51 168.77 296.52 155.77 297.93 147.96 299.53 143.77 300.39 140.05 303.71 136.45 306.93 133.5 309.56 130.71 312.05 127.93 312.83 127.16 313.05 126.42 313.15 125.71 313.15Z" fill="#FFFFFF"/></g></g></g></g></g><g><g><g><g><g><g><path d="M29.31 251.39C32.95 237.2 59.65 206.44 59.65 206.44 61.76 204.73 64.4 204.91 67.07 206.03 75.61 209.6 78.83 220.07 74.49 228.24 68 240.43 59.45 272.7 53.76 272.02L29.31 251.39Z" fill="#FFB297"/></g></g></g></g></g><g><g><g><g><g><path d="M76.49 193.38C76.49 193.38 81.92 201.87 80.87 224.11 80.38 234.41 65.39 261.36 65.39 261.36L29.57 239.83C29.57 239.83 56.82 189.82 76.49 193.38Z" fill="#FFFFFF"/></g></g></g></g></g></g><g><g><g><g><g><path d="M73.24 195.96C91.48 176.78 133.13 184.13 136.39 185.53 140.03 186.29 144.72 191.34 145.61 192.13 153.33 198.94 154.51 215.66 156.05 230.92 158.06 250.85 156.99 265.84 155.12 271.42 154.91 271.45 156.25 273.34 156.04 273.37L158.96 278.63C158.96 278.63 118.2 288.27 115.36 285.5 113.24 283.44 112.04 273.03 111.6 273.01 109.86 280.44 105.67 283.12 103.99 283.57 102.27 284.04 59.68 282.29 53.33 281.48 53.48 280.36 61.14 273.71 61.21 272.26 62.46 244.36 61.93 207.85 73.24 195.96Z" fill="#FFFFFF"/></g></g></g></g><g><g><g><g><path d="M127.4 183.36C127.4 183.36 115.64 217.65 107.68 217 100.85 216.45 89.77 185.64 89.77 185.64 89.77 185.64 69.89 187.5 68.51 188.43 58.74 195.01 55.95 271.57 59.19 273.72 65 277.58 156.72 281.75 159.48 272.72 161.45 266.28 164.5 177.37 127.4 183.36Z" fill="#FFA12F"/></g></g></g></g><g><g><g><g><path d="M108.4 224.27C93.36 224.27 81.47 188.17 80.97 186.6L82.4 186.14C82.52 186.52 94.78 223.91 109.05 222.74 117.46 222.04 130.4 194.11 134.67 183.41L136.07 183.97C135.43 185.58 120.23 223.33 109.17 224.24 108.92 224.26 108.66 224.27 108.4 224.27Z" fill="#FFFFFF"/></g></g></g></g><g><g><g><g><path d="M60.87 224.94 59.36 224.88C59.47 222.05 60.6 197.14 64.88 193.71 68.99 190.42 79.73 185.35 89.73 184.89L89.8 186.39C80.13 186.83 69.78 191.72 65.82 194.88 62.99 197.16 61.3 214.1 60.87 224.94Z" fill="#241A13"/></g></g></g></g><g><g><g><g><path d="M152.05 203.94C147.46 186.04 129.02 183.31 128.84 183.28L129.04 181.79C129.24 181.82 148.67 184.7 153.51 203.57L152.05 203.94Z" fill="#241A13"/></g></g></g></g><g><g><g><g><g><path d="" fill="none"/></g></g></g></g><g><g><g><g><g><path d="" fill="#C77546"/></g></g></g></g></g><g><g><g><g><path d="M119.87 182.71C119.87 182.71 122.24 195.66 115.21 198.25 108.18 200.84 95.63 201.95 96.96 183.83L119.87 182.71Z" fill="#FFB297"/></g></g></g></g><g><g><g><g><g><path d="M102.2 201.58C102.2 201.58 92.03 210.03 89.88 207.3 87.73 204.57 85.24 190.95 92.85 183.98" fill="#FFFFFF"/></g></g></g></g><g><g><g><g><path d="M90.97 208.5C90.88 208.5 90.78 208.5 90.69 208.49 89.94 208.41 89.51 208.05 89.28 207.76 86.74 204.54 84.49 190.59 92.33 183.42L93.35 184.53C85.93 191.32 88.6 204.46 90.46 206.83 90.49 206.87 90.56 206.96 90.83 206.99 93.14 207.23 100.13 202.19 103.95 198.96L104.92 200.11C103.9 200.98 94.89 208.5 90.97 208.5Z" fill="#241A13"/></g></g></g></g></g><g><g><g><g><g><path d="M118.5 201.39C118.5 201.39 130.54 206.84 131.89 203.64 133.24 200.44 132.03 186.64 122.85 181.94" fill="#FFFFFF"/></g></g></g></g><g><g><g><g><path d="M130.38 205.1C126.03 205.1 116.26 199.7 115.06 199.03L115.8 197.71C120.51 200.35 128.8 204.25 130.96 203.52 131.15 203.45 131.19 203.38 131.2 203.34 132.37 200.57 131.46 187.19 122.51 182.61L123.2 181.27C132.66 186.11 134.19 200.16 132.6 203.93 132.46 204.27 132.15 204.71 131.46 204.95 131.15 205.05 130.79 205.1 130.38 205.1Z" fill="#241A13"/></g></g></g></g></g><g><g><g><g><path d="M96.96 183.83 119.87 182.71C119.87 182.71 120.36 185.46 120.22 188.68L105.78 190.16C102.96 190.45 100.08 190.54 97.18 190.43 96.87 188.58 96.77 186.4 96.96 183.83Z" fill="#D98A8D"/></g></g></g></g></g><g><g><g><g><g><path d="M153.01 264.47C153.01 264.47 155.57 283.38 158.53 283.38 161.48 283.38 165.62 282.59 165.82 282 166.02 281.41 162.08 262.7 162.08 262.7L153.01 264.47Z" fill="#D84545"/></g></g></g></g><g><g><g><g><path d="M146.71 265.39C146.71 265.39 133.18 186.54 137.88 185.23 142.58 183.91 152.57 184.11 154.68 187.5 156.79 190.89 167.95 254.21 166.14 258.66 162.06 268.73 146.71 265.39 146.71 265.39Z" fill="#E54E4E"/></g></g></g></g></g><g><g><g><g><g><path d="M46.39 265.95C46.39 265.95 56.25 203.08 58.36 198.68 62.29 190.46 72.62 185.9 73.73 189.74 74.84 193.58 69.87 260.96 66.92 264.76 60.25 273.33 46.39 265.95 46.39 265.95Z" fill="#E54E4E"/></g></g></g></g><g><g><g><g><path d="M51.88 264.84C51.88 264.84 49.2 283.73 52.05 284.54 54.89 285.34 59.09 285.71 59.44 285.19 59.79 284.67 61.09 265.6 61.09 265.6L51.88 264.84Z" fill="#D84545"/></g></g></g></g></g></g><g><g><g><g><g><g><path d="M107.9 298.13C107.9 298.13 119.11 243.33 119.48 240.48 119.85 237.62 115.44 231.09 112.74 230.23 110.04 229.37 73.33 224.99 71.3 225.43 69.27 225.87 58.36 284.81 58.55 286.76 58.74 288.71 59.95 293.61 62 293.99 64.04 294.36 106.29 298.96 107.9 298.13Z" fill="#6268B6"/></g></g></g></g><g><g><g><g><path d="M61.93 294.74C60.78 294.63 57.75 289.63 57.8 286.75 57.85 283.87 64.73 246.3 65.02 244.7L66.5 244.97C64.03 258.46 59.34 284.56 59.3 286.77 59.26 289.2 61.83 292.95 62.33 293.32L62.02 293.73 61.93 294.74Z" fill="#241A13"/></g></g></g></g><g><g><g><g><path d="M62.66 288.37C62.66 288.37 100.82 293.56 102.1 291.9 103.38 290.24 112.33 233.18 113.12 233.62 113.92 234.06 116.23 237.43 116.41 238.05 116.59 238.67 106.56 295.01 105.37 295.19 104.18 295.38 64.64 292.19 64.17 291.29 63.71 290.4 62.66 288.37 62.66 288.37Z" fill="#FFFFFF"/></g></g></g></g></g><g><g><g><g><g><g><g><path d="M82.87 257.94C82.87 257.94 88.06 253.14 92.36 255.13 94.44 256.09 99.74 258.13 98.99 259.4 96.85 262.98 91.48 260.79 90.42 259.76 90.42 259.76 86.06 262.65 84.84 262.2" fill="#FFB297"/></g></g></g></g></g><g><g><g><g><g><g><g><g><g><path d="M35.42 272.63C53.33 281.05 82.18 277.34 82.18 277.34L83.45 263.02C83.45 263.02 54.46 245.39 38.69 246.08 34.45 246.27 31.56 248.26 29.58 250.89 24.09 258.18 27.16 268.75 35.42 272.63Z" fill="#FFB297"/></g></g></g></g><g><g><g><g><g><g><g><path d="M75.49 267.17 75.94 272.61C76.37 277.81 80.94 281.67 86.14 281.24L86.14 281.24C91.34 280.8 95.2 276.24 94.77 271.04L94.32 265.6C93.89 260.4 89.32 256.54 84.12 256.97L84.12 256.97C78.91 257.4 75.05 261.97 75.49 267.17Z" fill="#FFB297"/></g></g></g></g><g><g><g><g><path d="M103.53 266.21C103.67 262.76 90.47 261.5 90.24 265.42 90.02 269.21 103.33 271.16 103.53 266.21Z" fill="#FFB297"/></g></g></g></g></g></g><g><g><g><g><path d="M99.39 277.51C100.31 274.18 89.2 270.26 88.09 274.03 87.01 277.67 98.07 282.28 99.39 277.51Z" fill="#FFB297"/></g></g></g></g><g><g><g><g><path d="M102.85 272.35C103.37 268.94 91.88 266.35 91.21 270.22 90.58 273.95 102.11 277.24 102.85 272.35Z" fill="#FFB297"/></g></g></g></g><g><g><g><g><path d="M94.77 281.37C95.96 278.21 88.88 275.74 87.9 277.45 85.82 281.09 93.53 284.69 94.77 281.37Z" fill="#FFB297"/></g></g></g></g></g></g></g></g></g></g></g></g></g><g><path d="M183.59 153.4C183.59 153.4 175.23 115.44 157.85 98.71 140.48 81.98 106.38 71.04 94.15 53.67 94.15 53.67 23.37 121.23 36.89 157.26 36.89 157.26-14.58 138.6 4.08 55.6 7.93 38.47 20.83 24.57 38.26 14.95 39.45 14.29 40.66 13.66 41.89 13.04 109.96-21.04 238.26 6.95 183.59 153.4Z" fill="#4F3131"/><path d="M52.93 120.94C54.28 134.13 45.77 145.84 33.92 147.1 22.07 148.36 11.37 138.69 10.02 125.51 8.67 112.32 17.18 100.61 29.03 99.35 40.88 98.08 51.58 107.75 52.93 120.94Z" fill="#FFB297"/><path d="M43.09 121.81C43.88 129.59 38.87 136.49 31.88 137.23 24.89 137.97 18.59 132.27 17.79 124.5 17 116.72 22.02 109.82 29 109.07 35.99 108.33 42.3 114.03 43.09 121.81Z" fill="#D98A8D"/><path d="M192.06 115.41C193.41 128.6 184.9 140.31 173.05 141.57 161.2 142.83 150.5 133.16 149.16 119.97 147.81 106.78 156.32 95.07 168.17 93.81 180.01 92.55 190.71 102.22 192.06 115.41Z" fill="#FFB297"/><path d="M182.22 116.28C183.01 124.06 178 130.96 171.01 131.7 164.02 132.44 157.72 126.74 156.92 118.97 156.13 111.19 161.14 104.29 168.13 103.55 175.12 102.81 181.43 108.51 182.22 116.28Z" fill="#D98A8D"/><path d="M113.65 51.38 83.32 54.67C44.9 52.4 32.43 87.18 33.78 119.53L34.18 129.2C25.06 163 62.32 186.66 94.03 185.29L118.67 184.22C150.38 182.85 177.19 163.51 173.65 123.16L173.25 113.49C173.92 57.49 145.36 50 113.65 51.38Z" fill="#FFB297"/><g><g><g><g><g><path d="M88.4 119.88C88.37 125.01 84.18 129.16 79.04 129.13 73.91 129.1 69.77 124.9 69.8 119.76L69.81 118.47 75.06 114.96 69.85 112.53 69.86 110.25C69.89 105.12 74.08 100.98 79.22 101.01 81.79 101.03 84.1 102.09 85.78 103.77 89.13 107.18 88.47 110.05 88.4 119.88Z" fill="#422222"/></g></g></g><g><g><g><path d="M138.27 106.89 138.21 116.4C138.18 121.53 133.99 125.68 128.85 125.65 124.21 125.62 119.57 122.35 119.62 114.99L124.87 111.48 119.66 109.05C119.77 92.47 138.35 95.56 138.27 106.89Z" fill="#422222"/></g></g></g><g><g><g><g><path d="M52.04 106.69C51.48 106.39 74.9 91 89.04 91.17 89.22 91.39 85.51 77.65 67.02 84.58 48.46 92.52 52.21 106.91 52.04 106.69Z" fill="#422222"/></g></g></g><g><g><g><path d="M154.91 103.22C155.37 102.9 132.92 89.58 119.6 90.41 119.45 90.64 120.69 77.69 138.67 83.72 155.99 90.43 154.77 103.43 154.91 103.22Z" fill="#422222"/></g></g></g></g></g><g><g><g><g><path d="M117.66 130.87C108.49 129.03 107.37 135.98 103.71 134.89 100.04 133.81 96.38 127.54 90.78 130.99 85.18 134.44 84.99 154.97 109.65 153 126.9 151.62 126.82 132.71 117.66 130.87Z" fill="#422222"/></g></g></g><g><g><g><path d="M87.72 137.76C90.32 137.29 93.08 137.2 95.92 137.6 105.15 138.88 112.45 144.69 114.93 151.87 113.39 152.44 111.64 152.84 109.65 153 92.48 154.37 87.37 144.84 87.72 137.76Z" fill="#D14A4A"/></g></g></g></g></g><path d="M169.57 135.84C169.57 135.84 172.98 113.64 155.61 96.91 138.24 80.18 104.14 69.24 91.91 51.87 91.91 51.87 32.78 97.49 44.36 145.23 44.36 145.23-15.57 133.73 10.26 58.61 37.93-21.83 255.72-28.38 169.57 135.84Z" fill="#4F3131"/><path d="M76.42 145.91C76.63 151.46 71 156.18 63.85 156.46 56.7 156.74 50.74 152.46 50.53 146.92 50.32 141.37 55.95 136.65 63.1 136.37 70.25 136.09 76.22 140.36 76.42 145.91Z" fill="#D14A4A" opacity="0.6"/><path d="M158.6 143.54C158.81 149.09 153.18 153.81 146.03 154.09 138.88 154.37 132.92 150.09 132.71 144.55 132.5 139 138.13 134.28 145.28 134 152.43 133.71 158.39 137.99 158.6 143.54Z" fill="#D14A4A" opacity="0.6"/><g><path d="M161.92 33.46C155.7 35.25 166.12 59.58 175.83 58.93 186.66 58.2 169.19 31.37 161.92 33.46Z" fill="#FFFFFF" opacity="0.15"/><path d="M151.04 38.23C145.31 39.77 150.48 52.37 157.76 53.32 165.04 54.27 156.76 36.69 151.04 38.23Z" fill="#FFFFFF" opacity="0.15"/></g><path d="M22.54 47.62C16.03 51.56 14.64 68.11 22.93 67.24 31.21 66.37 29.06 43.68 22.54 47.62Z" fill="#FFFFFF" opacity="0.15"/><path d="M36.07 49.95C31.51 52.71 30.54 64.3 36.34 63.69 42.14 63.08 40.63 47.19 36.07 49.95Z" fill="#FFFFFF" opacity="0.15"/></g></g></svg>