<svg width="217.39" height="383.61" viewBox="0 0 217.39 383.61" xmlns="http://www.w3.org/2000/svg" xmlns:xlink="http://www.w3.org/1999/xlink" xml:space="preserve" overflow="visible"><defs></defs><g><g><g><g><g><path d="M28.84 376.48C28.84 380.42 55.96 383.61 89.41 383.61 122.86 383.61 149.98 380.42 149.98 376.48 149.98 372.54 122.86 369.35 89.41 369.35 55.95 369.35 28.84 372.54 28.84 376.48Z" fill="#6DA36C"/></g></g></g></g><g><g><g><g><g><g><path d="M51.61 197.94C51.61 197.94 42.33 197.77 40.82 203.06 39.31 208.35 40.97 239.29 44.77 239.99 48.57 240.69 52.25 238.79 52.25 238.79L51.61 197.94Z" fill="#6F79BF"/></g></g></g></g></g><g><g><g><g><g><path d="M57.37 182.93C57.37 182.93 44.84 193.7 44.37 201.94 43.9 210.18 46.46 260.84 54.48 268.48 62.49 276.12 87.47 282.54 100.12 270.22 112.77 257.9 112.37 215.85 109.13 202.95 105.88 190.04 69.66 173.24 57.37 182.93Z" fill="#4B589B"/></g></g></g></g></g></g><g><g><g><g><g><g><path d="M123.08 305.46 104.86 247.24 141.02 238.09 146.38 292.68C147.16 297.28 145.49 301.05 142.46 303.83 138.44 307.51 132.63 308.51 127.44 306.86L123.08 305.46Z" fill="#FFB297"/></g></g></g></g></g><g><g><g><g><g><path d="M143.31 300.19 112.72 332.67 115.99 346.62 96.46 331.89 123.47 286.85Z" fill="#FFB297"/></g></g></g></g><g><g><g><g><path d="M114.78 334.26C114.78 334.26 112.96 331.08 108.51 332.56 108.51 332.56 107.97 334.01 105.79 333.83 103.61 333.65 100.78 325.79 99.4 325.62 98.02 325.44 94.43 331.35 94.64 332.29 94.85 333.23 113.91 348.75 115.62 348.35 117.32 347.96 115.32 338.93 114.25 336.27 114.25 336.27 114.92 334.52 114.78 334.26Z" fill="#FFFFFF"/></g></g></g></g></g><g><g><g><g><g><path d="M78.74 308.9 68.54 248.75 105.61 244.56 103.56 299.38C103.71 304.04 101.55 307.55 98.17 309.9 93.69 313.01 87.8 313.21 82.87 310.87L78.74 308.9Z" fill="#FFB297"/></g></g></g></g></g><g><g><g><g><g><path d="M99.49 306.4 64.8 334.46 66.16 348.73 48.8 331.5 81.64 290.51Z" fill="#FFB297"/></g></g></g></g><g><g><g><g><path d="M66.63 336.32C66.63 336.32 65.26 332.92 60.64 333.79 60.64 333.79 59.91 335.15 57.78 334.68 55.65 334.21 53.9 326.04 52.56 325.68 51.21 325.32 46.86 330.68 46.95 331.65 47.03 332.61 63.83 350.55 65.57 350.39 67.31 350.23 66.54 341.01 65.84 338.23 65.83 338.24 66.74 336.59 66.63 336.32Z" fill="#FFFFFF"/></g></g></g></g></g><g><g><g><g><path d="M140.55 240.7C140.55 240.7 148.56 289.01 148.65 297.4 148.74 305.79 120.66 328.57 120.66 328.57L101.23 319.36 116.21 291.29 106.3 257.05C106.3 257.05 107.52 297.27 105.33 304.64 103.14 312.01 72.37 330.99 72.37 330.99L54.72 317.79 75.21 294.23C75.21 294.23 66.31 250.99 68.18 242.8L140.55 240.7Z" fill="#5E4141"/></g></g></g></g><g><g><g><g><rect x="112.77" y="310.35" width="1.32" height="22.12" fill="#FFFFFF" transform="matrix(0.4141 -0.9102 0.9102 0.4141 -226.105 291.55)"/></g></g></g></g><g><g><g><g><rect x="66.43" y="310.27" width="1.32" height="22.76" fill="#FFFFFF" transform="matrix(0.6193 -0.7852 0.7852 0.6193 -227.014 175.141)"/></g></g></g></g></g><g><g><g><g><g><g><path d="M15.39 188.74C11.11 175.94 14.45 158.29 14.45 158.29L24.94 157.67C24.94 157.67 30.86 173.25 34.98 184.09 36.65 188.49 34.48 193.41 30.1 195.14L29.54 195.36C23.8 197.65 17.35 194.6 15.39 188.74Z" fill="#FFB297"/></g></g></g></g><g><g><g><g><g><g><g><path d="M20.02 160.51 16.11 159.68C12.38 158.89 10 155.22 10.79 151.49L10.79 151.49C11.58 147.76 15.25 145.38 18.98 146.17L22.88 147C26.61 147.79 28.99 151.46 28.2 155.19L28.2 155.19C27.41 158.92 23.75 161.3 20.02 160.51Z" fill="#FFB297"/></g></g></g></g><g><g><g><g><path d="M22.28 138.07C24.42 137.4 25.73 149.39 22.54 150.2 19.48 150.98 19.41 138.97 22.28 138.07Z" fill="#FFB297"/></g></g></g></g></g></g><g><g><g><g><path d="M25.88 155.94C25.88 155.94 30.84 154.52 31.24 151.07 31.43 149.4 31.32 146.06 30.25 146.05 27.2 146.03 27.37 149.48 27.62 150.53 27.62 150.53 24.16 152.16 23.98 153.09" fill="#FFB297"/></g></g></g></g><g><g><g><g><path d="M13.04 139.76C15.75 138.65 18.33 150.29 15.81 151.1 13.37 151.88 9.95 141.03 13.04 139.76Z" fill="#FFB297"/></g></g></g></g><g><g><g><g><path d="M18.28 138.55C19.61 138.52 19.81 141.17 19.96 143.82 20.09 146.18 20.34 148.55 18.99 148.61 16.21 148.73 14.66 138.64 18.28 138.55Z" fill="#FFB297"/></g></g></g></g><g><g><g><g><path d="M10.14 145.27C12.54 144.7 13.93 151.42 12.6 151.97 9.76 153.15 7.61 145.87 10.14 145.27Z" fill="#FFB297"/></g></g></g></g></g><g><g><g><g><path d="M12.33 149.35C12.39 149.32 18.03 146.14 22.75 147.48L23.02 146.53C17.89 145.07 12.08 148.35 11.84 148.5L12.33 149.35Z" fill="#DE692B"/></g></g></g></g><g><g><g><g><path d="M23.24 153.36C23.26 153.33 25.49 150.73 27.54 151.02L27.67 150.04C25.09 149.7 22.59 152.6 22.48 152.72L23.24 153.36Z" fill="#DE692B"/></g></g></g></g></g><g><g><g><g><g><g><g><g><g><path d="M29.24 178.85C40.19 176.38 69.17 182.77 69.17 182.77 71.08 183.62 71.87 185.48 72.04 187.69 72.58 194.76 66.56 200.61 59.47 200.49 48.88 200.32 25.63 198.17 22.77 195.36L29.24 178.85Z" fill="#FFB297"/></g></g></g></g><g><g><g><g><path d="M33.2 187.95 34.19 187.93C34.18 187.39 33.9 174.74 28.05 166.3L27.24 166.86C32.92 175.07 33.19 187.83 33.2 187.95Z" fill="#DE692B"/></g></g></g></g></g></g></g></g><g><g><g><g><path d="M77.18 186.65C77.18 186.65 81.66 171.99 77.49 171.71 54.45 170.19 33.95 175.17 35.87 176.24 35.87 176.24 37.06 195.99 34.94 205.27 34.93 205.28 78.77 217.45 77.18 186.65Z" fill="#FFFFFF"/></g></g></g></g><g><g><g><g><path d="M65.23 207.13 66.14 206.18C61.88 202.09 62.89 187.91 62.9 187.76L61.58 187.66C61.54 188.27 60.53 202.61 65.23 207.13Z" fill="#241A13"/></g></g></g></g></g></g><g><g><g><g><g><g><g><g><g><g><g><path d="M170.25 181.8C189.04 179.57 210.56 138.57 210.56 138.57L200.61 131.72C200.61 131.72 173.71 149.46 163.27 157.63 159.78 160.38 170.25 181.8 170.25 181.8Z" fill="#FFB297"/></g></g></g></g><g><g><g><g><g><g><g><path d="M202.9 140.29 207.48 140.02C211.86 139.77 215.2 136.01 214.95 131.63L214.95 131.63C214.69 127.25 210.94 123.91 206.56 124.17L201.98 124.44C197.6 124.69 194.26 128.45 194.51 132.83L194.51 132.83C194.77 137.2 198.52 140.54 202.9 140.29Z" fill="#FFB297"/></g></g></g></g><g><g><g><g><path d="M203.3 117.23C200.4 117.04 199.06 128.1 202.35 128.38 205.52 128.65 207.45 117.5 203.3 117.23Z" fill="#FFB297"/></g></g></g></g><g><g><g><g><path d="M213.46 122.03C210.84 120.79 205.99 129.42 208.95 130.89 211.8 132.3 217.22 123.81 213.46 122.03Z" fill="#FFB297"/></g></g></g></g><g><g><g><g><path d="M208.95 117.84C206.09 117.33 203.67 126.93 206.91 127.57 210.04 128.19 213.04 118.58 208.95 117.84Z" fill="#FFB297"/></g></g></g></g><g><g><g><g><path d="M216.33 125.95C213.7 124.89 211.47 130.78 212.89 131.64 215.9 133.47 219.09 127.07 216.33 125.95Z" fill="#FFB297"/></g></g></g></g><g><g><g><g><g><g><path d="M196.13 132.13C196.13 132.13 192.44 127.48 194.37 124 195.31 122.31 196.64 119.57 197.65 120.28 200.51 122.29 199.05 125.1 198.12 125.91 198.12 125.91 200.27 129.74 199.81 130.74" fill="#FFB297"/></g></g></g></g></g><g><g><g><g><path d="M200.51 133.06C201.42 127.71 198.54 125.6 198.41 125.51L197.84 126.32 198.13 125.92 197.84 126.32C197.94 126.39 200.33 128.19 199.53 132.9L200.51 133.06Z" fill="#DE692B"/></g></g></g></g></g></g></g></g></g></g></g></g></g></g><g><g><g><g><g><path d="M128.01 189.83C128.01 189.83 134.2 201.35 152.73 198.75 161.31 197.55 182.71 182.92 182.71 182.92L161.92 154.61C161.92 154.61 129.4 170.04 128.01 189.83Z" fill="#FFFFFF"/></g></g></g></g></g></g><g><g><g><g><g><g><path d="M73.36 177.01C87.94 159.78 123.19 164.57 125.99 165.66 129.07 166.18 133.2 170.36 133.99 171.01 140.73 176.6 142.37 191 144.24 204.11 146.69 221.24 145.44 238.31 144.08 243.2 143.91 243.24 143.72 243.27 143.55 243.3L145.68 248.01C145.68 248.01 112.38 263.36 109.88 261.08 108.02 259.38 106.66 250.76 106.08 246.47 105.71 246.48 105.33 246.49 104.96 246.49 103.11 251.97 98.62 264.62 97.07 263.56 95.1 262.21 69.57 250.02 69.41 245.2 63.63 220.48 63.85 188.25 73.36 177.01Z" fill="#FFFFFF"/></g></g></g></g><g><g><g><g><path d="M121.78 162.44C121.78 162.44 109.78 194.16 103.07 193.9 97.32 193.68 84.74 167.52 84.74 167.52 84.74 167.52 69.18 169.23 67.62 180.47 66.25 190.36 60.47 247.95 66.27 249.13 72.07 250.31 140.08 251.61 146.06 246.08 152.04 240.55 149.8 157.37 121.78 162.44Z" fill="#FFA12F"/></g></g></g></g><g><g><g><g><path d="M93.55 244.94C115.87 244.94 137.94 228.2 138.19 228.02L137.39 226.97C137.13 227.17 110.95 247.01 87.17 243.12L86.96 244.42C89.13 244.77 91.34 244.94 93.55 244.94Z" fill="#241A13"/></g></g></g></g><g><g><g><g><path d="M104.58 201.76C112.77 201.76 127.91 168.13 129.64 164.22L128.43 163.69C121.68 178.93 109.68 201.33 104.34 200.42 98.18 199.43 83.37 177.54 78.19 169.18L77.07 169.88C77.84 171.13 96.12 200.44 104.13 201.72 104.28 201.75 104.43 201.76 104.58 201.76Z" fill="#FFFFFF"/></g></g></g></g><g><g><g><g><g><path d="M106.33 273.5C106.33 273.5 106.35 273.51 106.34 273.51 106.3 273.51 106.31 273.51 106.33 273.5Z" fill="#C77546"/></g></g></g></g></g><g><g><g><g><g><path d="" fill="none"/></g></g></g></g><g><g><g><g><g><path d="M106.25 177.94C106.25 177.94 118.77 184.63 120.11 181.9 121.45 179.17 121.1 167.06 113.32 162.48" fill="#FFFFFF"/></g></g></g></g><g><g><g><g><path d="M118.63 183.2C119.01 183.2 119.35 183.16 119.64 183.07 120.27 182.87 120.57 182.48 120.71 182.19 122.29 178.97 121.68 166.63 113.66 161.92L112.99 163.06C120.57 167.52 120.69 179.25 119.52 181.62 119.5 181.66 119.45 181.75 119.23 181.82 117.27 182.45 110.4 179.41 106.54 177.34L105.92 178.5C106.89 179.01 114.83 183.2 118.63 183.2Z" fill="#241A13"/></g></g></g></g></g><g><g><g><g><g><path d="M98.02 177.88C98.02 177.88 85.22 188.92 83.48 186.42 81.74 183.92 80.26 171.9 87.27 166.2" fill="#FFFFFF"/></g></g></g></g><g><g><g><g><path d="M84.29 187.44C87.85 187.44 97.51 179.23 98.62 178.27L97.76 177.27C93.62 180.83 86.28 186.35 84.2 186.12 84.06 186.1 84.03 186.06 84.02 186.04 82.51 183.88 80.85 172.26 87.68 166.71L86.85 165.69C79.63 171.56 80.89 183.86 82.94 186.8 83.11 187.04 83.44 187.35 84.04 187.43 84.12 187.44 84.21 187.44 84.29 187.44Z" fill="#241A13"/></g></g></g></g></g><g><g><g><g><g><path d="" fill="#C77546"/></g></g></g></g></g><g><g><g><g><path d="M112 163.83C112 163.83 114.49 174.92 108.68 177.42 102.87 179.92 92.38 181.34 92.81 165.65L112 163.83Z" fill="#FFB297"/></g></g></g></g><g><g><g><g><path d="M92.81 165.65 112 163.83C112 163.83 112.52 166.19 112.52 168.97L100.45 170.78C98.09 171.13 95.68 171.32 93.24 171.34 92.91 169.76 92.75 167.88 92.81 165.65Z" fill="#D98A8D"/></g></g></g></g></g></g><g><g><g><g><g><g><path d="M154.02 231.39C154.02 231.39 157.09 247.8 154.64 248.61 152.19 249.42 148.53 249.9 148.21 249.47 147.88 249.03 146.01 232.41 146.01 232.41L154.02 231.39Z" fill="#5660A5"/></g></g></g></g></g><g><g><g><g><g><path d="M159.84 231.27C159.84 231.27 148.79 176.69 146.77 172.93 143.01 165.89 133.81 162.31 132.99 165.71 132.17 169.11 139.12 227.82 141.85 231.02 148.01 238.26 159.84 231.27 159.84 231.27Z" fill="#6268B6"/></g></g></g></g></g><g><g><g><g><g><path d="M144.57 187.51C144.07 187.38 142.26 187.75 140.49 188.36 140.1 190.38 141.24 201.4 142 202.91 143.55 203.23 145.03 202.98 146.33 202.2 146.76 200.54 145.06 188.96 144.57 187.51Z" fill="#5660A5"/></g></g></g></g></g></g><g><g><g><g><g><g><path d="M67.78 235.62C67.78 235.62 64.01 251.89 61.44 251.65 58.87 251.41 55.33 250.39 55.2 249.86 55.08 249.33 60.03 233.35 60.03 233.35L67.78 235.62Z" fill="#5660A5"/></g></g></g></g></g><g><g><g><g><g><path d="M69.9 238.01C69.9 238.01 81.22 173.97 80.31 169.8 79.05 163.99 67.72 168.17 65.61 170.95 63.5 173.73 52.31 226.53 53.52 230.56 56.26 239.67 69.9 238.01 69.9 238.01Z" fill="#6268B6"/></g></g></g></g></g><g><g><g><g><g><path d="M70.24 190.57C69.79 190.31 67.95 190.21 66.08 190.33 65.18 192.17 63.4 203.12 63.74 204.77 65.15 205.48 66.65 205.63 68.1 205.21 68.95 203.73 70.33 192.11 70.24 190.57Z" fill="#5660A5"/></g></g></g></g></g></g></g><g><g><g><path d="M55.16 111.69C56.9 123.6 49.63 134.55 38.94 136.15 28.24 137.75 17.53 126.53 15.79 114.63 14.05 102.72 21.95 94.64 32.65 93.04 43.34 91.43 53.42 99.78 55.16 111.69Z" fill="#FFB297"/></g></g><g opacity="0.35"><g><path d="M46.27 112.86C47.29 119.88 43.01 126.34 36.7 127.28 30.39 128.23 24.45 123.3 23.43 116.28 22.41 109.26 26.69 102.8 33 101.86 39.31 100.92 45.25 105.84 46.27 112.86Z" fill="#F73C50"/></g></g><g><g><path d="M181.12 101.26C182.86 113.17 175.59 124.12 164.9 125.72 154.2 127.32 144.12 118.97 142.39 107.07 140.65 95.16 147.92 84.21 158.61 82.61 169.3 81 179.38 89.36 181.12 101.26Z" fill="#FFB297"/></g></g><g opacity="0.35"><g><path d="M172.23 102.44C173.25 109.46 168.97 115.92 162.66 116.86 156.35 117.81 150.41 112.88 149.39 105.86 148.37 98.84 152.65 92.38 158.96 91.44 165.27 90.49 171.21 95.42 172.23 102.44Z" fill="#F73C50"/></g></g><g><g><path d="M107.52 46.24 80.14 50.4C45.21 49.84 35.25 81.87 37.74 111.16L38.48 119.91C31.53 150.91 66.24 170.93 94.94 168.44L117.24 166.51C145.94 164.03 169.51 145.45 164.72 108.99L163.98 100.24C161.5 70.97 136.22 43.76 107.52 46.24Z" fill="#FFB297"/></g></g><g><g><g><g><path d="M89.69 105.28C89.86 109.69 86.43 113.41 82.02 113.58 77.61 113.75 73.9 110.31 73.73 105.9L73.69 104.79 78.06 101.57 73.49 99.69 73.41 97.73C73.24 93.32 76.67 89.61 81.08 89.44 83.28 89.35 85.31 90.17 86.82 91.56 89.82 94.34 89.36 96.84 89.69 105.28Z" fill="#422222"/></g></g></g><g><g><g><path d="M132 92.18 132.32 100.35C132.49 104.76 129.06 108.48 124.65 108.65 120.66 108.81 116.56 106.18 116.31 99.86L120.68 96.64 116.11 94.76C115.55 80.52 131.62 82.45 132 92.18Z" fill="#422222"/></g></g></g><g><g><g><g><path d="M57.95 95.37C57.46 95.13 76.96 81.01 89.11 80.6 89.28 80.79 85.55 69.13 69.95 75.8 54.33 83.35 58.11 95.55 57.95 95.37Z" fill="#422222"/></g></g></g><g><g><g><path d="M146.14 88.38C146.53 88.09 126.73 77.53 115.32 78.76 115.2 78.96 115.76 67.8 131.43 72.28 146.57 77.36 146.03 88.57 146.14 88.38Z" fill="#422222"/></g></g></g></g></g><g><g><g><g><path d="M118.12 126.13C115.5 128.48 111.27 130.23 105.17 130.29 99.86 130.34 95.97 129.13 93.44 127.34 89.19 124.31 88.67 119.65 91.39 116.39 91.87 115.8 92.46 115.28 93.14 114.79 98.12 111.34 106.33 119.7 106.33 119.7 106.33 119.7 113.24 109.43 119.49 114.73 119.63 114.85 119.76 114.97 119.88 115.11 122.37 117.67 122.08 122.59 118.12 126.13Z" fill="#422222"/></g></g></g><g><g><g><path d="M118.12 126.13C115.5 128.48 111.27 130.23 105.17 130.29 99.86 130.34 95.97 129.13 93.44 127.34 96.62 125.01 101.39 123.53 106.75 123.53 111.11 123.53 115.08 124.51 118.12 126.13Z" fill="#D14A4A"/></g></g></g><g><g><g><path d="M119.88 115.11C117.62 118.41 112.89 121.18 105.17 121.25 98.14 121.31 93.64 119.19 91.39 116.39 91.87 115.8 92.46 115.28 93.14 114.79 98.12 111.34 106.33 119.7 106.33 119.7 106.33 119.7 113.24 109.43 119.49 114.73 119.63 114.85 119.76 114.98 119.88 115.11Z" fill="#FFFFFF"/></g></g></g></g><g opacity="0.35"><g><path d="M80.14 50.41 107.52 46.25C109.65 46.07 111.77 46.06 113.85 46.2 108.72 51.95 100.25 61.23 94.17 66.82 84.92 75.33 64.88 70.78 59.9 74 54.93 77.22 57.07 99.08 47.27 101.9 44.19 102.79 40.83 99.88 37.66 95.49 39.6 71.52 51.42 49.95 80.14 50.41Z" fill="#F73C50"/></g></g><g><g><path d="M167.22 84.1 164.72 109.01 156.23 108.66C156.23 108.66 158.94 78.92 150.47 67.31 141.99 55.71 116.05 43.47 107.51 46.24 98.97 49.01 96.19 63.94 86.67 67.77 77.15 71.6 57.62 67.88 52.67 72.08 47.72 76.28 51.87 93.2 48.03 96.78 44.2 100.36 38.61 102.88 38.61 102.88L38.47 119.91 33.65 120.18 32.64 93.02C32.64 93.02 18.93 95.74 17.59 104.34 17.59 104.34 4.88 100.33 3.97 92.39 3.06 84.45 10.28 80.15 8.95 75.65 7.62 71.15-3.07 74.46 0.85 59.47 4.77 44.49 31.57 45.05 32.32 35.9 33.07 26.75 46.35 0.95 67.96 0.02 89.57-0.91 102.52 13.38 102.52 13.38 102.52 13.38 138.47-4.42 158.75 3.26 179.02 10.94 171.03 49.36 182.64 53 189.45 55.14 194.93 67.66 194.31 79.65 193.69 91.64 181.85 102.27 181.12 101.23 180.38 100.22 175.26 85.47 167.22 84.1Z" fill="#3F2525"/></g></g><g><g><path d="M167.22 84.1 164.72 109.01 156.23 108.66C156.23 108.66 158.94 78.92 150.47 67.31 141.99 55.71 116.05 43.47 107.51 46.24 98.97 49.01 96.19 63.94 86.67 67.77 77.15 71.6 57.62 67.88 52.67 72.08 47.72 76.28 51.87 93.2 48.03 96.78 44.2 100.36 38.61 102.88 38.61 102.88L38.47 119.91 33.65 120.18 32.64 93.02C32.64 93.02 18.93 95.74 17.59 104.34 17.59 104.34 4.88 100.33 3.97 92.39 3.06 84.45 10.28 80.15 8.95 75.65 7.62 71.15-3.07 74.46 0.85 59.47 4.77 44.49 31.57 45.05 32.32 35.9 33.07 26.75 46.35 0.95 67.96 0.02 89.57-0.91 102.52 13.38 102.52 13.38 102.52 13.38 138.47-4.42 158.75 3.26 179.02 10.94 171.03 49.36 182.64 53 189.45 55.14 194.93 67.66 194.31 79.65 193.69 91.64 181.85 102.27 181.12 101.23 180.38 100.22 175.26 85.47 167.22 84.1Z" fill="#3F2525"/></g></g><g opacity="0.7"><g><path d="M77.44 133.42C77.84 138.44 72.93 142.95 66.45 143.48 59.98 144.01 54.4 140.37 54 135.34 53.6 130.32 58.52 125.81 64.99 125.28 71.46 124.76 77.04 128.4 77.44 133.42Z" fill="#D14A4A"/></g></g><g opacity="0.7"><g><path d="M151.87 128.07C152.27 133.09 147.36 137.6 140.88 138.13 134.41 138.66 128.83 135.02 128.43 129.99 128.03 124.97 132.94 120.46 139.42 119.93 145.89 119.4 151.46 123.05 151.87 128.07Z" fill="#D14A4A"/></g></g><g><g opacity="0.15"><g><path d="M146.44 8.68C141.31 11.54 155.51 30.92 163.97 28.35 173.39 25.48 152.44 5.34 146.44 8.68Z" fill="#FFFFFF"/></g></g><g opacity="0.15"><g><path d="M137.8 15.13C133.05 17.66 140.21 27.74 146.84 27.09 153.47 26.43 142.54 12.59 137.8 15.13Z" fill="#FFFFFF"/></g></g></g><g opacity="0.15"><g><path d="M14.65 48.88C8 50.76 2.82 64.92 10.28 66.14 17.74 67.36 21.3 46.99 14.65 48.88Z" fill="#FFFFFF"/></g></g><g opacity="0.15"><g><path d="M25.94 54.16C21.29 55.48 17.66 65.4 22.88 66.25 28.1 67.1 30.59 52.83 25.94 54.16Z" fill="#FFFFFF"/></g></g></g></g></svg>