<svg width="614.59" height="132.62" viewBox="0 0 614.59 132.62" xmlns="http://www.w3.org/2000/svg" xmlns:xlink="http://www.w3.org/1999/xlink" xml:space="preserve" overflow="visible"><defs></defs><g><g><path d="M112.66 7.87C110.62 12.28 109.76 17.17 110.19 22.01 110.33 23.6 112.8 23.41 112.66 21.82 112.27 17.41 113.03 12.98 114.89 8.95 115.56 7.5 113.33 6.42 112.66 7.87Z" fill="#602121"/><path d="M139.93 38.26C139.83 48.02 131.93 61.86 126.84 65.56 123.72 67.82 118.24 68.01 115.02 65.79 112.17 68.48 106.72 69.11 103.3 67.35 101.32 66.32 99.57 64.82 97.99 63.11 96.82 61.87 95.73 60.54 94.7 59.19 90.89 54.26 87.27 48.75 86.22 42.34 85.01 34.94 87.7 26.97 92.92 22.52 98.15 18.06 105.65 17.36 111.58 20.74 116.87 16.55 124.25 16.08 130.05 19.53 130.14 19.57 130.22 19.62 130.3 19.67 136.13 23.28 140 30.76 139.93 38.26Z" fill="#E54E4E"/><path d="M139.93 38.26C139.83 48.02 131.93 61.86 126.84 65.56 123.72 67.82 118.24 68.01 115.02 65.79 112.17 68.48 106.72 69.11 103.3 67.35 101.32 66.32 99.57 64.82 97.99 63.11 108.22 66.82 118.02 60.82 125.24 52.52 128.25 49.05 130.91 45.21 132.6 40.93 134.29 36.65 134.95 31.89 133.98 27.4 133.35 24.51 132.01 21.74 130.07 19.53 130.16 19.57 130.24 19.62 130.32 19.67 136.13 23.28 140 30.76 139.93 38.26Z" fill="#B23636"/><path d="M96.56 33.61C94.72 37.44 91.69 39.81 89.79 38.9 87.89 37.99 87.84 34.14 89.68 30.3 91.52 26.47 94.55 24.1 96.45 25.01 98.36 25.93 98.4 29.78 96.56 33.61Z" fill="#FFFFFF" opacity="0.4"/></g><g><g opacity="0.25"><path d="M171.54 132.61 17.71 132.61C8.01 130.74 2.36 128.5 2.36 126.1 2.36 124.61 4.54 123.18 8.51 121.86 10.5 121.2 12.95 120.57 15.8 119.97 16.23 119.88 16.68 119.79 17.14 119.7 18.9 119.35 20.81 119.01 22.84 118.69 23.29 118.62 23.75 118.55 24.22 118.48 67.63 111.94 148.36 113.38 177.24 120.85 193.19 124.93 188.06 129.43 171.54 132.61Z" fill="#2B774D"/></g><g><g><path d="M177.23 107.93 177.23 126.1 11.91 126.1C11.91 126.1 7.64 123.49 7.4 116.87 7.16 110.25 11.91 107.93 11.91 107.93L177.23 107.93Z" fill="#E54E4E"/><path d="M19.47 126.1 18 126.1C16.06 122.86 13.55 116.18 18.4 107.93L19.88 107.93C14.78 116.35 17.6 123.1 19.47 126.1Z" fill="#FFFFFF"/><path d="M26.58 126.1 25.11 126.1C23.35 122.83 20.92 116.04 24.86 107.93L26.3 107.93C22.21 116.17 24.86 123.04 26.58 126.1Z" fill="#FFFFFF"/><path d="M129.55 126.1 128.08 126.1C126.32 122.83 123.89 116.04 127.81 107.93L129.26 107.93C125.17 116.17 127.83 123.04 129.55 126.1Z" fill="#FFFFFF"/><path d="M122.25 126.1 120.78 126.1C119.02 122.83 116.59 116.04 120.51 107.93L121.95 107.93C117.86 116.18 120.54 123.04 122.25 126.1Z" fill="#FFFFFF"/><g><path d="M177.23 109.69 177.23 124.91 144.27 124.91C144.27 124.91 143.4 124.73 142.36 124.09 141.46 123.62 140.27 122.47 139.67 121.35 138.95 120.21 138.46 117.81 138.58 117.23 138.07 114.53 140.31 110.59 143.74 109.69L177.23 109.69Z" fill="#FFE8DB"/><path d="M177.23 110.15 177.23 110.36 142.2 110.36C142.34 110.28 142.47 110.21 142.59 110.15L177.23 110.15Z" fill="#FFFFFF"/><path d="M177.23 111.53 177.23 111.74 140.46 111.74C140.53 111.67 140.59 111.6 140.66 111.53L177.23 111.53Z" fill="#FFFFFF"/><path d="M177.23 111.53 177.23 111.74 140.46 111.74C140.53 111.67 140.59 111.6 140.66 111.53L177.23 111.53Z" fill="#FFFFFF"/><path d="M177.23 112.9 177.23 113.11 139.47 113.11C139.5 113.04 139.54 112.97 139.58 112.9L177.23 112.9Z" fill="#FFFFFF"/><path d="M177.23 112.9 177.23 113.11 139.47 113.11C139.5 113.04 139.54 112.97 139.58 112.9L177.23 112.9Z" fill="#FFFFFF"/><path d="M177.23 114.27 177.23 114.48 138.88 114.48C138.91 114.41 138.92 114.34 138.95 114.27L177.23 114.27Z" fill="#FFFFFF"/><path d="M177.23 115.65 177.23 115.86 138.62 115.86C138.62 115.79 138.63 115.72 138.65 115.65L177.23 115.65Z" fill="#FFFFFF"/><path d="M177.23 117.02 177.23 117.23 138.57 117.23C138.56 117.16 138.56 117.09 138.56 117.02L177.23 117.02Z" fill="#FFFFFF"/><path d="M177.23 118.4 177.23 118.61 138.7 118.61C138.69 118.54 138.69 118.48 138.67 118.4L177.23 118.4Z" fill="#FFFFFF"/><path d="M177.23 119.77 177.23 119.98 139.03 119.98C139.02 119.91 138.99 119.84 138.97 119.77L177.23 119.77Z" fill="#FFFFFF"/><path d="M177.23 121.14 177.23 121.35 139.66 121.35C139.62 121.28 139.58 121.22 139.55 121.14L177.23 121.14Z" fill="#FFFFFF"/><path d="M177.23 122.52 177.23 122.73 140.67 122.73C140.6 122.66 140.54 122.6 140.49 122.52L177.23 122.52Z" fill="#FFFFFF"/><path d="M177.23 123.89 177.23 124.09 142.36 124.09C142.25 124.03 142.15 123.97 142.04 123.89L177.23 123.89Z" fill="#FFFFFF"/></g></g><g><path d="M167.81 61.16 167.81 90.09 11.66 90.09C11.66 90.09 7.63 85.94 7.4 75.39 7.18 64.85 11.66 61.15 11.66 61.15L167.81 61.15Z" fill="#7581FF"/><path d="M18.8 90.09 17.42 90.09C15.59 84.94 13.22 74.3 17.8 61.16L19.2 61.16C14.37 74.56 17.04 85.3 18.8 90.09Z" fill="#FFFFFF"/><path d="M25.51 90.09 24.13 90.09C22.47 84.88 20.18 74.06 23.89 61.16L25.25 61.16C21.39 74.27 23.89 85.21 25.51 90.09Z" fill="#FFFFFF"/><path d="M122.77 90.09 121.39 90.09C119.73 84.88 117.44 74.06 121.14 61.16L122.51 61.16C118.63 74.27 121.15 85.21 122.77 90.09Z" fill="#FFFFFF"/><path d="M115.88 90.09 114.5 90.09C112.84 84.88 110.55 74.06 114.25 61.16L115.61 61.16C111.73 74.29 114.26 85.21 115.88 90.09Z" fill="#FFFFFF"/><g><path d="M167.81 63.95 167.81 88.19 136.68 88.19C135.81 87.88 134.35 86.68 133.28 84.71 133.21 84.6 133.16 84.5 133.11 84.38 132.82 83.84 132.56 83.22 132.33 82.52 132.29 82.41 132.25 82.31 132.22 82.19 132.04 81.62 131.88 81 131.73 80.33 131.72 80.22 131.69 80.11 131.68 80 131.57 79.42 131.48 78.8 131.42 78.14 131.41 78.03 131.41 77.93 131.39 77.81 131.35 77.32 131.31 76.82 131.3 76.29 131.3 76.17 131.29 76.05 131.3 75.95 131.29 75.83 131.29 75.73 131.29 75.62 131.28 74.96 131.3 74.34 131.34 73.76 131.34 73.64 131.35 73.54 131.37 73.43 131.42 72.77 131.5 72.14 131.59 71.57 131.62 71.45 131.63 71.35 131.66 71.24 131.79 70.57 131.95 69.95 132.15 69.38 132.18 69.26 132.22 69.16 132.26 69.05 132.51 68.34 132.79 67.73 133.09 67.19 133.16 67.07 133.21 66.97 133.27 66.86 134.2 65.3 135.46 64.25 136.18 63.93L167.81 63.93Z" fill="#FFE8DB"/><path d="M167.81 64.69 167.81 65.02 134.73 65.02C134.86 64.89 134.98 64.78 135.1 64.69L167.81 64.69Z" fill="#FFFFFF"/><path d="M167.81 66.88 167.81 67.21 133.08 67.21C133.15 67.09 133.2 66.99 133.26 66.88L167.81 66.88Z" fill="#FFFFFF"/><path d="M167.81 66.88 167.81 67.21 133.08 67.21C133.15 67.09 133.2 66.99 133.26 66.88L167.81 66.88Z" fill="#FFFFFF"/><path d="M167.81 69.07 167.81 69.4 132.14 69.4C132.17 69.28 132.21 69.18 132.25 69.07L167.81 69.07Z" fill="#FFFFFF"/><path d="M167.81 69.07 167.81 69.4 132.14 69.4C132.17 69.28 132.21 69.18 132.25 69.07L167.81 69.07Z" fill="#FFFFFF"/><path d="M167.81 71.25 167.81 71.58 131.59 71.58C131.62 71.46 131.63 71.36 131.66 71.25L167.81 71.25Z" fill="#FFFFFF"/><path d="M167.81 73.44 167.81 73.77 131.34 73.77C131.34 73.65 131.35 73.55 131.37 73.44L167.81 73.44Z" fill="#FFFFFF"/><path d="M167.81 75.63 167.81 75.96 131.3 75.96C131.29 75.84 131.29 75.74 131.29 75.63L167.81 75.63Z" fill="#FFFFFF"/><path d="M167.81 77.82 167.81 78.15 131.42 78.15C131.41 78.04 131.41 77.94 131.39 77.82L167.81 77.82Z" fill="#FFFFFF"/><path d="M167.81 80.01 167.81 80.34 131.73 80.34C131.72 80.23 131.69 80.12 131.68 80.01L167.81 80.01Z" fill="#FFFFFF"/><path d="M167.81 82.19 167.81 82.52 132.33 82.52C132.29 82.41 132.25 82.31 132.22 82.19L167.81 82.19Z" fill="#FFFFFF"/><path d="M167.81 84.38 167.81 84.71 133.28 84.71C133.21 84.6 133.16 84.5 133.11 84.38L167.81 84.38Z" fill="#FFFFFF"/><path d="M167.81 86.57 167.81 86.89 134.87 86.89C134.76 86.8 134.67 86.69 134.57 86.57L167.81 86.57Z" fill="#FFFFFF"/></g></g><g><path d="M169.83 89.76 169.83 107.93 4.5 107.93C-1.01 104.57-1.99 92.93 4.5 89.76L169.83 89.76Z" fill="#FFA539"/><path d="M12.07 107.93 10.6 107.93C8.66 104.69 6.15 98.01 11 89.76L12.48 89.76C7.38 98.18 10.2 104.92 12.07 107.93Z" fill="#FFFFFF"/><path d="M19.17 107.93 17.7 107.93C15.94 104.66 13.51 97.87 17.45 89.76L18.89 89.76C14.8 98 17.46 104.87 19.17 107.93Z" fill="#FFFFFF"/><path d="M122.15 107.93 120.68 107.93C118.92 104.66 116.49 97.87 120.41 89.76L121.86 89.76C117.76 98 120.43 104.87 122.15 107.93Z" fill="#FFFFFF"/><path d="M114.85 107.93 113.38 107.93C111.62 104.66 109.19 97.87 113.11 89.76L114.55 89.76C110.45 98.01 113.13 104.87 114.85 107.93Z" fill="#FFFFFF"/><g><path d="M169.83 91.52 169.83 106.74 136.87 106.74C132.35 105.79 130.92 100.27 131.18 99.06 131.01 98.15 131.4 95.97 132.18 94.73 132.91 93.49 134.08 92.5 135.19 91.98 136.5 91.32 133.15 91.52 169.83 91.52Z" fill="#FFE8DB"/><path d="M169.83 91.98 169.83 92.19 134.8 92.19C134.94 92.11 135.06 92.04 135.19 91.98L169.83 91.98Z" fill="#FFFFFF"/><path d="M169.83 93.35 169.83 93.56 133.06 93.56C133.13 93.49 133.19 93.42 133.26 93.35L169.83 93.35Z" fill="#FFFFFF"/><path d="M169.83 93.35 169.83 93.56 133.06 93.56C133.13 93.49 133.19 93.42 133.26 93.35L169.83 93.35Z" fill="#FFFFFF"/><path d="M169.83 94.73 169.83 94.94 132.07 94.94C132.1 94.87 132.14 94.8 132.18 94.73L169.83 94.73Z" fill="#FFFFFF"/><path d="M169.83 94.73 169.83 94.94 132.07 94.94C132.1 94.87 132.14 94.8 132.18 94.73L169.83 94.73Z" fill="#FFFFFF"/><path d="M169.83 96.1 169.83 96.31 131.48 96.31C131.51 96.24 131.52 96.17 131.55 96.1L169.83 96.1Z" fill="#FFFFFF"/><path d="M169.83 97.48 169.83 97.69 131.22 97.69C131.22 97.62 131.23 97.55 131.25 97.48L169.83 97.48Z" fill="#FFFFFF"/><path d="M169.83 98.85 169.83 99.06 131.17 99.06C131.16 98.99 131.16 98.92 131.16 98.85L169.83 98.85Z" fill="#FFFFFF"/><path d="M169.83 100.22 169.83 100.43 131.3 100.43C131.29 100.36 131.29 100.3 131.27 100.22L169.83 100.22Z" fill="#FFFFFF"/><path d="M169.83 101.6 169.83 101.81 131.63 101.81C131.62 101.74 131.59 101.67 131.57 101.6L169.83 101.6Z" fill="#FFFFFF"/><path d="M169.83 102.97 169.83 103.18 132.26 103.18C132.22 103.11 132.18 103.05 132.15 102.97L169.83 102.97Z" fill="#FFFFFF"/><path d="M169.83 104.35 169.83 104.56 133.27 104.56C133.2 104.49 133.14 104.43 133.09 104.35L169.83 104.35Z" fill="#FFFFFF"/><path d="M169.83 105.72 169.83 105.92 134.96 105.92C134.85 105.86 134.75 105.8 134.64 105.72L169.83 105.72Z" fill="#FFFFFF"/></g></g></g></g></g><g><path d="M614.59 63.28 614.59 132.61 488.53 132.61C488.53 104.65 489.49 63.3 489.49 63.3 489.61 63.22 489.55 63.28 489.65 63.23L489.66 63.22C489.66 63.22 489.67 63.22 489.68 63.22 498.02 59.64 609.99 63.28 614.59 63.28Z" fill="#F9C900"/><path d="M504.97 29.65 504.46 29.53C501.59 27.37 496.58 5.39 507.08 0.61 517.6-4.17 546.77 20.69 546.77 20.69L549.58 25.94 549.58 28.73C532.92 28.79 516.77 29.1 504.97 29.65Z" fill="#D14A4A"/><path d="M504.46 29.53C503 28.43 500.99 22.19 500.74 15.7 509.58 22.27 519.44 25.38 531.2 24.27 535.88 23.83 542.91 22.89 542.67 17.38 545.2 19.36 546.77 20.7 546.77 20.7L549.58 25.95 549.58 28.74C532.93 28.8 516.77 29.11 504.98 29.65L504.46 29.53Z" fill="#E7C03A" opacity="0.22"/><path d="M603.78 29.65 604.3 29.53C607.16 27.37 612.18 5.39 601.67 0.61 591.15-4.17 561.99 20.69 561.99 20.69L559.19 25.94 559.19 28.73C575.84 28.79 591.98 29.1 603.78 29.65Z" fill="#D14A4A"/><path d="M604.3 29.53C605.76 28.43 607.77 22.19 608.01 15.7 599.03 22.39 589.09 25.36 577.56 24.27 572.88 23.83 565.86 22.89 566.1 17.38 563.57 19.36 562 20.7 562 20.7L559.2 25.95 559.2 28.74C575.85 28.8 591.99 29.11 603.79 29.65L604.3 29.53Z" fill="#E7C03A" opacity="0.22"/><path d="M614.59 30.32 614.59 63.54C585.75 64.86 486.24 63.98 483.85 62.75 480.98 61.31 480.82 33.16 483.85 31.68 489.17 29.11 537.42 28.79 543.36 28.76 543.39 28.75 543.42 28.75 543.45 28.76 546.51 28.64 595.14 28.59 614.59 30.32Z" fill="#F9C900"/><path d="M545.11 28.75C550.4 28.72 555.76 28.72 561.05 28.75 567.02 23.17 559.14 16.04 554.36 16.16 552.2 16.21 545.52 15.44 543.47 21.41 541.86 26.05 543.76 28.39 545.11 28.75Z" fill="#BC4040"/><path d="M562.82 28.76 562.82 132.62 543.45 132.62 543.45 28.76Z" fill="#D14A4A"/><path d="M614.59 63.28 614.59 70.95C604.08 71.43 584.07 71.62 562.82 71.61 508.31 71.53 489.32 70.62 489.32 70.62 489.33 70.32 489.48 63.58 489.48 63.3L489.49 63.3C489.52 63.28 489.55 63.26 489.59 63.25 489.61 63.23 489.63 63.22 489.66 63.22 496.76 59.67 611.67 63.28 614.59 63.28Z" fill="#EDDE9D"/><g><path d="M594.87 29.3 594.87 30.16C594.92 29.87 594.97 29.59 595 29.31 594.96 29.31 594.91 29.31 594.87 29.3Z" fill="#B2111D" opacity="0.41"/></g></g></svg>