<svg width="421.55" height="294" viewBox="0 0 421.55 294" xmlns="http://www.w3.org/2000/svg" xmlns:xlink="http://www.w3.org/1999/xlink" xml:space="preserve" overflow="visible"><defs></defs><g><g><g><ellipse cx="60.45" cy="256.84" rx="60.45" ry="11.3" fill="#67A26F"/></g></g><g><g><path d="M4.81 246.51 4.81 258.41 113.14 258.41C113.14 258.41 115.94 256.7 116.09 252.36 116.25 248.02 113.14 246.5 113.14 246.5L4.81 246.5Z" fill="#E54E4E"/><path d="M108.18 258.42 109.14 258.42C110.41 256.3 112.06 251.92 108.87 246.52L107.9 246.52C111.25 252.03 109.41 256.45 108.18 258.42Z" fill="#FFFFFF"/><path d="M103.53 258.42 104.49 258.42C105.64 256.28 107.23 251.83 104.65 246.52L103.71 246.52C106.39 251.91 104.65 256.41 103.53 258.42Z" fill="#FFFFFF"/><path d="M36.05 258.42 37.01 258.42C38.16 256.28 39.75 251.83 37.18 246.52L36.23 246.52C38.93 251.91 37.18 256.41 36.05 258.42Z" fill="#FFFFFF"/><path d="M40.84 258.42 41.8 258.42C42.95 256.28 44.54 251.83 41.97 246.52L41.03 246.52C43.72 251.91 41.96 256.41 40.84 258.42Z" fill="#FFFFFF"/><g><path d="M4.81 247.66 4.81 257.63 26.41 257.63C26.41 257.63 26.98 257.51 27.66 257.09 27.73 257.05 27.8 257.01 27.87 256.96 28.17 256.76 28.47 256.52 28.77 256.2 28.82 256.16 28.85 256.11 28.89 256.06 29.09 255.84 29.27 255.58 29.43 255.3 29.46 255.26 29.48 255.21 29.5 255.16 29.63 254.93 29.74 254.67 29.84 254.4 29.85 254.36 29.87 254.31 29.88 254.26 29.95 254.02 30.02 253.77 30.06 253.5 30.07 253.46 30.07 253.41 30.08 253.36 30.11 253.16 30.13 252.95 30.14 252.74 30.14 252.69 30.15 252.64 30.14 252.6 30.15 252.55 30.15 252.51 30.15 252.46 30.16 252.19 30.14 251.93 30.11 251.7 30.11 251.65 30.1 251.61 30.09 251.56 30.05 251.29 30 251.03 29.93 250.8 29.91 250.75 29.9 250.71 29.88 250.66 29.79 250.38 29.68 250.13 29.54 249.9 29.52 249.85 29.49 249.81 29.47 249.76 29.3 249.47 29.1 249.22 28.89 249 28.84 248.95 28.81 248.91 28.76 248.86 28.42 248.52 28.07 248.27 27.75 248.1 27.66 248.05 27.58 248 27.49 247.96 27.05 247.74 26.74 247.66 26.74 247.66L4.81 247.66Z" fill="#FFE8DB"/><path d="M4.81 247.97 4.81 248.11 27.76 248.11C27.67 248.06 27.59 248.01 27.5 247.97L4.81 247.97Z" fill="#FFFFFF"/><path d="M4.81 248.87 4.81 249 28.9 249C28.85 248.95 28.82 248.91 28.77 248.86L4.81 248.86Z" fill="#FFFFFF"/><path d="M4.81 248.87 4.81 249 28.9 249C28.85 248.95 28.82 248.91 28.77 248.86L4.81 248.86Z" fill="#FFFFFF"/><path d="M4.81 249.77 4.81 249.91 29.55 249.91C29.53 249.86 29.5 249.82 29.48 249.77L4.81 249.77Z" fill="#FFFFFF"/><path d="M4.81 249.77 4.81 249.91 29.55 249.91C29.53 249.86 29.5 249.82 29.48 249.77L4.81 249.77Z" fill="#FFFFFF"/><path d="M4.81 250.67 4.81 250.81 29.94 250.81C29.92 250.76 29.91 250.72 29.89 250.67L4.81 250.67Z" fill="#FFFFFF"/><path d="M4.81 251.57 4.81 251.71 30.11 251.71C30.11 251.66 30.1 251.62 30.09 251.57L4.81 251.57Z" fill="#FFFFFF"/><path d="M4.81 252.47 4.81 252.61 30.14 252.61C30.15 252.56 30.15 252.52 30.15 252.47L4.81 252.47Z" fill="#FFFFFF"/><path d="M4.81 253.37 4.81 253.51 30.06 253.51C30.07 253.47 30.07 253.42 30.08 253.37L4.81 253.37Z" fill="#FFFFFF"/><path d="M4.81 254.27 4.81 254.41 29.84 254.41C29.85 254.37 29.87 254.32 29.88 254.27L4.81 254.27Z" fill="#FFFFFF"/><path d="M4.81 255.17 4.81 255.31 29.42 255.31C29.45 255.27 29.47 255.22 29.49 255.17L4.81 255.17Z" fill="#FFFFFF"/><path d="M4.81 256.07 4.81 256.21 28.77 256.21C28.82 256.17 28.85 256.12 28.89 256.07L4.81 256.07Z" fill="#FFFFFF"/><path d="M4.81 256.97 4.81 257.1 27.66 257.1C27.73 257.06 27.8 257.02 27.87 256.97L4.81 256.97Z" fill="#FFFFFF"/></g></g><g><path d="M10.99 215.86 10.99 234.82 113.3 234.82C113.3 234.82 115.94 232.1 116.09 225.19 116.24 218.28 113.3 215.86 113.3 215.86L10.99 215.86Z" fill="#7581FF"/><path d="M108.62 234.82 109.53 234.82C110.73 231.44 112.28 224.47 109.28 215.86L108.36 215.86C111.52 224.65 109.78 231.69 108.62 234.82Z" fill="#FFFFFF"/><path d="M104.22 234.82 105.13 234.82C106.22 231.41 107.72 224.32 105.29 215.86L104.4 215.86C106.93 224.46 105.29 231.62 104.22 234.82Z" fill="#FFFFFF"/><path d="M40.5 234.82 41.41 234.82C42.5 231.41 44 224.32 41.57 215.86L40.67 215.86C43.21 224.46 41.56 231.62 40.5 234.82Z" fill="#FFFFFF"/><path d="M45.01 234.82 45.92 234.82C47.01 231.41 48.51 224.32 46.08 215.86L45.19 215.86C47.73 224.47 46.08 231.62 45.01 234.82Z" fill="#FFFFFF"/><g><path d="M10.99 217.69 10.99 233.57 31.39 233.57C31.39 233.57 31.93 233.38 32.57 232.72 32.64 232.66 32.7 232.59 32.77 232.51 33.06 232.2 33.34 231.8 33.62 231.29 33.66 231.22 33.7 231.15 33.73 231.07 33.92 230.72 34.09 230.31 34.24 229.85 34.27 229.78 34.29 229.71 34.31 229.63 34.43 229.26 34.53 228.85 34.63 228.41 34.64 228.34 34.66 228.26 34.66 228.19 34.73 227.81 34.79 227.4 34.83 226.97 34.84 226.9 34.84 226.83 34.85 226.75 34.88 226.43 34.9 226.1 34.91 225.76 34.91 225.68 34.92 225.6 34.91 225.54 34.92 225.46 34.92 225.39 34.92 225.32 34.93 224.89 34.91 224.48 34.89 224.1 34.89 224.02 34.88 223.95 34.87 223.88 34.84 223.45 34.78 223.03 34.72 222.66 34.7 222.58 34.69 222.51 34.68 222.44 34.59 222 34.49 221.59 34.36 221.22 34.34 221.14 34.32 221.07 34.29 221 34.13 220.53 33.94 220.14 33.75 219.78 33.71 219.7 33.67 219.63 33.63 219.56 33.31 219.02 32.97 218.63 32.67 218.34 32.58 218.25 32.51 218.18 32.43 218.12 32.02 217.77 31.72 217.64 31.72 217.64L10.99 217.64Z" fill="#FFE8DB"/><path d="M10.99 218.18 10.99 218.4 32.67 218.4C32.58 218.31 32.51 218.24 32.43 218.18L10.99 218.18Z" fill="#FFFFFF"/><path d="M10.99 219.61 10.99 219.83 33.75 219.83C33.71 219.75 33.67 219.68 33.63 219.61L10.99 219.61Z" fill="#FFFFFF"/><path d="M10.99 219.61 10.99 219.83 33.75 219.83C33.71 219.75 33.67 219.68 33.63 219.61L10.99 219.61Z" fill="#FFFFFF"/><path d="M10.99 221.05 10.99 221.27 34.36 221.27C34.34 221.19 34.32 221.12 34.29 221.05L10.99 221.05Z" fill="#FFFFFF"/><path d="M10.99 221.05 10.99 221.27 34.36 221.27C34.34 221.19 34.32 221.12 34.29 221.05L10.99 221.05Z" fill="#FFFFFF"/><path d="M10.99 222.48 10.99 222.7 34.72 222.7C34.7 222.62 34.69 222.55 34.68 222.48L10.99 222.48Z" fill="#FFFFFF"/><path d="M10.99 223.91 10.99 224.13 34.89 224.13C34.89 224.05 34.88 223.98 34.87 223.91L10.99 223.91Z" fill="#FFFFFF"/><path d="M10.99 225.35 10.99 225.57 34.91 225.57C34.92 225.49 34.92 225.42 34.92 225.35L10.99 225.35Z" fill="#FFFFFF"/><path d="M10.99 226.78 10.99 227 34.83 227C34.84 226.93 34.84 226.86 34.85 226.78L10.99 226.78Z" fill="#FFFFFF"/><path d="M10.99 228.21 10.99 228.43 34.63 228.43C34.64 228.36 34.66 228.28 34.66 228.21L10.99 228.21Z" fill="#FFFFFF"/><path d="M10.99 229.65 10.99 229.87 34.24 229.87C34.27 229.8 34.29 229.73 34.31 229.65L10.99 229.65Z" fill="#FFFFFF"/><path d="M10.99 231.08 10.99 231.3 33.62 231.3C33.66 231.23 33.7 231.16 33.73 231.08L10.99 231.08Z" fill="#FFFFFF"/><path d="M10.99 232.51 10.99 232.72 32.57 232.72C32.64 232.66 32.7 232.59 32.77 232.51L10.99 232.51Z" fill="#FFFFFF"/></g></g><g><path d="M9.66 234.61 9.66 246.51 117.99 246.51C117.99 246.51 120.79 244.8 120.94 240.46 121.1 236.12 117.99 234.6 117.99 234.6L9.66 234.6Z" fill="#FFA539"/><path d="M113.03 246.51 113.99 246.51C115.26 244.39 116.91 240.01 113.72 234.61L112.75 234.61C116.1 240.12 114.26 244.54 113.03 246.51Z" fill="#FFFFFF"/><path d="M108.38 246.51 109.34 246.51C110.49 244.37 112.08 239.92 109.5 234.61L108.56 234.61C111.24 240 109.5 244.5 108.38 246.51Z" fill="#FFFFFF"/><path d="M40.91 246.51 41.87 246.51C43.02 244.37 44.61 239.92 42.04 234.61L41.09 234.61C43.78 240 42.03 244.5 40.91 246.51Z" fill="#FFFFFF"/><path d="M45.69 246.51 46.65 246.51C47.8 244.37 49.39 239.92 46.82 234.61L45.88 234.61C48.57 240.01 46.81 244.5 45.69 246.51Z" fill="#FFFFFF"/><g><path d="M9.66 235.76 9.66 245.73 31.26 245.73C31.26 245.73 31.83 245.61 32.51 245.19 32.58 245.15 32.65 245.11 32.72 245.06 33.02 244.86 33.32 244.62 33.62 244.3 33.67 244.26 33.7 244.21 33.74 244.16 33.94 243.94 34.12 243.68 34.28 243.4 34.31 243.36 34.33 243.31 34.35 243.26 34.48 243.03 34.59 242.77 34.69 242.5 34.7 242.46 34.72 242.41 34.73 242.36 34.8 242.12 34.87 241.87 34.91 241.6 34.92 241.56 34.92 241.51 34.93 241.46 34.96 241.26 34.98 241.05 34.99 240.84 34.99 240.79 35 240.74 34.99 240.7 35 240.65 35 240.6 35 240.56 35.01 240.29 34.99 240.03 34.96 239.8 34.96 239.75 34.95 239.71 34.94 239.66 34.9 239.39 34.85 239.13 34.78 238.9 34.76 238.85 34.75 238.81 34.73 238.76 34.64 238.48 34.53 238.23 34.39 238 34.37 237.95 34.34 237.91 34.32 237.86 34.15 237.57 33.95 237.32 33.74 237.1 33.69 237.05 33.66 237.01 33.61 236.96 33.27 236.62 32.92 236.37 32.6 236.2 32.51 236.15 32.43 236.1 32.34 236.06 31.9 235.84 31.59 235.76 31.59 235.76L9.66 235.76Z" fill="#FFE8DB"/><path d="M9.66 236.06 9.66 236.2 32.61 236.2C32.52 236.15 32.44 236.1 32.35 236.06L9.66 236.06Z" fill="#FFFFFF"/><path d="M9.66 236.96 9.66 237.1 33.75 237.1C33.7 237.05 33.67 237.01 33.62 236.96L9.66 236.96Z" fill="#FFFFFF"/><path d="M9.66 236.96 9.66 237.1 33.75 237.1C33.7 237.05 33.67 237.01 33.62 236.96L9.66 236.96Z" fill="#FFFFFF"/><path d="M9.66 237.86 9.66 238 34.4 238C34.38 237.95 34.35 237.91 34.33 237.86L9.66 237.86Z" fill="#FFFFFF"/><path d="M9.66 237.86 9.66 238 34.4 238C34.38 237.95 34.35 237.91 34.33 237.86L9.66 237.86Z" fill="#FFFFFF"/><path d="M9.66 238.76 9.66 238.9 34.79 238.9C34.77 238.85 34.76 238.81 34.74 238.76L9.66 238.76Z" fill="#FFFFFF"/><path d="M9.66 239.66 9.66 239.8 34.96 239.8C34.96 239.75 34.95 239.71 34.94 239.66L9.66 239.66Z" fill="#FFFFFF"/><path d="M9.66 240.56 9.66 240.7 34.99 240.7C35 240.65 35 240.6 35 240.56L9.66 240.56Z" fill="#FFFFFF"/><path d="M9.66 241.46 9.66 241.6 34.91 241.6C34.92 241.56 34.92 241.51 34.93 241.46L9.66 241.46Z" fill="#FFFFFF"/><path d="M9.66 242.36 9.66 242.5 34.69 242.5C34.7 242.46 34.72 242.41 34.73 242.36L9.66 242.36Z" fill="#FFFFFF"/><path d="M9.66 243.26 9.66 243.4 34.27 243.4C34.3 243.36 34.32 243.31 34.34 243.26L9.66 243.26Z" fill="#FFFFFF"/><path d="M9.66 244.16 9.66 244.3 33.62 244.3C33.67 244.26 33.7 244.21 33.74 244.16L9.66 244.16Z" fill="#FFFFFF"/><path d="M9.66 245.06 9.66 245.19 32.51 245.19C32.58 245.15 32.65 245.11 32.72 245.06L9.66 245.06Z" fill="#FFFFFF"/></g></g></g></g><g><g><g><g><g><path d="M308.05 143.56C308.05 143.56 297.52 150.06 296.21 156.1 294.9 162.14 290.88 199.91 295.91 206.5 300.94 213.09 318.67 220.76 329.47 213.12 340.27 205.49 344.88 174.33 343.99 164.41 343.11 154.5 318.28 137.83 308.05 143.56Z" fill="#FC8F00"/></g></g></g></g><g><g><path d="M280.91 222.53C281.33 218.72 281.94 214.93 282.68 211.17L272.32 211.09 270.24 229.29 277.99 221.87 280.91 222.53Z" fill="#FFB297"/><g><g><path d="M277.76 223.81C277.76 223.81 279.12 221.43 276.47 219.12 276.47 219.12 275.33 219.32 274.62 217.85 273.91 216.38 277.9 211.56 277.49 210.6 277.08 209.64 271.91 209.57 271.38 210.07 270.85 210.57 268.1 228.76 269 229.71 269.9 230.66 274.96 225.93 276.27 224.23 276.26 224.23 277.65 223.99 277.76 223.81Z" fill="#FFFFFF"/></g></g></g><g><g><g><path d="M371.5 228.27 377.67 253.11 388.6 256.99 370.02 263.83 351.19 225.71 359.29 222.22C364.36 220.03 370.17 222.91 371.5 228.27Z" fill="#FFB297"/></g></g><g><g><path d="M379.66 252.39C379.66 252.39 376.7 252.23 375.75 255.92 375.75 255.92 376.5 256.92 375.42 258.33 374.34 259.74 367.76 258.22 367.03 259.08 366.3 259.94 368.75 264.97 369.49 265.24 370.22 265.51 389.14 259.33 389.61 257.99 390.09 256.66 383.06 254.07 380.78 253.63 380.8 253.64 379.9 252.41 379.66 252.39Z" fill="#FFFFFF"/></g></g></g><path d="M362.83 196.02 309.07 189.11C307.79 192.29 305.68 202.35 304.01 210.88L281.33 209.38C280.58 213.21 279.96 221.43 279.54 225.3 305.88 230.59 306.74 230.76 315.85 232.59 323.96 234.22 331.89 229.05 333.67 220.97 334.33 217.97 335.15 214.24 336.18 209.59L357.92 255.88C364.57 254.97 381.26 246.84 382.44 247.01 375.89 226.91 362.83 196.02 362.83 196.02Z" fill="#5E4141"/></g><g><g><g><path d="M394.25 149.69C385.79 146.03 363.67 146.1 363.67 146.1 362 146.49 361.08 147.87 360.6 149.63 359.08 155.25 363.05 160.89 368.79 161.88 377.36 163.36 396.72 171.54 398.57 168.45L394.25 149.69Z" fill="#FFB297"/></g></g><g><g><g><g><path d="M398.08 168.9C411.21 163.58 418.67 129.72 418.67 129.72L410.13 126.74C410.13 126.74 394.2 144.86 388.27 152.83 386.28 155.49 398.08 168.9 398.08 168.9Z" fill="#FFB297"/></g></g><g><g><path d="M392.87 158.96 393.25 158.32C389.48 156.1 389.58 151.58 389.58 151.54L388.84 151.51C388.83 151.72 388.72 156.52 392.87 158.96Z" fill="#DE692B"/></g></g><g><g><g><g><g><path d="M413.47 132.47 416.73 131.37C419.84 130.32 421.52 126.95 420.47 123.84L420.47 123.84C419.42 120.73 416.05 119.06 412.94 120.1L409.68 121.2C406.57 122.25 404.89 125.62 405.94 128.73L405.94 128.73C406.99 131.84 410.36 133.51 413.47 132.47Z" fill="#FFB297"/></g></g><g><g><path d="M409.21 115.73C407.08 116.16 408.29 124.42 410.72 123.97 413.07 123.54 412.26 115.11 409.21 115.73Z" fill="#FFB297"/></g></g><g><g><path d="M417.5 117.19C415.36 116.81 413.56 124 415.99 124.48 418.33 124.94 420.56 117.73 417.5 117.19Z" fill="#FFB297"/></g></g><g><g><path d="M413.41 115.06C411.24 115.25 411.39 122.67 413.86 122.49 416.24 122.32 416.51 114.78 413.41 115.06Z" fill="#FFB297"/></g></g><g><g><path d="M420.34 119.46C418.23 119.21 417.78 123.91 418.97 124.25 421.51 124.97 422.56 119.72 420.34 119.46Z" fill="#FFB297"/></g></g><g><g><g><g><path d="M406.97 127.91C406.97 127.91 403.38 125.28 404.1 122.38 404.44 120.98 404.87 118.73 405.74 119.05 408.21 119.94 407.7 122.25 407.19 123.03 407.19 123.03 409.5 125.38 409.37 126.18" fill="#FFB297"/></g></g></g><g><g><path d="M410.32 127.71C409.92 123.66 407.42 122.71 407.32 122.67L407.07 123.37 407.2 123.02 407.07 123.37C407.16 123.4 409.24 124.23 409.59 127.79L410.32 127.71Z" fill="#DE692B"/></g></g></g></g></g></g></g></g><g><g><g><path d="M355.32 145.95C355.32 145.95 352.81 155.42 364.28 163.47 369.59 167.2 388.78 170.13 388.78 170.13L391.88 144.01C391.88 144.01 366.2 135.83 355.32 145.95Z" fill="#FFFFFF"/></g></g></g></g><g><g><g><g><path d="M320.58 141.05C333.38 130.01 358.9 137.67 360.83 138.8 363.05 139.55 365.62 143.12 366.12 143.69 370.45 148.61 369.98 159.45 369.83 169.37 369.64 182.33 366.72 194.81 365.15 198.27 365.02 198.28 364.88 198.28 364.74 198.28L365.77 202.02C365.77 202.02 339.34 209.49 337.76 207.51 336.58 206.04 336.58 199.5 336.66 196.26 336.38 196.22 336.1 196.19 335.83 196.15 333.82 199.99 329.02 208.82 328 207.85 326.7 206.62 309.24 194.62 309.68 191.04 308.3 172.08 312.22 148.26 320.58 141.05Z" fill="#FFFFFF"/></g></g><g><g><path d="M334 145.8C334 145.8 328.52 154.73 325.67 156.03 309.94 163.22 294.27 165.19 295.32 163.92 295.32 163.92 295.15 163.38 294.85 162.46 293.92 159.65 291.73 153.28 289.36 148.25 288.56 146.56 287.74 145.03 286.95 143.83 286.96 143.84 326.92 123.82 334 145.8Z" fill="#FFFFFF"/></g></g><g><g><path d="M358.1 135.94C358.1 135.94 345.51 158 340.58 157.02 336.35 156.18 330.1 135.36 330.1 135.36 330.1 135.36 318.39 134.81 315.93 142.94 313.76 150.1 302.76 192.02 306.91 193.57 311.06 195.12 361.22 204.03 366.29 200.64 371.35 197.25 379.41 135.46 358.1 135.94Z" fill="#FFA12F"/></g></g><g><g><path d="M340.78 163.01C346.84 163.97 361.97 140.86 363.7 138.17L362.87 137.63C356.1 148.11 344.57 163.26 340.75 161.99 336.31 160.54 327.91 142.61 325.05 135.83L324.14 136.21C324.57 137.22 334.66 161.04 340.44 162.93 340.55 162.97 340.67 163 340.78 163.01Z" fill="#FFFFFF"/></g></g><g><g><g><path d="M333.69 216.29C333.69 216.29 333.7 216.29 333.69 216.29 333.67 216.29 333.67 216.29 333.69 216.29Z" fill="#C77546"/></g></g></g><g><g><g><path d="" fill="none"/></g></g><g><g><g><path d="M344.8 145.59C344.8 145.59 353.28 152 354.59 150.14 355.9 148.28 357.06 139.28 351.83 134.98" fill="#FFFFFF"/></g></g><g><g><path d="M353.34 150.93C353.62 150.97 353.88 150.98 354.1 150.95 354.59 150.87 354.86 150.62 354.99 150.43 356.54 148.24 357.52 139.03 352.14 134.61L351.51 135.37C356.6 139.55 355.31 148.25 354.17 149.86 354.15 149.88 354.11 149.95 353.93 149.98 352.41 150.21 347.68 147.16 345.06 145.18L344.46 145.97C345.14 146.46 350.53 150.48 353.34 150.93Z" fill="#241A13"/></g></g></g><g><g><g><path d="M338.72 144.58C338.72 144.58 327.97 151.25 326.97 149.2 325.97 147.15 326.28 138.08 332.13 134.69" fill="#FFFFFF"/></g></g><g><g><path d="M327.44 150.05C330.07 150.47 338.18 145.52 339.11 144.94L338.59 144.1C335.11 146.25 329.03 149.49 327.53 149.06 327.43 149.03 327.41 149 327.41 148.98 326.55 147.21 326.68 138.42 332.38 135.11L331.88 134.26C325.86 137.76 325.35 147 326.52 149.42 326.62 149.62 326.82 149.89 327.26 150.01 327.32 150.03 327.38 150.04 327.44 150.05Z" fill="#241A13"/></g></g></g><g><g><g><path d="" fill="#C77546"/></g></g></g><g><g><path d="M350.7 135.82C350.7 135.82 351.24 144.32 346.66 145.48 342.07 146.65 334.14 146.48 336.29 134.92L350.7 135.82Z" fill="#FFB297"/></g></g><g><g><g><path d="M336.29 134.93 350.7 135.83C350.7 135.83 350.81 137.64 350.49 139.69L341.35 139.62C339.57 139.61 337.76 139.46 335.95 139.19 335.89 137.97 335.98 136.57 336.29 134.93Z" fill="#EA947D"/></g></g></g></g></g><g><g><g><g><path d="M373.89 190.71C373.89 190.71 374.24 203.21 372.33 203.52 370.42 203.83 367.66 203.76 367.47 203.4 367.28 203.04 367.84 190.52 367.84 190.52L373.89 190.71Z" fill="#E26000"/></g></g></g><g><g><g><path d="M378.2 191.29C378.2 191.29 376.4 149.63 375.35 146.6 373.39 140.96 367 137.23 366 139.65 365 142.07 363.28 186.31 364.92 189 368.64 195.08 378.2 191.29 378.2 191.29Z" fill="#E26000"/></g></g></g></g><g><g><g><g><path d="M309.6 183.76C309.6 183.76 304.91 195.35 303.04 194.87 301.16 194.39 298.66 193.22 298.64 192.81 298.61 192.4 304.14 181.16 304.14 181.16L309.6 183.76Z" fill="#DE692B"/></g></g></g><g><g><g><path d="M310.89 185.78C310.89 185.78 326.74 139.73 326.56 136.54 326.3 132.09 317.44 133.86 315.55 135.68 313.66 137.49 299.22 175.24 299.64 178.37 300.6 185.41 310.89 185.78 310.89 185.78Z" fill="#E26000"/></g></g></g><g><g><g><path d="M302.88 195.04C303.36 195.12 303.75 195.13 303.99 195.06 304.77 194.83 306.41 191.85 307.65 189.39L306.77 188.95C305.62 191.24 304.1 193.87 303.67 194.14 303.19 194.27 300.01 193.38 298.96 192.46 298.66 191.8 300.7 187.76 302.88 184.22 304.53 185.3 308.39 185.92 308.87 185.99L309.02 185.01C307.12 184.7 303.83 183.96 303.13 183.15L302.69 182.65 302.34 183.21C299.84 187.18 297.11 192.13 298.3 193.19 299.24 194.02 301.44 194.82 302.88 195.04Z" fill="#241A13"/></g></g></g></g></g><g><g><g><g><path d="M374.13 103.99C370.22 112.06 372.93 121.47 380.17 125.01 387.41 128.55 396.45 124.88 400.35 116.81 404.25 108.74 401.55 99.33 394.31 95.79 387.07 92.24 378.03 95.92 374.13 103.99Z" fill="#FFB297"/></g></g></g><g><g><g><g><path d="M380.18 106.81C377.88 111.57 379.47 117.12 383.74 119.21 388.01 121.3 393.34 119.13 395.64 114.37 397.94 109.61 396.35 104.06 392.08 101.97 387.81 99.89 382.48 102.06 380.18 106.81Z" fill="#EA947D"/></g></g></g></g><g><g><g><path d="M286.96 68.32C283.06 76.39 285.76 85.8 293 89.34 300.24 92.88 309.28 89.21 313.18 81.14 317.08 73.07 314.38 63.66 307.14 60.12 299.9 56.58 290.87 60.25 286.96 68.32Z" fill="#FFB297"/></g></g></g><g><g><g><g><path d="M293.02 71.15C290.72 75.91 292.31 81.46 296.58 83.55 300.85 85.64 306.18 83.47 308.48 78.71 310.78 73.95 309.19 68.4 304.92 66.31 300.64 64.22 295.32 66.39 293.02 71.15Z" fill="#EA947D"/></g></g></g></g><g><g><g><path d="M351.6 45.74 370.12 54.84C395.07 62.28 394.95 87.27 386.62 107.53L384.13 113.58C382.11 137.17 352.96 143.6 333.12 135.4L317.71 129.03C297.87 120.83 285.29 102.34 296.88 77.51L299.37 71.46C311.88 35.7 331.76 37.54 351.6 45.74Z" fill="#FFB297"/></g></g></g><g><g><g><g><path d="M313.92 46.1C313.92 46.1 327.86 57.26 341.59 56.55 341.59 56.55 339.39 60.92 343 62.53 346.62 64.14 352.6 62.73 352.6 62.73 352.6 62.73 351.31 69.04 360.49 71.35 369.66 73.66 382.88 75.47 392.59 66.49 402.31 57.51 365.78 25.98 365.78 25.98L318.62 27.33 313.92 46.1Z" fill="#EA947D"/></g></g></g></g><g><g><g><path d="M383.85 116.83C383.85 116.83 379.79 118.54 379.67 114.07 379.55 109.61 384.11 100.5 384.11 100.5 384.11 100.5 381 96.73 380.36 93.19 379.72 89.64 385.65 67.19 385.65 67.19 385.65 67.19 361.28 70.39 357.68 66.24 354.08 62.09 359.54 60.47 359.54 60.47 359.54 60.47 345.04 61.27 345.57 58.65 346.1 56.03 351.68 55.46 351.68 55.46 351.68 55.46 326.95 54.52 319.44 44.46 319.44 44.46 310.77 65.23 307.75 66.66 304.73 68.09 302.69 69.73 302.69 69.73 302.69 69.73 299.89 82.88 296.57 83.54 293.25 84.2 293.52 82.89 293.52 82.89 293.52 82.89 290.51 52.54 306.77 36.39 306.77 36.39 292.96 29.12 296.9 23.87 300.54 19.02 312.74 22.27 312.74 22.27 312.74 22.27 305.21 17.32 308.44 14.91 311.66 12.49 323.74 18.82 323.74 18.82 323.74 18.82 316.43 11.28 321.07 6.55 329.2-1.73 417.47 16.88 403.88 49.02 403.88 49.02 414.35 57.98 415.23 67.04 416.12 76.1 400.89 102.83 400.89 102.83 400.89 102.83 389.17 106.78 383.85 116.83Z" fill="#4F3131"/></g></g></g><g><g><g><path d="M348.76 61.08C347.77 60.92 346.93 60.68 346.32 60.34 345.58 59.93 345.17 59.39 345.09 58.73 345.04 58.3 345.17 57.88 345.49 57.47 348.13 54.13 364.66 52.16 366.54 51.95L366.65 52.93C361.66 53.5 348.28 55.53 346.26 58.08 346.11 58.27 346.05 58.44 346.07 58.61 346.11 58.94 346.35 59.23 346.8 59.48 350.23 61.39 362.84 59.85 369.67 56.68L370.09 57.58C364.53 60.14 354.22 61.94 348.76 61.08Z" fill="#241A13"/></g></g></g><g><g><g><path d="M341.24 55.1C317.89 51.41 316.74 40.12 316.7 39.59L317.68 39.51C317.69 39.65 319.18 53.23 350.3 55.06L350.24 56.05C346.93 55.85 343.94 55.52 341.24 55.1Z" fill="#241A13"/></g></g></g><g><g><g><path d="M409.22 64.7C413.62 66.73 414.76 74.88 409.43 74.82 404.1 74.76 404.82 62.67 409.22 64.7Z" fill="#7C6262"/></g></g></g><g><g><g><path d="M400.92 67.26C403.78 69.09 404.15 76.23 400.46 75.68 396.77 75.12 398.07 65.42 400.92 67.26Z" fill="#7C6262"/></g></g></g><g><g><g><path d="M344.55 9.17C345.51 12.83 339.21 13.81 336.43 10.02 333.64 6.23 343.59 5.52 344.55 9.17Z" fill="#7C6262"/></g></g></g><g><g><g><path d="M342.44 15.28C343.24 18.34 337.98 19.16 335.65 15.99 333.32 12.82 341.63 12.22 342.44 15.28Z" fill="#7C6262"/></g></g></g><g><g><g><path d="M369.82 91.59C370.29 93.03 366.06 93.14 361.85 93.23 357.31 93.33 352.72 93.31 351.93 91.84 351.17 90.43 355.51 88.98 360.05 88.9 364.59 88.81 369.33 90.09 369.82 91.59Z" fill="#241A13"/></g></g></g><g><g><g><path d="M316.09 75.14C314.86 76.01 318.19 78.63 321.51 81.21 325.09 84 328.79 86.72 330.3 86.01 331.75 85.33 329.13 81.58 325.54 78.81 321.94 76.03 317.37 74.23 316.09 75.14Z" fill="#241A13"/></g></g></g><g><g><g><g><path d="M331.84 92.57C337.25 92.88 336.86 96.94 339.08 96.87 341.29 96.8 344.27 93.82 346.9 96.58 349.53 99.33 346.63 110.87 333.09 106.16 323.62 102.85 326.43 92.26 331.84 92.57Z" fill="#422222"/></g></g></g><g><g><g><path d="M347.62 100.81C346.23 100.17 344.69 99.71 343.05 99.52 337.69 98.88 332.74 101.08 330.3 104.74 331.08 105.29 332 105.77 333.1 106.15 342.52 109.43 346.78 104.84 347.62 100.81Z" fill="#D14A4A"/></g></g></g></g><g><g><g><g><path d="M320.42 67.99C324.29 64.07 334.98 67 334.66 73.14 334.61 74.08 336.07 74.32 336.12 73.37 336.51 65.68 324.22 62.03 319.27 67.05 318.6 67.73 319.75 68.66 320.42 67.99L320.42 67.99Z" fill="#241A13"/></g></g></g></g><g><g><g><g><path d="M372.85 83.85C370.82 76.67 360.66 73.4 354.98 78.24 354.26 78.85 355.12 80.06 355.85 79.44 360.84 75.19 369.69 78.1 371.47 84.39 371.73 85.31 373.11 84.76 372.85 83.85L372.85 83.85Z" fill="#241A13"/></g></g></g></g><g opacity="0.8"><g><g><g><path d="M353.19 108.93C352.01 112.5 354.78 116.62 359.38 118.14 363.97 119.66 368.65 118 369.83 114.44 371.01 110.87 368.24 106.75 363.64 105.23 359.04 103.71 354.36 105.36 353.19 108.93Z" fill="#D14A4A"/></g></g></g></g><g opacity="0.8"><g><g><g><path d="M301.6 90.87C300.19 94.35 302.69 98.65 307.17 100.47 311.65 102.29 316.43 100.94 317.84 97.46 319.25 93.98 316.75 89.68 312.27 87.86 307.78 86.04 303.01 87.39 301.6 90.87Z" fill="#D14A4A"/></g></g></g></g><g><g><g><g><g><path d="M320.87 92.94C320.46 92.88 320.05 92.8 319.63 92.72 312.51 91.27 307.58 87.16 305.76 81.14 303.87 74.9 305.72 67.79 310.46 63.01 315.22 58.22 322.11 56.71 329.37 58.85L329.37 58.85C339.26 61.77 343 72.23 340.91 80.64 339.17 87.61 332.9 94.84 320.87 92.94ZM325.95 60.1C320.45 59.23 315.52 60.72 311.86 64.41 307.68 68.61 305.99 75.11 307.64 80.58 309.24 85.87 313.64 89.5 320.02 90.79 331.48 93.12 337.33 86.84 338.99 80.18 340.86 72.66 337.56 63.34 328.81 60.76L328.81 60.76C327.84 60.46 326.89 60.24 325.95 60.1Z" fill="#FFFFFF"/></g></g></g><g><g><g><path d="M358.99 104.72C358.58 104.66 358.17 104.58 357.75 104.5 350.63 103.05 345.7 98.94 343.88 92.92 341.99 86.68 343.84 79.57 348.58 74.79 353.34 70 360.23 68.49 367.49 70.63L367.49 70.63C377.38 73.55 381.12 84.01 379.03 92.43 377.3 99.39 371.02 106.62 358.99 104.72ZM364.08 71.87C358.58 71 353.65 72.49 349.99 76.18 345.81 80.39 344.12 86.88 345.77 92.35 347.37 97.64 351.77 101.27 358.15 102.56 369.61 104.9 375.46 98.61 377.12 91.95 378.99 84.43 375.69 75.11 366.94 72.53L366.94 72.53C365.97 72.24 365.02 72.02 364.08 71.87Z" fill="#FFFFFF"/></g></g></g><g><g><g><path d="M343.43 87.61C341.8 85.59 337.79 85.94 337.75 85.95L337.61 84.48C337.81 84.46 342.45 84.04 344.59 86.69L343.43 87.61Z" fill="#FFFFFF"/></g></g></g><g><g><g><rect x="388.22" y="86.4" width="1.48" height="25.69" fill="#FFFFFF" transform="matrix(0.3209 -0.9471 0.9471 0.3209 170.156 435.793)"/></g></g></g></g><g><g><g><rect x="300.13" y="57.54" width="1.48" height="15.1" fill="#FFFFFF" transform="matrix(0.5813 -0.8137 0.8137 0.5813 73.0152 272.067)"/></g></g></g></g></g><g><path d="M321.44 200.98 312.77 191.78 321.98 183.12 336.93 190.22 342.08 192.67 336.79 194.8Z" fill="#FFB297"/><path d="M259.33 194.55 259.6 185.76 318.16 187.54C320.19 187.6 321.79 189.3 321.73 191.33L321.69 192.76C321.63 194.79 319.93 196.39 317.9 196.33L259.33 194.55Z" fill="#6268B6"/><path d="M321.98 183.11 321.96 183.85C321.9 185.95 320.14 187.6 318.05 187.53L259.61 185.75 259.75 181.21 321.98 183.11Z" fill="#4E579B"/><path d="M321.43 200.98 321.45 200.24C321.51 198.14 319.86 196.39 317.77 196.33L259.33 194.55 259.19 199.09 321.43 200.98Z" fill="#4E579B"/><path d="M336.79 194.8C336.52 194.09 336.39 193.31 336.42 192.49 336.44 191.68 336.62 190.91 336.93 190.21L342.08 192.66 336.79 194.8Z" fill="#6268B6"/></g><g><g><g><g><path d="M277.67 160.62C278.08 170.72 285.1 182.19 285.1 182.19L292.61 179.83C292.61 179.83 292.62 167.35 292.62 158.67 292.62 155.15 289.79 152.28 286.27 152.23L285.82 152.22C281.19 152.15 277.49 155.99 277.67 160.62Z" fill="#FFB297"/></g></g><g><g><g><g><g><path d="M288.41 179.15 285.9 180.77C283.5 182.32 282.8 185.52 284.35 187.92L284.35 187.92C285.9 190.32 289.1 191.01 291.5 189.47L294.01 187.85C296.41 186.3 297.11 183.1 295.56 180.7L295.56 180.7C294.01 178.3 290.81 177.61 288.41 179.15Z" fill="#FFB297"/></g></g><g><g><path d="M295.96 194.26C297.63 194.16 295.37 185.41 292.92 185.7 290.57 185.97 293.71 194.4 295.96 194.26Z" fill="#FFB297"/></g></g></g></g><g><g><path d="M293.73 180.8C293.73 180.8 297.58 180.48 298.77 182.78 299.35 183.9 300.16 186.27 299.41 186.56 297.28 187.39 296.48 184.92 296.38 184.12 296.38 184.12 293.52 183.9 293.15 183.29" fill="#FFB297"/></g></g><g><g><path d="M289.04 195.54C291.23 195.6 289.95 186.76 287.96 186.87 286.05 186.97 286.54 195.47 289.04 195.54Z" fill="#FFB297"/></g></g><g><g><path d="M293.03 194.99C293.97 194.66 293.41 192.75 292.81 190.85 292.28 189.16 291.82 187.44 290.86 187.76 288.88 188.41 290.47 195.89 293.03 194.99Z" fill="#FFB297"/></g></g><g><g><path d="M285.55 192.45C287.38 192.21 286.57 187.14 285.49 187.11 283.19 187.03 283.62 192.7 285.55 192.45Z" fill="#FFB297"/></g></g></g></g><g><g><g><g><g><g><g><path d="M294.86 162.47C293.04 163.17 291.38 163.66 290 163.86L281.08 154.01C281.65 152.79 285.08 150.59 289.38 148.26 291.74 153.29 293.93 159.66 294.86 162.47Z" fill="#FFB297"/></g></g></g></g></g></g></g></g></g><g><g><g><g><g><path d="M132.23 156.6C132.23 156.6 119.11 162.57 116.71 169.36 114.31 176.15 104.13 219.21 108.98 227.56 113.83 235.91 133.19 247.37 146.79 240.13 160.39 232.89 170.28 197.56 170.71 185.97 171.13 174.37 144.88 151.48 132.23 156.6Z" fill="#4C569B"/></g></g></g></g><g><g><g><g><g><path d="M119.49 254.11 147.07 208.6 173.93 226.98 141.3 261.99C138.74 265.15 135.31 266.24 131.74 265.86 127.01 265.36 123 262.13 121.09 257.78L119.49 254.11Z" fill="#FFB297"/></g></g></g><g><g><g><path d="M124.63 263.68 98.76 254.12 88.67 261.5 93.85 240.8 139.22 247.15 137.42 256.48C136.3 262.31 130.21 265.74 124.63 263.68Z" fill="#FFB297"/></g></g><g><g><path d="M98.19 256.32C98.19 256.32 100.13 253.78 97.42 250.7 97.42 250.7 96.07 250.76 95.47 248.95 94.87 247.14 100.22 242.19 99.89 241.02 99.56 239.85 93.6 238.98 92.91 239.47 92.23 239.96 86.26 260.55 87.16 261.79 88.06 263.03 94.62 258.34 96.39 256.57 96.4 256.58 98.03 256.52 98.19 256.32Z" fill="#4F3131"/></g></g></g></g><g><g><g><path d="M201.55 254.31 212.3 279.71 224.59 282.01 205.96 292.41 179.5 255 187.53 249.92C192.56 246.74 199.23 248.83 201.55 254.31Z" fill="#FFB297"/></g></g><g><g><path d="M214.29 278.61C214.29 278.61 211.11 278.94 210.73 283.02 210.73 283.02 211.7 283.96 210.79 285.64 209.88 287.32 202.61 286.81 201.98 287.85 201.35 288.89 204.8 293.83 205.63 293.99 206.46 294.15 225.55 284.39 225.83 282.89 226.12 281.39 218.2 279.82 215.7 279.74 215.71 279.75 214.55 278.59 214.29 278.61Z" fill="#4F3131"/></g></g></g><g><g><path d="M191.14 284.86C201.12 286.47 213.67 276.47 213.92 276.5 209.63 256.87 199.94 219.33 199.94 219.33L143.62 214.84C140.93 216.03 123.4 242.54 123.4 242.54L104.15 240.14 100.68 257.35C100.68 257.35 127.29 268.43 136.45 268.3 145.61 268.17 166.48 239.29 166.48 239.29L191.14 284.86Z" fill="#5E4141"/></g></g><g><g><path d="M154.85 238.56 155.05 237.43C155.17 237.45 167.22 239.5 175.43 236.47L175.83 237.55C167.33 240.69 155.36 238.65 154.85 238.56Z" fill="#241A13"/></g></g></g><g><g><g><g><g><g><path d="M101.76 184.04C98.69 195.41 102.5 210.61 102.5 210.61L111.67 210.61C111.67 210.61 116.03 196.74 119.05 187.09 120.28 183.17 118.13 179 114.24 177.71L113.74 177.54C108.62 175.86 103.17 178.84 101.76 184.04Z" fill="#FFB297"/></g></g><g><g><g><g><g><path d="M107.24 208.39 103.88 209.31C100.67 210.19 98.78 213.51 99.67 216.72L99.67 216.72C100.55 219.93 103.87 221.81 107.07 220.93L110.43 220.01C113.64 219.13 115.53 215.81 114.64 212.61L114.64 212.61C113.76 209.4 110.44 207.51 107.24 208.39Z" fill="#FFB297"/></g></g><g><g><path d="M110.36 227.82C112.26 228.29 112.79 217.78 109.97 217.24 107.26 216.72 107.81 227.18 110.36 227.82Z" fill="#FFB297"/></g></g></g></g><g><g><path d="M112.58 212.07C112.58 212.07 116.98 213.05 117.49 216.03 117.74 217.47 117.82 220.39 116.88 220.45 114.23 220.63 114.2 217.61 114.36 216.68 114.36 216.68 111.26 215.44 111.06 214.64" fill="#FFB297"/></g></g><g><g><path d="M102.23 226.82C104.64 227.65 106.3 217.38 104.06 216.81 101.89 216.25 99.47 225.87 102.23 226.82Z" fill="#FFB297"/></g></g><g><g><path d="M106.85 227.61C108.01 227.57 108.05 225.25 108.04 222.93 108.03 220.87 108.13 218.79 106.95 218.81 104.53 218.85 103.69 227.71 106.85 227.61Z" fill="#FFB297"/></g></g><g><g><path d="M99.41 222.17C101.53 222.54 102.39 216.62 101.21 216.21 98.68 215.33 97.19 221.78 99.41 222.17Z" fill="#FFB297"/></g></g></g></g><g><g><g><g><g><g><path d="M117.5 188.2C126.94 185.58 146.59 168.74 146.59 168.74 147.71 167.3 147.55 165.55 146.77 163.77 144.27 158.11 137.23 156.09 131.83 159.1 123.76 163.6 107.77 166.98 103.38 181.18L117.5 188.2Z" fill="#FFB297"/></g></g></g></g></g></g></g><g><g><path d="M156.92 164.4C156.92 164.4 158.58 151.13 154.95 151.52 134.92 153.66 118.04 160.99 119.85 161.63 119.85 161.63 123.82 178.43 123.38 186.72 123.39 186.72 162.88 190.64 156.92 164.4Z" fill="#FFFFFF"/></g></g><g><g><path d="M146.21 181.45C141.47 179.82 138.05 174.62 137.91 174.4L138.87 173.77C138.9 173.82 142.22 178.86 146.58 180.36L146.21 181.45Z" fill="#241A13"/></g></g><g><g><path d="M149.71 183.79C145.06 180.65 140.14 166.82 139.93 166.24L141.01 165.86C141.06 166 146.01 179.92 150.35 182.84L149.71 183.79Z" fill="#241A13"/></g></g></g><g><g><g><path d="M233.21 149.77C222.48 150.3 199.41 161.75 199.41 161.75 197.87 163.02 197.61 164.94 198.02 167.02 199.33 173.68 206.38 177.53 212.88 175.61 222.6 172.74 247.04 171.34 247.38 167.15L233.21 149.77Z" fill="#FFB297"/></g></g><g><g><path d="M244.22 169.63C259.3 162.91 266.63 123.19 266.63 123.19L256.57 120.06C256.57 120.06 238.75 141.79 232.16 151.3 229.95 154.49 244.22 169.63 244.22 169.63Z" fill="#FFB297"/></g></g><g><g><path d="M237.77 158.27C232.84 155.59 232.78 150 232.78 149.76L233.64 149.76C233.64 149.81 233.71 155.08 238.18 157.51L237.77 158.27Z" fill="#DE692B"/></g></g><g><g><g><g><g><path d="M257.18 125.84 261.17 126.23C264.98 126.6 268.37 123.82 268.74 120.01L268.74 120.01C269.11 116.2 266.33 112.82 262.52 112.44L258.54 112.05C254.73 111.67 251.34 114.46 250.97 118.27L250.97 118.27C250.59 122.08 253.37 125.47 257.18 125.84Z" fill="#FFB297"/></g></g><g><g><path d="M260.65 106.03C258.18 105.47 255.52 114.82 258.32 115.51 261.02 116.17 264.19 106.83 260.65 106.03Z" fill="#FFB297"/></g></g><g><g><path d="M268.76 111.54C266.67 110.11 261.32 116.9 263.67 118.56 265.93 120.17 271.76 113.58 268.76 111.54Z" fill="#FFB297"/></g></g><g><g><path d="M265.44 107.32C263.05 106.49 259.66 114.44 262.36 115.43 264.97 116.39 268.86 108.51 265.44 107.32Z" fill="#FFB297"/></g></g><g><g><path d="M270.7 115.31C268.58 114.04 265.86 118.81 266.96 119.74 269.31 121.73 272.93 116.65 270.7 115.31Z" fill="#FFB297"/></g></g><g><g><g><g><path d="M303.68 110.48C303.68 110.48 276.31 77.71 274.78 76.13 273.25 74.55 267.25 74.07 265.46 75.27 263.66 76.47 243.58 96.3 242.88 97.72 242.17 99.14 272.16 133.7 273.42 134.52 274.68 135.34 278.18 136.94 279.37 135.9 280.57 134.86 303.41 111.84 303.68 110.48Z" fill="#6268B6"/></g></g></g><g><g><g><path d="M252.45 117.89C252.45 117.89 249.9 113.39 252.04 110.64 253.08 109.31 254.6 107.13 255.37 107.88 257.57 110 255.92 112.22 255.01 112.8 255.01 112.8 256.34 116.4 255.81 117.19" fill="#FFB297"/></g></g></g><g><g><path d="M256.1 119.29 255.28 119.01C256.61 115.06 254.79 113.19 254.71 113.11L255.31 112.49C255.41 112.59 257.61 114.8 256.1 119.29Z" fill="#DE692B"/></g></g><g><g><path d="M276.33 132.84C276.33 132.84 297.58 112.53 297.2 110.98 296.82 109.43 267.02 76.94 267.66 76.67 268.3 76.4 271.41 76.63 271.87 76.81 272.32 77 301.18 109.79 300.72 110.59 300.27 111.39 279.55 133.47 278.79 133.32 278.04 133.18 276.33 132.84 276.33 132.84Z" fill="#FFFFFF"/></g></g></g></g></g></g><g><g><g><path d="M190.6 165.89C190.6 165.89 189.34 180.88 205.47 183.39 212.94 184.55 238.02 173.94 238.02 173.94L227.82 145.05C227.81 145.05 196.76 149.71 190.6 165.89Z" fill="#FFFFFF"/></g></g></g><g><g><path d="M209.19 183.45 208.4 182.62C212.94 177.58 211.99 163.13 211.98 162.98L213.13 162.9C213.16 163.39 213.78 172.87 211.49 179.36 213.18 177.21 215.11 174.06 215.9 170.16L217.03 170.39C215.41 178.38 209.45 183.25 209.19 183.45Z" fill="#241A13"/></g></g></g></g><g><g><g><g><path d="M150.03 156.72C165.09 144.03 194.71 153.31 196.95 154.65 199.53 155.55 202.47 159.75 203.04 160.42 208.02 166.21 207.32 178.83 207.01 190.38 206.61 205.47 203.04 219.97 201.16 223.97 201.01 223.98 200.84 223.98 200.69 223.98L201.83 228.35C201.83 228.35 173.03 232.04 171.22 229.71 169.87 227.98 167.87 225.01 168 221.24 167.68 221.19 167.35 221.15 167.03 221.1 167.25 225.91 165.29 229.79 163.65 229.69 160.78 229.52 135.61 223.67 136.17 219.5 134.84 197.4 140.2 165 150.03 156.72Z" fill="#FFFFFF"/></g></g><g><g><path d="M193.8 151.28C193.8 151.28 178.84 176.8 173.11 175.6 168.19 174.57 161.2 150.23 161.2 150.23 161.2 150.23 147.57 149.43 144.59 158.87 141.97 167.18 128.58 215.86 133.39 217.72 138.2 219.58 196.51 230.64 202.46 226.76 208.4 222.88 218.64 151.02 193.8 151.28Z" fill="#FFA12F"/></g></g><g><g><path d="M173.19 182.57C173.08 182.55 172.98 182.52 172.88 182.49 166.18 180.21 154.75 152.33 154.26 151.15L155.32 150.72C158.56 158.66 168.09 179.66 173.24 181.41 177.73 182.93 191.3 165.46 199.33 153.34L200.29 153.98C198.23 157.08 180.18 183.96 173.19 182.57Z" fill="#FFFFFF"/></g></g><g><g><g><path d="M173.18 162.38C173.18 162.38 166.37 169.82 164.46 167.98 162.55 166.14 159.26 156.1 164.29 150.04" fill="#FFFFFF"/></g></g><g><g><path d="M164.86 168.81C164.55 168.75 164.27 168.61 164.05 168.39 161.8 166.22 158.65 155.9 163.84 149.66L164.72 150.4C159.81 156.3 163.19 165.97 164.84 167.56 164.9 167.62 165.02 167.7 165.27 167.69 166.95 167.64 170.75 164.16 172.74 161.99L173.59 162.77C173.03 163.38 168.03 168.76 165.31 168.85 165.16 168.85 165.01 168.84 164.86 168.81Z" fill="#241A13"/></g></g></g><g><g><g><path d="M178.33 162.59C178.33 162.59 185.42 170.14 187.53 168.32 189.64 166.5 193.5 156.5 188.28 150.37" fill="#FFFFFF"/></g></g><g><g><path d="M186.15 169.1C183.25 168.52 178.92 164.06 177.91 162.99L178.75 162.2C181.98 165.64 186.11 168.79 187.16 167.89 188.99 166.32 192.93 156.71 187.85 150.75L188.73 150.01C194.12 156.34 190.41 166.63 187.92 168.77 187.44 169.16 186.84 169.24 186.15 169.1Z" fill="#241A13"/></g></g></g><g><g><g><path d="M164.28 244.53C164.28 244.53 164.29 244.54 164.29 244.54 164.25 244.54 164.25 244.53 164.28 244.53Z" fill="#C77546"/></g></g></g><g><g><g><path d="" fill="none"/></g></g><g><g><g><path d="" fill="#C77546"/></g></g></g><g><g><path d="M185.19 151.05C185.19 151.05 185.71 160.95 180.35 162.25 174.99 163.55 165.76 163.24 168.42 149.8L185.19 151.05Z" fill="#FFB297"/></g></g><g><g><g><path d="M168.41 149.8 185.18 151.04C185.18 151.04 185.28 153.14 184.88 155.54L174.24 155.33C172.16 155.29 170.06 155.09 167.96 154.75 167.91 153.35 168.04 151.71 168.41 149.8Z" fill="#EA947D"/></g></g></g></g></g><g><g><g><g><g><g><path d="M139.02 153.44C143.61 151.26 149.27 150 150.97 152.18 152.66 154.36 142.45 210.75 139.74 210.41 137.03 210.07 129.29 209.11 129.05 207.9 128.81 206.69 134.42 155.61 139.02 153.44Z" fill="#6268B6"/></g></g></g></g></g><g><g><g><path d="M133.06 204.44C133.06 204.44 130.05 217.23 130.83 217.89 131.6 218.56 136.05 219.4 136.05 219.4L138.39 205.11 133.06 204.44Z" fill="#6268B6"/></g></g></g></g></g><g><g><g><g><path d="M145.58 102.51C146.89 112.87 140.4 122.26 131.09 123.47 121.78 124.68 113.17 117.27 111.87 106.91 110.56 96.55 117.05 87.17 126.36 85.95 135.67 84.73 144.28 92.15 145.58 102.51Z" fill="#FFB297"/></g></g></g><g><g><g><g><path d="M137.85 103.38C138.62 109.49 134.8 115.02 129.31 115.74 123.82 116.46 118.75 112.08 117.98 105.97 117.21 99.86 121.03 94.33 126.52 93.61 132.01 92.9 137.08 97.27 137.85 103.38Z" fill="#EA947D"/></g></g></g></g><g><g><g><path d="M255.06 95.57C256.37 105.93 249.88 115.32 240.57 116.53 231.26 117.74 222.65 110.33 221.35 99.97 220.04 89.61 226.53 80.23 235.84 79.01 245.15 77.79 253.76 85.21 255.06 95.57Z" fill="#FFB297"/></g></g></g><g><g><g><g><path d="M247.33 96.44C248.1 102.55 244.28 108.08 238.79 108.8 233.3 109.52 228.23 105.14 227.46 99.03 226.69 92.92 230.51 87.39 236 86.67 241.49 85.96 246.56 90.33 247.33 96.44Z" fill="#EA947D"/></g></g></g></g><g><g><g><path d="M192.12 46.59 168.29 49.74C137.98 48.67 128.81 76.3 130.48 101.76L130.98 109.37C124.43 136.16 154.22 154.1 179.17 152.43L198.56 151.13C223.51 149.46 244.27 133.73 240.72 102.01L240.22 94.4C239.7 50.29 217.07 44.92 192.12 46.59Z" fill="#FFB297"/></g></g></g><g><g><g><g><path d="M177.32 96.86C177.06 100.32 174.04 102.91 170.58 102.65 167.12 102.39 164.54 99.36 164.8 95.91L164.87 95.04 168.57 92.92 165.17 91.04 165.29 89.5C165.55 86.04 168.57 83.46 172.03 83.72 173.76 83.85 175.27 84.67 176.32 85.89 178.41 88.34 177.82 90.24 177.32 96.86Z" fill="#422222"/></g></g></g><g><g><g><path d="M211.52 90.46 211.03 96.86C210.77 100.32 207.75 102.91 204.29 102.65 201.16 102.41 198.2 99.99 198.58 95.04L202.28 92.92 198.88 91.04C199.74 79.88 212.1 82.83 211.52 90.46Z" fill="#422222"/></g></g></g><g><g><g><g><path d="M153.44 86.27C153.08 86.04 169.57 76.78 179.09 77.56 179.2 77.72 177.35 68.29 164.57 72.09 151.7 76.55 153.55 86.42 153.44 86.27Z" fill="#422222"/></g></g></g><g><g><g><path d="M222.9 88.77C223.23 88.58 208.73 78.55 199.72 78.48 199.61 78.63 201.05 69.96 212.88 74.87 224.23 80.21 222.8 88.91 222.9 88.77Z" fill="#422222"/></g></g></g></g></g><g><g><g><g><path d="M137.77 68.47C137.77 68.47 172.61 72.68 179.94 66.94 179.94 66.94 175.72 70.9 185.55 73.21 195.38 75.52 223.29 64.62 223.49 53.33 223.68 42.05 184.35 34.54 184.35 34.54L137.77 56.47 137.77 68.47Z" fill="#EA947D"/></g></g></g></g><g><g><g><path d="M116.34 91.87C119.77 87.82 126.42 90.12 126.65 95.43 126.93 102.01 127.46 109.68 128.42 110.21 130.11 111.14 133.81 107.63 133.81 107.63L132.87 91.96C132.87 91.96 139.01 89.11 142.31 85.91 145.6 82.7 144 63.7 144 63.7 144 63.7 169.37 69.04 187.35 61.16 187.35 61.16 180.63 65.75 183.61 67.93 186.59 70.11 200.12 60.23 200.12 60.23 200.12 60.23 191.4 66.37 196.52 68.82 201.64 71.27 214.01 61.96 218.15 54.89 218.15 54.89 221.49 54.22 223.05 59.12 224.61 64.02 225.81 83.33 229.91 85.29 234.01 87.25 236.01 86.7 236.01 86.7 236.01 86.7 236.7 110.37 238.8 108.82 240.9 107.28 240.9 107.28 240.9 107.28L242.59 79.28C242.59 79.28 248.55 80.75 250.87 85.38 250.87 85.38 251.71 52.58 247.08 40.43 242.45 28.28 230.25 21.69 230.25 21.69 230.25 21.69 240.75 24.45 240.13 20.75 239.51 17.06 226.69 15.46 226.69 15.46 226.69 15.46 238.48 13.68 233.32 11.59 228.16 9.5 225.4 8.43 216.32 11.64 216.32 11.64 229.63 3.54 220.95 0.65 212.27-2.24 204.75 5.86 200.57 10.4 200.57 10.4 140.52-1.07 119.17 33.87 100.91 63.75 110.59 88.13 114.95 93.74 114.93 93.69 115.44 92.92 116.34 91.87Z" fill="#4F3131"/></g></g></g><g><g><g><path d="M183.24 68.36C182.65 67.89 182.35 67.25 182.38 66.5 182.54 62.58 192.19 56.04 193.28 55.31L193.92 56.27C191.07 58.17 183.65 63.72 183.53 66.55 183.51 66.93 183.65 67.22 183.95 67.46L183.24 68.36Z" fill="#241A13"/></g></g></g><g><g><g><path d="M196.58 69.4C196.51 69.39 196.45 69.37 196.39 69.36L196.24 69.3C196.17 69.26 194.49 68.33 194.46 66.4 194.43 64 196.98 61.31 202.04 58.4L202.61 59.4C196.48 62.92 195.59 65.29 195.61 66.38 195.62 67.47 196.49 68.09 196.72 68.24 196.75 68.25 196.77 68.25 196.8 68.26 209.31 70.76 222.83 45.31 222.96 45.06L223.98 45.59C223.41 46.69 209.92 72.07 196.58 69.4Z" fill="#241A13"/></g></g></g><g><g><g><path d="M137.31 23.53C139.75 26.96 133.95 33.79 131.03 32.12 125.64 29.05 134.87 20.1 137.31 23.53Z" fill="#7C6262"/></g></g></g><g><g><g><path d="M143.78 28.94C145.86 31.87 140.9 37.72 138.41 36.29 133.8 33.66 141.7 26 143.78 28.94Z" fill="#7C6262"/></g></g></g><g><g><g><path d="M241.3 41.85C237.95 43.24 233.32 37.06 235.28 34.93 238.9 30.99 244.65 40.46 241.3 41.85Z" fill="#7C6262"/></g></g></g><g><g><g><path d="M235.52 46.26C232.66 47.45 228.7 42.16 230.37 40.34 233.47 36.97 238.39 45.07 235.52 46.26Z" fill="#7C6262"/></g></g></g><g><g><g><g><path d="M196.51 105.64C190.42 103.97 189.34 108.6 186.92 107.69 184.5 106.79 182.33 102.39 178.4 104.45 174.47 106.51 173.38 120.33 190.08 120.16 201.76 120.05 202.59 107.31 196.51 105.64Z" fill="#422222"/></g></g></g><g><g><g><path d="M176.02 108.87C177.79 108.68 179.66 108.75 181.55 109.15 187.71 110.44 192.35 114.7 193.68 119.66 192.61 119.97 191.42 120.16 190.07 120.17 178.44 120.28 175.45 113.62 176.02 108.87Z" fill="#D14A4A"/></g></g></g></g><g opacity="0.8"><g><g><g><path d="M166.86 115.76C166.83 120.13 162.24 123.66 156.6 123.63 150.96 123.6 146.42 120.03 146.45 115.66 146.48 111.29 151.07 107.76 156.71 107.79 162.34 107.81 166.89 111.38 166.86 115.76Z" fill="#D14A4A"/></g></g></g></g><g opacity="0.8"><g><g><g><path d="M230.52 115.01C230.78 119.38 226.43 123.19 220.8 123.54 215.17 123.88 210.4 120.62 210.15 116.25 209.89 111.88 214.24 108.07 219.87 107.72 225.49 107.38 230.26 110.65 230.52 115.01Z" fill="#D14A4A"/></g></g></g></g></g></g></svg>